/* XPM */
static char *_b530578a1b44bd9fab1dc8b9982f628UZkAseYiop5f8eBB[] = {
/* columns rows colors chars-per-pixel */
"64 64 197 2 ",
"   c #2D1D1C",
".  c #321F1B",
"X  c #39241C",
"o  c #221822",
"O  c #3B2C29",
"+  c #352B37",
"@  c #3B3035",
"#  c #44281D",
"$  c #5B3B1D",
"%  c #442E24",
"&  c #402E28",
"*  c #473227",
"=  c #493C35",
"-  c #4C3E3B",
";  c #6B471E",
":  c #6F491F",
">  c #574635",
",  c #6F4E21",
"<  c #6D4D28",
"1  c #7B5623",
"2  c #70522C",
"3  c #7B5B2D",
"4  c #695638",
"5  c #735C33",
"6  c #795C33",
"7  c #7E622E",
"8  c #6D613A",
"9  c #786539",
"0  c #4F4041",
"q  c #534846",
"w  c #4C4559",
"e  c #5C5453",
"r  c #695B53",
"t  c #686544",
"y  c #736B43",
"u  c #77744A",
"i  c #7A7D52",
"p  c #5A5766",
"a  c #5C5867",
"s  c #5D5969",
"d  c #605A65",
"f  c #615C6A",
"g  c #645F70",
"h  c #67616C",
"j  c #69636E",
"k  c #736A64",
"l  c #677A64",
"z  c #697C65",
"x  c #6D7E68",
"c  c #747C6D",
"v  c #666071",
"b  c #6B6674",
"n  c #6E6975",
"m  c #6F6778",
"M  c #706775",
"N  c #736C75",
"B  c #746D7B",
"V  c #796F79",
"C  c #7C7476",
"Z  c #7D747A",
"A  c #80591F",
"S  c #805B24",
"D  c #825D29",
"F  c #85632E",
"G  c #8B6429",
"H  c #956C2B",
"J  c #9A6F29",
"K  c #9C712C",
"L  c #8D6C38",
"P  c #8C703E",
"I  c #997333",
"U  c #A1752B",
"Y  c #A27833",
"T  c #AA7D31",
"R  c #A37D3B",
"E  c #896E44",
"W  c #81764D",
"Q  c #997B4B",
"!  c #80736A",
"~  c #887D70",
"^  c #82767C",
"/  c #847B7D",
"(  c #7B8357",
")  c #7A855A",
"_  c #7C8A5D",
"`  c #7A8F66",
"'  c #7A9168",
"]  c #7A936D",
"[  c #7F9B6E",
"{  c #AA823C",
"}  c #B1863B",
"|  c #908652",
" . c #998459",
".. c #A58545",
"X. c #B28A42",
"o. c #B9934A",
"O. c #A78C50",
"+. c #A8945D",
"@. c #B49653",
"#. c #BD9C54",
"$. c #819666",
"%. c #819C6E",
"&. c #89817E",
"*. c #818D7B",
"=. c #829E71",
"-. c #A59564",
";. c #A9956A",
":. c #87A26E",
">. c #86A373",
",. c #89A772",
"<. c #8AA973",
"1. c #8EAE79",
"2. c #91B17A",
"3. c #BCA565",
"4. c #BBA878",
"5. c #C1A35D",
"6. c #C3A965",
"7. c #C6B16C",
"8. c #C6B475",
"9. c #7F7780",
"0. c #847B81",
"q. c #8B7D84",
"w. c #8C8383",
"e. c #8D8887",
"r. c #928584",
"t. c #948986",
"y. c #93838A",
"u. c #99878D",
"i. c #958C8A",
"p. c #9A8C8A",
"a. c #899A84",
"s. c #8D9E89",
"d. c #9C928D",
"f. c #9D9998",
"g. c #A3958F",
"h. c #A4998F",
"j. c #A59992",
"k. c #A39995",
"l. c #AB9D93",
"z. c #B19E95",
"x. c #8EA08B",
"c. c #AEA08F",
"v. c #BDAF83",
"b. c #AFA197",
"n. c #A8A298",
"m. c #B2A496",
"M. c #B2A598",
"N. c #B6A898",
"B. c #BAAC9B",
"V. c #BFB19D",
"C. c #AEABA2",
"Z. c #B2AFA6",
"A. c #B4B0A5",
"S. c #B9B4A5",
"D. c #B8B3B4",
"F. c #BFBEB3",
"G. c #C7B886",
"H. c #C2B49E",
"J. c #C5B6A1",
"K. c #C7B8A2",
"L. c #CABCA4",
"P. c #C4BEA8",
"I. c #C2BFB1",
"U. c #CFC38F",
"Y. c #CFC0A7",
"T. c #C9C3AC",
"R. c #CAC4AC",
"E. c #D8D1A5",
"W. c #C2C3B6",
"Q. c #D4CDB4",
"!. c #DDD7B7",
"~. c #DDD6B9",
"^. c #E4DCBD",
"/. c #CFCDC4",
"(. c #CECDCC",
"). c #D0CEC5",
"_. c #D0CFCE",
"`. c #D1D1CF",
"'. c #DCDCCB",
"]. c #D5D4D1",
"[. c #D9D7D3",
"{. c #DDDAD4",
"}. c #E1DED6",
"|. c #E3E4C5",
" X c #E4E5C6",
".X c #E5E6C8",
"XX c #E7E8CB",
"oX c #E8E9CB",
"OX c #E9EACC",
"+X c #E5E1D7",
"@X c #E5E2D9",
"#X c #E9E5DA",
"$X c #E9E5DB",
"%X c #EAE7DB",
"&X c #ECEBDC",
"*X c #EFF0DB",
"=X c #F1F2DD",
/* pixels */
".X X X X|.|. X X X|.|. X X X X|.|. X X X|.|. X X X X|. X X X X|.|. X X X X|. X X X X|.|. X X X|.|. X X X X|.|. X X X|.|. X X X X",
"OXXXXXXXOXOXXXXXXXOXOXoXXXXXXXOXOXXXXXXXOXOXoXXXXXoXOXOXXXXXXXOXOXXXXXXXOXOXOXXXXXXXOXOXXXXXXXOXOXoXXXXXoXOXOXXXXXXXOXOXXXXXXXoX",
"/.$X$X@X`.(.}.$X$X[.(.[.$X$X}.(.`.@X$X$X].(.{.$X$X{.(.].$X$X@X_.(.+X$X$X].(.[.$X$X}.(.`.@X$X$X].(.{.$X$X[.(.].$X$X+X_._.+X$X$X).",
"b d.H.e.v v 0.B.l.n v n l.B.0.g v t.H.d.v v Z B.M.B f b g.V.e.g g 0.B.j.b g M b.B.9.g g i.H.p.v g Z B.M.B v b j.H.q.v g w.H.j.b ",
"B Z N.b i.j.b m./ Z b.Z r.l.b j.i.M B.N q.l.b j.p.b b.0.Z N.b p.d.v m./ V m.M r.l.g j.w.M B.N w.l.v h.d.M M.^ Z B.b h.d.b m.q.m ",
"q./ g.Z V.H.w.j.^ j.L.h.r.p./ L.B.^ z.Z N.L.w.g.r.r.Y.l.^ l.Z J.K.Z l./ h.Y.i.w.g.^ L.B.C l.Z M.L.w.p.p.i.L.l.^ z./ V.K.^ g.q.0.",
"y.^ q.0.Q.Q.i.y.V S.~.Z.0.q.i.^.R.0.u.Z R.~.d.y.^ k.^.S.Z u./ ~.~.0.u.Z A.^.n.^ y.e.~.Q.Z u.Z T.^.d.q.q.n.~.S.V u.w.Q.~.w.q.^ q.",
"M f s f / / j s p N &.N s s h &.^ f f a Z &.j s a b w.C a f f / / f f p N w.N s s h &.^ a f a Z &.j s s N &.C p f f / / f s f b ",
"x z z z l l z z z z l z z z z l l z z z z l z z z l l l z z z l l z z z z l l z z z l l z z z l l l z z l l l z z z l l z z z l ",
"] ' ] [ %.%.%.%.%.%.%.%.[ [ [ %.%.[ %.%.%.%.%.[ [ %.%.%.[ [ [ %.%.[ [ [ %.%.%.[ [ [ %.%.%.%.[ %.%.[ [ [ %.%.%.%.%.[ %.%.[ [ ] ' ",
"] =.,.,.,.,.,.,.,.,.,.,.,.,.,.,.,.,.,.,.,.,.,.,.,.,.,.,.,.,.,.,.,.,.,.,.,.,.,.,.,.,.,.,.,.,.,.,.,.,.,.,.,.,.,.,.,.,.,.,.,.,.>.' ",
"=.<.,.,.,.,.,.,.,.,.,.,.,.,.,.,.,.,.,.,.,.,.,.,.,.,.,.,.,.,.,.,.,.,.,.,.,.,.,.,.,.,.,.,.,.,.,.,.,.,.,.,.,.,.,.,.,.,.,.,.,.,.,.%.",
"=.<.,.,.,.,.,.<.,.,.,.,.,.,.<.,.,.,.,.,.,.,.,.,.<.<.,.,.,.,.,.,.,.,.,.,.<.<.,.,.,.,.,.,.,.,.,.<.,.,.,.,.,.,.<.<.,.,.,.,.,.,.<.=.",
"=.<.,.,.,.,.,.,.,.,.,.,.,.,.<.<.,.,.,.,.,.,.,.,.<.<.,.,.,.,.,.,.,.,.,.,.<.<.<.,.,.,.,.,.,.,.,.,.,.,.,.,.,.,.<.<.,.,.,.,.,.,.<.=.",
"=.<.,.,.,.,.,.,.,.,.,.,.,.<.,.<.,.,.,.,.,.,.,.,.<.<.,.,.,.,.,.,.,.,.,.,.<.<.,.,.,.,.,.,.,.,.,.,.,.,.,.,.,.,.<.<.,.,.,.,.,.,.<.=.",
"=.<.,.,.,.,.,.,.,.,.,.,.,.<.<.<.,.,.,.,.,.,.,.<.<.<.,.,.,.,.,.,.,.,.,.,.<.<.,.,.,.,.,.,.,.,.,.,.,.,.,.,.,.,.<.<.,.,.,.,.,.,.<.=.",
"=.<.,.<.,.,.,.,.,.,.,.,.,.,.,.,.,.,.,.,.<.<.,.,.,.,.<.<.<.,.,.,.,.,.,.,.,.,.,.,.,.,.,.,.<.<.<.,.,.,.<.<.,.,.,.,.,.,.,.,.,.,.<.=.",
"=.<.,.<.,.,.,.,.,.,.,.<.,.,.,.,.,.,.<.,.<.<.,.,.,.,.<.<.<.,.,.,.,.,.,.,.<.,.,.,.,.,.,.,.<.<.<.<.,.,.,.<.,.,.,.,.,.,.,.,.,.,.<.=.",
"=.<.,.<.,.,.<.,.,.,.<.<.,.,.,.,.<.<.<.<.<.<.,.,.,.,.,.,.,.,.,.,.,.,.<.<.<.<.<.,.<.<.,.,.,.,.,.,.,.,.<.<.,.,.,.,.,.,.,.,.,.,.<.=.",
"=.<.,.,.,.,.<.<.,.,.<.<.<.<.,.,.<.<.<.<.<.<.,.,.,.,.,.,.,.,.,.,.,.,.,.<.<.<.<.,.<.<.<.<.,.,.,.,.,.,.<.,.,.,.,.<.,.,.,.,.,.,.<.=.",
"=.<.,.,.,.,.<.<.,.,.,.<.<.<.<.,.,.,.,.,.<.<.,.,.<.<.,.,.,.<.<.<.,.,.<.<.<.<.<.<.<.,.,.,.,.<.,.,.,.,.,.,.<.<.<.<.,.,.<.<.,.,.<.=.",
"=.<.,.,.,.,.<.<.,.,.<.<.<.<.<.,.,.,.,.,.<.<.,.,.<.<.,.,.<.<.<.<.,.,.<.<.<.<.<.,.,.,.,.,.<.<.,.,.,.,.<.<.,.,.<.<.,.,.<.<.,.,.<.=.",
"=.<.,.,.,.,.,.,.,.,.<.<.,.<.,.,.,.,.,.,.<.,.,.,.<.<.,.,.,.,.,.,.,.,.,.,.,.,.,.,.,.,.,.,.<.<.,.,.,.,.<.<.,.,.,.,.,.,.<.<.,.,.<.=.",
"=.<.,.,.,.,.,.,.,.,.<.<.,.,.,.,.,.,.,.,.,.,.,.,.,.<.,.,.,.,.,.,.,.,.,.,.,.,.,.,.,.,.,.,.<.<.,.,.,.<.<.<.,.,.,.,.,.,.,.<.,.,.<.=.",
"=.<.,.,.,.,.,.,.,.,.,.,.<.<.,.,.,.,.,.,.<.<.<.<.,.,.,.<.<.<.<.<.,.,.,.<.<.<.,.,.<.<.,.,.,.,.<.<.,.,.<.<.<.<.,.,.<.,.,.,.,.,.<.=.",
"=.<.,.<.,.,.,.,.,.,.,.,.<.<.,.,.<.,.,.,.,.<.<.<.,.,.,.,.<.<.,.,.,.,.,.<.<.<.,.,.<.,.,.,.,.<.<.<.,.,.<.,.<.<.,.,.<.<.,.,.,.,.<.=.",
"=.<.,.,.<.,.,.,.,.,.,.,.<.,.,.,.<.<.,.,.,.,.,.,.,.,.,.,.,.,.,.,.,.,.,.,.<.,.,.,.<.<.,.,.,.,.<.<.,.,.,.,.,.,.,.,.<.<.,.,.,.,.<.=.",
"=.<.,.,.<.,.,.,.,.,.,.,.<.<.,.,.<.<.,.,.,.,.,.,.,.,.,.,.,.,.,.,.,.,.,.,.,.,.,.,.<.<.,.,.,.,.,.,.,.,.,.,.,.,.,.,.<.<.,.,.,.,.<.=.",
"=.<.,.,.<.<.<.<.<.<.<.<.,.,.<.<.<.,.,.,.,.,.,.,.,.,.,.,.,.,.,.,.<.<.<.,.,.,.<.<.,.,.,.,.,.,.,.,.,.,.,.,.,.,.<.<.,.,.,.,.,.,.<.=.",
"=.<.,.,.<.<.,.,.<.,.<.<.,.<.<.<.<.,.,.,.,.,.,.,.,.,.,.,.,.,.<.<.<.<.<.,.,.,.,.<.,.,.,.,.,.,.,.,.<.,.,.,.,.,.<.<.,.,.,.,.,.,.<.=.",
"=.<.,.,.,.,.,.,.,.,.,.,.,.,.<.<.,.,.,.,.,.,.<.<.,.<.,.,.,.,.<.<.,.<.,.,.,.,.<.<.,.,.,.,.,.,.,.<.<.<.,.,.,.,.<.<.,.,.,.,.,.,.<.=.",
"=.<.,.,.,.,.,.,.,.,.,.,.,.,.,.,.,.,.,.,.,.,.<.<.<.<.,.,.,.<.<.<.,.,.,.,.,.,.<.<.,.,.,.,.,.,.,.<.<.<.,.,.,.,.,.<.,.,.,.,.,.,.<.=.",
"=.<.,.,.,.,.,.,.,.,.,.,.,.,.,.,.,.,.,.,.,.<.,.,.,.,.,.,.<.<.<.,.,.,.,.,.,.,.,.<.<.<.,.,.,.,.,.<.<.<.<.,.,.,.<.<.<.<.,.,.,.,.<.=.",
"=.<.,.,.,.,.,.,.,.,.,.,.,.,.,.,.,.,.,.,.<.<.,.,.,.,.,.,.<.<.,.,.,.,.,.,.,.,.<.<.<.<.,.,.,.,.<.<.<.<.,.,.,.,.<.,.<.<.,.,.,.,.<.=.",
"=.<.,.<.,.,.<.<.,.<.<.<.<.<.,.,.,.,.,.<.<.<.,.,.<.<.<.<.<.,.,.<.<.<.,.,.,.,.,.,.<.,.,.,.,.,.<.<.<.<.,.,.,.,.,.,.,.,.,.,.,.,.<.=.",
"=.<.,.,.<.<.<.<.,.<.<.<.<.<.<.,.,.,.,.<.<.<.,.,.,.<.<.<.<.,.<.,.<.<.,.,.,.,.,.,.,.,.,.,.,.,.,.<.,.,.,.,.,.,.,.,.,.,.,.,.,.,.<.=.",
"=.<.,.,.,.,.<.<.,.,.<.<.<.,.,.,.,.,.<.<.<.<.<.<.,.,.,.,.$.u  .-.-.| ( ,.,.,.,.,.,.,.,.,.,.,.,.,.,.,.,.,.,.,.,.,.,.,.,.,.,.,.<.=.",
"=.<.,.<.,.,.,.,.,.<.<.<.<.,.,.,.,.,.<.<.<.<.<.<.,.,.,.:.y P -.4.;.| 9 ' ,.,.,.,.,.,.,.,.,.,.,.,.,.,.,.,.,.,.,.,.,.,.,.,.,.,.<.=.",
"=.<.,.,.,.,.,.,.,.,.<.<.,.,.,.,.,.,.,.,.,.,.,.,.,.,.,.:.y D 1 K F D 7 ` ,.,.,.,.,.,.,.,.<.<.,.,.,.,.<.<.,.,.,.,.<.<.<.,.,.,.<.=.",
"=.<.,.,.,.,.,.,.,.,.,.,.,.,.,.,.,.,.,.,.,.,.,.,.,.,.,.%.W Q E 4. .P  .) ,.,.,.,.,.,.,.<.<.<.<.<.<.<.<.<.<.,.,.,.<.<.<.<.,.,.<.=.",
"=.<.,.<.,.,.,.,.,.,.<.<.,.,.,.,.,.,.,.,.<.<.,.,.,.,.,._ -.-.4.XXE.Q v.u :.,.,.,.,.<.,.,.,.,.,.,.,.,.,.,.,.,.<.,.,.,.,.,.,.,.<.=.",
"=.<.,.,.,.,.,.<.,.,.<.<.,.,.,.,.,.,.,.,.<.<.,.,.,.,.,.W G.O.U. X!...8. ._ ,.,.,.<.<.,.,.,.,.,.,.,.,.,.,.,.,.<.<.,.,.,.,.,.,.<.=.",
"=.<.,.,.,.,.<.<.,.,.,.<.,.,.,.,.,.,.,.,.<.,.,.,.,.,.( +.7.X.U.!.E.#.@.4.W %.,.,.<.<.,.,.<.<.<.<.<.<.<.<.,.,.<.<.,.,.,.,.,.,.<.=.",
"=.<.,.,.,.,.<.<.,.,.<.<.,.,.,.,.,.,.,.,.,.,.,.,.,.$.9 { R #.6.6.5.6.{ ..F ) ,.,.<.<.,.,.,.<.<.<.<.<.<.,.,.,.<.<.,.,.,.,.,.,.<.=.",
"=.<.,.,.,.,.,.<.<.<.,.,.<.<.<.<.<.<.<.<.,.,.,.,.,.$.9 S G X.} } } X.Y 1 3 ) ,.,.,.,.,.<.,.,.,.,.,.,.,.,.,.,.,.,.,.,.<.<.,.,.<.=.",
"=.<.,.,.,.,.,.<.<.<.<.,.<.<.,.<.<.<.<.<.,.,.,.,.,.:.i 2 A H T T T K G , y %.,.,.,.,.,.<.,.,.,.,.,.,.,.,.,.,.,.,.,.,.<.<.,.,.<.=.",
"=.<.,.<.,.,.,.,.<.<.,.,.,.,.,.,.,.<.,.,.,.,.,.,.,.,.:.i 7 F 3 6 3 7 7 9 $.,.,.,.,.,.<.<.,.,.,.,.,.,.,.<.<.<.,.,.,.,.<.<.,.,.<.=.",
"=.<.,.,.,.,.,.,.,.,.,.,.,.,.,.,.,.,.,.,.,.,.,.,.,.,.,.$.( t = + @ t y _ %.,.,.,.,.,.<.<.<.,.,.,.,.,.,.<.<.<.,.,.,.,.<.<.,.,.<.=.",
"=.<.,.,.,.,.,.,.,.,.,.,.,.,.,.,.,.,.<.<.<.,.,.,.,.,._ 4 7 6 0 o @ 4 F 3 8 $.,.<.,.,.,.,.,.,.,.,.,.,.<.<.<.,.,.,.,.,.,.,.,.,.<.=.",
"=.<.,.<.,.,.,.,.,.,.,.,.,.,.,.,.,.,.<.<.<.,.,.,.,.$.5 R X.5 w + w q { X.I y :.,.,.,.,.,.,.,.,.,.,.,.<.<.<.,.,.,.,.,.,.,.,.,.<.=.",
"=.<.,.,.<.,.,.,.,.,.,.,.<.<.<.,.,.,.,.<.,.,.,.,.,.u L 5.X.L @ + + 4 } o.#.3 ` ,.,.,.,.,.<.<.<.,.,.,.,.<.,.,.,.,.,.,.,.,.,.,.<.=.",
"=.<.,.,.<.,.,.,.,.,.,.,.<.<.<.<.,.,.,.,.,.,.,.,.,.u I 7.#.X.6 > < R o.5.6.G _ ,.,.,.,.,.<.<.<.<.,.,.,.,.,.,.,.,.,.,.,.,.<.,.<.=.",
"=.<.,.,.<.<.<.<.,.,.,.,.,.,.,.,.,.,.,.,.,.<.,.,.,.u H 5.8.7.3. .+.6.8.7.#.F _ ,.,.,.,.,.,.,.,.,.,.,.,.,.,.<.<.<.,.,.,.,.,.,.<.=.",
"=.,.,.,.,.,.,.,.,.,.,.,.,.,.,.,.,.,.,.,.,.,.,.,.,._ 3 { o.#.#.#.#.#.#.X.Y 5 $.,.,.,.,.,.,.,.,.,.,.,.,.,.,.,.,.,.,.,.,.,.,.,.,.%.",
">.2.1.1.1.1.1.1.1.1.1.1.1.1.1.1.1.1.1.1.1.1.1.1.1.%.> 1 H K U U U U J H , t <.1.1.1.1.1.1.1.1.1.1.1.1.1.1.1.1.1.1.1.1.1.1.1.2.>.",
"a.x.s.s.s.s.s.s.s.s.s.s.s.s.s.s.s.s.s.s.s.s.s.s.s.a.c - * $ : : : ; $ * q *.s.s.s.s.s.s.s.s.s.s.s.s.s.s.s.s.s.s.s.s.s.s.s.s.s.a.",
"f.W.F.F.F.F.F.F.F.F.F.F.F.F.F.F.F.F.F.F.F.F.F.F.F.F.F.C.&.k O . . = C i.A.F.F.F.F.F.F.F.F.F.F.F.F.F.F.F.F.F.F.F.F.F.F.F.F.F.W.k.",
"D.&X$X$X$X$X$X$X$X$X$X$X$X$X$X$X$X$X$X$X$X$X$X$X$X$X$X@X+X{.d.& - F.}.+X@X$X$X$X$X$X$X$X$X$X$X$X$X$X$X$X$X$X$X$X$X$X$X$X$X$X$XD.",
"g.K.H.H.H.H.H.H.H.H.H.H.H.H.H.H.H.H.H.H.H.H.H.H.H.H.H.H.H.V.&.% - c.H.H.H.H.H.H.H.H.H.H.H.H.H.H.H.H.H.H.H.H.H.H.H.H.H.H.H.H.K.j.",
"k.L.K.K.K.K.K.K.K.K.K.K.K.K.K.K.K.K.K.K.K.K.K.K.K.K.K.K.K.c.r X % ! N.K.K.K.K.K.K.K.K.K.K.K.K.K.K.K.K.K.K.K.K.K.K.K.K.K.K.K.L.k.",
"k.R.T.T.R.T.T.T.T.T.T.T.T.T.T.T.T.T.T.T.T.T.T.T.T.T.T.T.S.r # X X % ~ P.T.T.T.T.T.T.T.T.T.T.T.T.T.T.T.T.T.T.T.T.T.T.T.T.T.T.R.n.",
"v n b b b b b b b b b b b b b b b b b b b b b b b b b b d &   # X . - j b b b b b b b b b b b b b b b b b b b b b b b b b b n v ",
"Z.Z.Z.Z.Z.Z.Z.Z.Z.Z.Z.Z.Z.Z.Z.Z.Z.Z.Z.Z.Z.Z.Z.Z.Z.Z.Z.Z.w.> e % * e k C.Z.Z.Z.Z.Z.Z.Z.Z.Z.Z.Z.Z.Z.Z.Z.Z.Z.Z.Z.Z.Z.Z.Z.Z.Z.Z.A.A.",
"=X=X=X=X=X=X=X=X=X=X=X=X=X=X=X=X=X=X=X=X=X=X=X=X=X=X=X=X*X&XI.- r '.&X=X=X=X=X=X=X=X=X=X=X=X=X=X=X=X=X=X=X=X=X=X=X=X=X=X=X=X=X=X"
};
