/* XPM */
static char *_d7cbdaa2bc147ecb703a73cee612009EbjD4E6Sh4BL0Hps[] = {
/* columns rows colors chars-per-pixel */
"64 64 219 2 ",
"   c #0F0D15",
".  c #130C13",
"X  c #190E13",
"o  c #1D1115",
"O  c #17171B",
"+  c #1D141B",
"@  c #210F13",
"#  c #241214",
"$  c #2B1414",
"%  c #291719",
"&  c #2C1C1A",
"*  c #331614",
"=  c #3B1516",
"-  c #361916",
";  c #3D1B15",
":  c #341C1B",
">  c #3C1D1A",
",  c #1E211F",
"<  c #28241E",
"1  c #34211B",
"2  c #3C231B",
"3  c #36291E",
"4  c #27331F",
"5  c #1A1920",
"6  c #241A23",
"7  c #291D27",
"8  c #371E22",
"9  c #192826",
"0  c #16322E",
"q  c #15342C",
"w  c #1B342B",
"e  c #1B3A2D",
"r  c #272523",
"t  c #222B24",
"y  c #2D2B22",
"u  c #2C222D",
"i  c #372727",
"p  c #3B2325",
"a  c #34222A",
"s  c #3D262B",
"d  c #332E2E",
"f  c #253828",
"g  c #322632",
"h  c #352A34",
"j  c #3C2C34",
"k  c #382D3B",
"l  c #273537",
"z  c #35313E",
"x  c #3C323E",
"c  c #441D15",
"v  c #4A1E15",
"b  c #45171B",
"n  c #431C1A",
"m  c #4B1B1A",
"M  c #561C17",
"N  c #531D1B",
"B  c #5C1E1B",
"V  c #621D19",
"C  c #452117",
"Z  c #4D2216",
"A  c #44221B",
"S  c #4B241B",
"D  c #48291D",
"F  c #512416",
"G  c #532419",
"H  c #5B231E",
"J  c #532C1B",
"K  c #582E18",
"L  c #44331E",
"P  c #5A311C",
"I  c #56381D",
"U  c #65231C",
"Y  c #69291E",
"T  c #73271C",
"R  c #441E24",
"E  c #442422",
"W  c #4C2422",
"Q  c #4D2B24",
"!  c #482529",
"~  c #432A2C",
"^  c #4C2D2B",
"/  c #552824",
"(  c #4B3828",
")  c #573626",
"_  c #472C33",
"`  c #592E35",
"'  c #4B3233",
"]  c #463339",
"[  c #563A38",
"{  c #662922",
"}  c #682A22",
"|  c #7A3622",
" . c #7E3426",
".. c #6D3332",
"X. c #623E3D",
"o. c #26452A",
"O. c #3B442C",
"+. c #244831",
"@. c #326437",
"#. c #69441E",
"$. c #7C521F",
"%. c #45452B",
"&. c #4B4B31",
"*. c #5B473C",
"=. c #674828",
"-. c #734B27",
";. c #6D532B",
":. c #785329",
">. c #674639",
",. c #695234",
"<. c #775833",
"1. c #7F613F",
"2. c #3C3443",
"3. c #3B3648",
"4. c #3D354B",
"5. c #433642",
"6. c #433A45",
"7. c #4B3C46",
"8. c #433B4A",
"9. c #573C46",
"0. c #493F50",
"q. c #623E42",
"w. c #4A424D",
"e. c #5A4547",
"r. c #52444D",
"t. c #4A4556",
"y. c #4C4454",
"u. c #594B55",
"i. c #534C5A",
"p. c #5B505B",
"a. c #5D515C",
"s. c #634749",
"d. c #635B55",
"f. c #65565C",
"g. c #705750",
"h. c #716241",
"j. c #5B5461",
"k. c #595565",
"l. c #595769",
"z. c #5C5A6C",
"x. c #645B65",
"c. c #685B64",
"v. c #635C6C",
"b. c #69636E",
"n. c #6B626E",
"m. c #72656A",
"M. c #676277",
"N. c #6D6573",
"B. c #736A75",
"V. c #776B74",
"C. c #756D78",
"Z. c #786E7A",
"A. c #797077",
"S. c #7C727A",
"D. c #8B371E",
"F. c #803526",
"G. c #8A3721",
"H. c #833A24",
"J. c #865B22",
"K. c #936A31",
"L. c #A27936",
"P. c #816340",
"I. c #937546",
"U. c #82757C",
"Y. c #837B7D",
"T. c #8C7B7D",
"R. c #A48447",
"E. c #6A7D94",
"W. c #877E84",
"Q. c #8B7D83",
"!. c #758DA4",
"~. c #7A95A5",
"^. c #7F9CA7",
"/. c #7F9CA8",
"(. c #8D8284",
"). c #948787",
"_. c #948B86",
"`. c #94858B",
"'. c #9B8C8B",
"]. c #9C928D",
"[. c #988A91",
"{. c #829D9F",
"}. c #9C9695",
"|. c #A3968E",
" X c #A69A96",
".X c #AB9B93",
"XX c #B19C96",
"oX c #ABA399",
"OX c #B4A797",
"+X c #B3A599",
"@X c #BCAD9B",
"#X c #BEB09D",
"$X c #849EA0",
"%X c #9896A2",
"&X c #9D9AA6",
"*X c #A19EA9",
"=X c #84A2A8",
"-X c #8AAAAB",
";X c #A8A3AD",
":X c #B8ADA2",
">X c #BCB4A7",
",X c #B0ABB2",
"<X c #BBB5B8",
"1X c #C1B19D",
"2X c #C7BAA4",
"3X c #C8BBA6",
"4X c #C4BEBC",
"5X c #CBC1AB",
"6X c #C9C1BB",
"7X c #D5CEB5",
"8X c #DAD3B8",
"9X c #CEC6C0",
"0X c #D4CCC3",
"qX c #DBD2C5",
"wX c #E2E3C4",
"eX c #E3E4C4",
"rX c #E4E5C5",
"tX c #F1F1DE",
"yX c #F3F3E2",
/* pixels */
"eXrXrXeXwXwXrXrXrXeXwXwXrXrXrXeXwXeXrXrXeXwXwXeXrXrXeXwXwXrXrXrXeXwXeXrXrXrXwXwXeXrXrXeXwXwXeXrXrXeXwXeXrXrXrXwXwXeXrXrXrXwXwXeX",
"tXtXtXtXyXyXtXtXtXyXyXyXtXtXtXyXyXtXtXtXtXyXyXtXtXtXtXyXyXtXtXtXyXyXyXtXtXtXyXyXtXtXtXtXyXyXtXtXtXtXyXyXtXtXtXyXyXyXtXtXtXyXyXtX",
"<XqXqX4X&X&X6XqXqX<X%X;X0XqX0X;X%X,XqXqX6X&X&X<XqXqX<X%X*X9XqX0X,X%X,X0XqX9X*X%X<XqXqX<X&X&X6XqXqX,X%X;X0XqX0X;X%X<XqXqX6X&X&X4X",
"v.|.OXN.N.N.N.OX|.v.B.v.S.1XQ.v.B.z.'.@XB.N.N.b.OX.Xv.N.v.S.@X).v.B.v.).@XS.v.N.v..XOXb.N.N.B.@X'.z.B.v.Q.1XS.v.B.v.|.OXN.N.N.N.",
"Z.(..XN.+X+Xb.oX_.S.@X].N.#XV.).1XS.Y.@XN..XOXB..X'.C.@X|.N.@XU.(.@X(.U.@XN.|.@XC.'..XB.OX.XN.@XY.S.1X).V.#XN.].@XS._.oXb.+X+XN.",
"(.Y.'.Y.3X2XS.|.(.].2X#XA.XXA.@X3X|.U..XY.2X2X).'.(.).5X2XA..XU.+X2X+XU..XA.2X5X).(.'.).2X2XY..XU.|.3X@XA.XXA.#X2X].(.|.S.2X3XY.",
"(.Z.U.(.8X7XY.Q.U.oX7X5XC.`.B.5X8X+XZ.`.W.7X7X].Q.S.].8X7XS.`.Z.>X7X>XZ.`.S.7X8X].S.Q.].7X7XW.`.Z.+X8X5XB.`.C.5X7XoXU.Q.Y.7X8X(.",
"B.l.l.v.Y.Y.v.z.l.N.Y.S.l.z.l.S.Y.B.l.z.v.U.Y.N.z.l.N.Y.U.z.z.l.V.Y.V.l.z.z.U.Y.N.l.z.N.Y.U.z.z.l.B.Y.S.l.z.l.S.Y.N.l.z.v.Y.Y.v.",
"E.E.E.E.E.E.E.E.E.E.E.E.E.E.E.E.E.E.E.E.E.E.E.E.E.E.E.E.E.E.E.E.E.E.E.E.E.E.E.E.E.E.E.E.E.E.E.E.E.E.E.E.E.E.E.E.E.E.E.E.E.E.E.E.",
"!.!.^./././.^.^.^.^././././.^./././.^.^.^././.^.^.^.^././.^.^.^.^./.^.^.^.^././.^.^.^.^././.^.^.^./././.^././././.^.^.^.^./././.",
"~.=X-X-X-X-X-X-X-X-X-X-X-X-X-X-X-X-X-X-X-X-X-X-X-X-X-X-X-X-X-X-X-X-X-X-X-X-X-X-X-X-X-X-X-X-X-X-X-X-X-X-X-X-X-X-X-X-X-X-X-X-X-X-X",
"-X-X-X-X-X-X-X-X-X-X-X-X-X-X-X-X-X-X-X-X-X-X-X-X-X-X-X-X-X-X-X-X-X-X-X-X-X-X-X-X-X-X-X-X-X-X-X-X-X-X-X-X-X-X-X-X-X-X-X-X-X-X-X-X",
"-X-X-X-X-X-X-X-X-X-X-X-X-X-X-X-X-X-X-X-X-X-X-X-X-X-X-X-X-X-X-X-X-X-X-X-X-X-X-X-X-X-X-X-X-X-X-X-X-X-X-X-X-X-X-X-X-X-X-X-X-X-X-X-X",
"-X-X-X-X-X-X-X-X-X-X-X-X-X-X-X-X-X-X-X-X-X-X-X-X-X-X-X-X-X-X-X-X-X-X-X-X-X-X-X-X-X-X-X-X-X-X-X-X-X-X-X-X-X-X-X-X-X-X-X-X-X-X-X-X",
"-X-X-X-X-X-X-X-X-X-X-X-X-X-X-X-X-X-X-X-X-X-X-X-X-X-X-X-X-X-X-X-X-X-X-X-X-X-X-X-X-X-X-X-X-X-X-X-X-X-X-X-X-X-X-X-X-X-X-X-X-X-X-X-X",
"-X-X-X-X-X-X-X-X-X-X-X-X-X-X-X-X-X-X-X-X-X-X-X-X-X-X-X-X-X-X-X-X-X-X-X-X-X-X-X-X-X-X-X-X-X-X-X-X-X-X-X-X-X-X-X-X-X-X-X-X-X-X-X-X",
"-X-X-X-X-X-X-X-X-X-X-X-X-X-X-X-X-X-X-X-X-X-X-X-X-X-X-X-X-X-X-X-X-X-X-X-X-X-X-X-X-X-X-X-X-X-X-X-X-X-X-X-X-X-X-X-X-X-X-X-X-X-X-X-X",
"$X{.{.{.{.{.{.{.{.{.{.{.{.{.{.{.{.{.{.{.{.$X{.{.{.{.{.{.{.{.{.{.{.{.{.{.{.{.{.{.{.{.{.$X{.{.{.{.{.{.{.{.{.{.{.{.{.{.{.{.{.{.{.$X",
"[ [ X.X.X.X.X.X.X.X.X.X.X.X.X.X.X.X.X.X.X.[ [ X.X.X.X.X.X.X.X.X.X.X.X.X.X.X.X.X.X.X.[ [ X.X.X.X.X.X.X.X.X.X.X.X.X.X.X.X.X.X.X.[ ",
"b } F. . . . . . . . . . . . . . . . . .| m }  . . . . . . . . . . . . . . . . . . .G /  . . . . . . . . . . . . . . . . . .F./ ",
"b } F. . . . . . . . . . . . . . . . . .| m }  . . . . . . . . . . . . . . . . . . .N H  . . . . . . . . . . . . . . . . . .F.H ",
"b } F. .F.F.F.F.F.F.F.F.F.F.F.F.F.F.F.F.| m } F. .F.F.F.F.F.F.F.F.F.F.F.F.F.F.F. . .N H  . .F.F.F.F.F.F.F.F.F.F.F.F.F.F.F. .F.H ",
"b } F. . . . . . . . . . . . . . . . . .| m } F. . . . . . . . . . . . . . . . . . .G H F. . . . . . . . . . . . . . . . . .F.H ",
"b } H.H.H.H.H.H.H.H.H.H.H.H.H.H.H.H.H.H. .m } H.H.H.H.H.H.H.H.H.H.H.H.H.H.H.H.H.H.H.G U H.H.H.H.H.H.H.H.H.H.H.H.H.H.H.H.H.H.H.H ",
"= n G G G G G G G G G G G G G G G G G G F = n F F G G G G G G G G G G G G G G F F F > b G G G G G G G G G F G G G G G G G F G > ",
". * > r J I Q R m 8 r r < I 8 s 8 m ! p c X * c # $ * $ $ $ $ $ $ $ $ $ $ $ $ % $ c # % n : ] g._ a g.e.8 a [ g.7.7.9.9._ $ c # ",
". * : +.=.K.s.` B k w o.w ;.2.z.x M 9.j c X * > 9 ( #.( ~ m @ . . . . . . @ m ] 7 c # $ > 5 u.Z.i.4.v.v.i.v.x.x.v.}.:X:XB.g c # ",
". * : f ;.R.s.` U k f o.f h.r.Q.r.B s.] ; X * > f ;.L.g.9.V $ . . . . . . $ V s.g c # $ c o m.>XV.8.k 8.S.>Xb.7 i.`.>X XN.h c # ",
". * ; & J ) A m B > 2 1 2 Q ] c.] b A - c X * > t =.I.*.` U = * * * * * * = B X.s c # % c * r._.p.s ; s f.].r.* _ c.T.A.r.: v # ",
". * v Z F Z Z Z Z F F F F Z Z ; c Z Z v c X * v c S J Z v N F F F F F F F F Z c c c # % v Z S ^ S F F F W ^ S F Z A ^ ! A Z v # ",
". * v G n v G N A 3 S p n > 1 A J K A : c X * c * * * * * * * * E n > 1 2 J K A : c # % c ~ ' [ ' ~ * * * * E ' ' ! * * * ; v # ",
". * m U g ! T T d f =.6.W r 0 6.<.:.O.t c X * ; . . . . . . X X 8.! r 9 6.;.J.%.9 c # $ E 6.j.b.j.6.+ + 7 2.4.2.2.4.3.7 5 o c # ",
". * m Y k ` D.G.( O.<.u./ y e r.I.K.%.t c X * ; . . . . . . X X f.^ i q y.1.L.&.t c # $ A w.B.U.B.w.5 7 2.S.W.v.z.Y.U.6.u + c # ",
". * c m p ! G.F.2 3 ) s b r w a =.=.3 & c X * c # $ $ $ $ $ $ $ ~ n r w a ) ;.i & c # $ A 6.b.S.b.8.% : j i.`. XoX'.j.j p $ c # ",
". * c v Z Z G G v Z Z v Z A 2 v Z Z v c c X * v v Z Z Z Z Z Z Z v Z A 2 c v Z Z c c # % c E [ e.[ Q Z Z v E _ s.s.' E v v c v # ",
". * v c Z Z Z A A A A A A S Z F S A C v c X * v c c v v c c c c c c c Z Z S A C Z c # % v c ; c n A S S S S A c ; c A Q Q S v # ",
". * > k R Y P ' z q e 9 u 7.=.#.L e E N c X * n g E Y = X . . . . . o I #.I q E m c # $ ; + 6 6 u g g g g g u 6 6 6 5.3.3.6.S # ",
". * > t.W G.-.*.w.+.@.l k a.:.:.%.o./ U c X * n 6.^ G.b . . . . . . o -.-.=.f ) N c # % n 7 x j.j.i.t.t.t.i.j.j.x u p.x.x.a.W # ",
". * > w.E } ) [ x +.@.l g e.:.-.L 4 A m c X * n 3._ Y = @ @ @ @ @ @ # -.-.I 4 A m c # % ; 8 ] c.].}.}.}.}. X].x.] 7 p.+X+Xf.S # ",
". * c p A v Z Z c y y 2 c C P K Z c c c c X * c p A v c c c c c c c v P K Z c v c c # % c c Z ~ 7.f.m.m.m.f.5.~ v c Q e.e.~ v # ",
". * Z Z Z Z Z Z Z Z Z Z Z Z Z Z Z Z Z Z c X * v Z Z Z Z Z Z Z Z Z Z Z Z Z Z Z Z Z c # % v Z S S S S S S G S S Z Z Z S S S Z v # ",
". * > t I #.^ R N a t 9 9 ) a k a m _ a c X * > 9 O o o o o o o + t I p k a b _ a c # $ ; a 5.5.5.a h 7.a.u.5.7 a 0.a.u.5.7 c # ",
". * : +.;.L.g.` V 2.f o.e <.6.M.5.B 9.j ; X * > e 9 . . . .   . O +.,.6.M.0.M s.j c # $ = x i.w.j.z 2.k.B.N.t.u z x.B.N.y.u c # ",
". * - f =.I.e.` U g t f t ,.y.[.r.N 9.~ c X * > 9 O X X X X X X O f *.r.`.a.m q.s c # $ ; h `.>X`.h 2.b.U.U.i.u 2.N.U.U.i.u c # ",
". * c - A J > m N > > - > S ~ r.~ c > ; c X * c - ; ; ; ; ; ; ; ; > A s r.] c n * c # % c > u.c.e.A ~ u.m.c.7.> ~ u.m.c.5.: v # ",
". * Z Z F F Z F F F F F F F Z C Z F F Z c X * Z Z F F F F F F F F F F Z C Z F F Z c # $ v Z S S S F Z S Q S S F Z S / S S Z Z # ",
". * n ~ m > p 8 J D < y a n m E P P 3 : c X * c s W > p p D D < $ $ $ $ $ $ $ $ * c # % c ~ _ ~ ' ] _ ' ~ s : ~ ' ' p * * * v # ",
". * > y./ E i.4.=.%.q e l ! { 9.K.J.O.9 c X * n 3.{ > t.i.[ %.e   .   . . . .   X c # $ n y.C.i.4.8.k.b.8.2.i.4.3.3.t.6.6 % c # ",
". * > a.{ ^ S.v.h.&.e o.l / } r.I.K.O.t c X * n r...E B.S.e.&.e . . . . . . . . o c # $ ; h y.N.oX].j.2.8.y.'.'.B.Y. Xb.2.u c # ",
". * c 8 b p x.u.^ 2 & & & m B 8 ) ) 1 - c X * c : n > a.c.~ 2 & * * * * * * * * * c # % c * : u.T.T.] * > s i.Y. X'.b.] > * c # ",
". * v Z F Z > > Z F F F F F Z F Z Z Z v c X * v Z F Z > > Z F F F F F F F F F F v c # % v Z F S E E Z F F Z A ^ ' ' E S F Z v # ",
". * v F A S G G A 2 Z E S 2 2 A J K A 2 c X * v F A v G G c ; ; ; ; > 1 A J K A 2 c # $ S n ^ >.Q E >.[ > > ^ >.Q ; > Q ^ > v # ",
". * m U a ! T T d f =.3.W r 0 6.:.$.d 9 c X * v B s R T T = . . . . 5 9 6.;.J.O.9 c # $ c 6 7.Z.8.k N.x.2.y.i.B.2.k w.Q.(.] c # ",
". * m Y k ` D.G.( O.<.a./ y e r.I.K.%.t c X * v U ] _ G.G.b . . . . 9 q y.P.L.&.t c # $ > + m.}.B.y.8.i.A.}.m.g 6 u 8.oX:Xx c # ",
". * c m p ! G.F.2 3 ) s b r w a >.=.y & c X * c m p ! G.G.b $ $ $ # , w g ) ;.i & c # % c $ f.:Xx.j : j m.>Xa.$ $ $ j c.c.s c # ",
". * c c v v N N v v Z c v A 1 c v v c c c X * c c v v G G Z Z Z Z Z C 1 c v v c c c # % c c ~ e.' S Z S ' e.~ Z Z Z Z S S c v # ",
". * Z C Z Z Z S S C C A C S F F S A Z Z c X * v C C c c c c A A A A S Z F Z A S Z c # % v c S W S S C S C S / Q S A S / / S v # ",
". * > k R Y P ' z q e 9 u 7.=.#.L w E N c X * n g 6 X X X X q e 9 g 5.=.#.I w E m c # $ ; 7 y.m.m.a.h 6.f.8.2.5.y.f.0.2.3.5.S # ",
". * > y.W G.-.*.w.+.@.l k a.:.:.( o./ U c X * n 6.u . . .   +.@.w 2.r.:.-.=.f ) B c # $ ; x Q.3X5X|.j.y.N.v.j.k.v.N.v.j.j.p.W # ",
". * > w.! | ) [ 6.+.@.l h e.:.:.L f S N c X * n 3.u X X X o +.@.l x 9.<.-.I t S m c # $ ; h v.'. XC.6.& g S.>XXXr.7 f.:X:Xc.S # ",
". * c s n v Z c > y f 1 c c P P Z > c c c X * c p A c c c c y f 1 c c P P S > c ; c # % c > ] f.f.r.E c c [ e.e.Q c ^ e.e.^ v # ",
"X * Z Z F F F F F Z Z F F F F F F F F Z c X * Z Z F F F F F Z Z Z F F G F F F F Z v # % Z F S S S S G G F F S S F F F S S Z S % ",
"o % * * * * * - * * * * * * * * * * * * * o % * * * * * - - * * * * * * - - * * * * # # * * * * * * * - * * * * * * * * - - - # ",
"d.d.d.d.d.d.d.d.d.d.d.d.d.d.d.d.d.d.d.d.d.d.d.d.d.d.d.d.d.d.d.d.d.d.d.d.d.d.d.d.d.d.d.d.d.d.d.d.d.d.d.d.d.d.d.d.d.d.d.d.d.d.d.d."
};
