/* XPM */
static char *_a7591213b76435281711223d94d0c48ptPlfaGpcdqSv8dm[] = {
/* columns rows colors chars-per-pixel */
"64 64 183 2 ",
"   c #5A5569",
".  c #5D586B",
"X  c #5D5F73",
"o  c #625867",
"O  c #645E6E",
"+  c #76596C",
"@  c #7A5C6E",
"#  c #67606F",
"$  c #6E656E",
"%  c #626174",
"&  c #6C6572",
"*  c #6F6A72",
"=  c #64667A",
"-  c #656A7E",
";  c #6E6E7A",
":  c #736C73",
">  c #786F76",
",  c #726B7D",
"<  c #796F79",
"1  c #6F717D",
"2  c #797177",
"3  c #72737F",
"4  c #7C7379",
"5  c #7E7A7C",
"6  c #81767C",
"7  c #837A7E",
"8  c #887E7E",
"9  c #96787B",
"0  c #A47F7F",
"q  c #676C80",
"w  c #696D81",
"e  c #6D7287",
"r  c #6F758A",
"t  c #757783",
"y  c #7A7787",
"u  c #70768C",
"i  c #7B7788",
"p  c #71798E",
"a  c #7D7989",
"s  c #757E94",
"d  c #867983",
"f  c #8B7C82",
"g  c #827E8D",
"h  c #9C7F84",
"j  c #927B8A",
"k  c #B16E82",
"l  c #AE7382",
"z  c #B37282",
"x  c #B27C84",
"c  c #7A8297",
"v  c #7C8499",
"b  c #7E899E",
"n  c #7E8AA1",
"m  c #8D8383",
"M  c #85808F",
"N  c #928585",
"B  c #9B8085",
"V  c #948986",
"C  c #998E87",
"Z  c #968588",
"A  c #9B8689",
"S  c #948B89",
"D  c #9C8C8A",
"F  c #9C948E",
"G  c #898492",
"H  c #8D8894",
"J  c #80889E",
"K  c #928C97",
"L  c #988E95",
"P  c #9F9590",
"I  c #9F9991",
"U  c #93919A",
"Y  c #9C959C",
"T  c #AC8483",
"R  c #A18588",
"E  c #B88686",
"W  c #B38A87",
"Q  c #B88987",
"!  c #B58B89",
"~  c #BC8E89",
"^  c #A3958D",
"/  c #A7998F",
"(  c #BF908C",
")  c #A58F90",
"_  c #BD8C99",
"`  c #A39791",
"'  c #A59596",
"]  c #A49992",
"[  c #AB9C92",
"{  c #A29B9D",
"}  c #A89E9B",
"|  c #B4999B",
" . c #ACA194",
".. c #A7A29A",
"X. c #ADA499",
"o. c #B2A395",
"O. c #B8AA96",
"+. c #BAA79B",
"@. c #B3AB9C",
"#. c #BDAC9C",
"$. c #BFB09A",
"%. c #828EA5",
"&. c #8590A6",
"*. c #8694AA",
"=. c #8995AB",
"-. c #8A98AF",
";. c #8E9CB3",
":. c #919EB4",
">. c #A49BA2",
",. c #8FA0B7",
"<. c #94A5BC",
"1. c #A6A0A1",
"2. c #AAA6A3",
"3. c #ACAAA3",
"4. c #BCA0A3",
"5. c #B4AAA7",
"6. c #BBA8A0",
"7. c #B6ADA9",
"8. c #BBB3A6",
"9. c #B4B2A8",
"0. c #B2ADB4",
"q. c #C0928C",
"w. c #C08A9A",
"e. c #C1929B",
"r. c #C3B49F",
"t. c #C5B5A2",
"y. c #C5BBA6",
"u. c #CABEA7",
"i. c #C1B6AD",
"p. c #C6BBAB",
"a. c #C8BAA8",
"s. c #C7BCB0",
"d. c #CCC5AE",
"f. c #C7C5B0",
"g. c #CEC2B2",
"h. c #C3C1BA",
"j. c #D0C4B4",
"k. c #D3CCB3",
"l. c #CED0BF",
"z. c #D7D0B5",
"x. c #DAD2B6",
"c. c #DAD5B9",
"v. c #95A9C1",
"b. c #9CACC3",
"n. c #9AAFC8",
"m. c #9BB0C9",
"M. c #A1B5CD",
"N. c #A1B7D0",
"B. c #A5BBD4",
"V. c #AABED5",
"C. c #ACC0D7",
"Z. c #ADC1D9",
"A. c #B2C7DF",
"S. c #B4C9E2",
"D. c #B3CEE8",
"F. c #B6D1EB",
"G. c #BAD4ED",
"H. c #BDD7F0",
"J. c #BED9F2",
"K. c #CED0C0",
"L. c #D1D4C3",
"P. c #DCDDC1",
"I. c #D6DBCB",
"U. c #DAD6D4",
"Y. c #E2E3C3",
"T. c #E3E4C3",
"R. c #E4E4C7",
"E. c #E4E5C7",
"W. c #EAEBCA",
"Q. c #E6E6D4",
"!. c #EAEBD2",
"~. c #E6E6DB",
"^. c #E3E0DC",
"/. c #E7E7DC",
"(. c #E8E7DC",
"). c #EAEADD",
"_. c #ECEADE",
"`. c #EFEEDF",
"'. c #C1DBF5",
"]. c #C4DFF8",
"[. c #C6E1FA",
"{. c #C9E3FC",
"}. c #EDE9E1",
/* pixels */
"                                                                                                                            . y ",
"9.9.9.9.9.9.9.9.9.9.9.9.9.9.9.9.9.9.9.9.9.9.9.9.9.9.9.9.9.9.9.9.9.9.9.9.9.9.9.9.9.9.9.9.9.9.9.9.9.9.9.9.9.9.9.9.9.9.9.9.9.9.9.h.",
"W.W.W.W.W.W.W.W.W.W.W.W.W.W.W.W.W.W.W.W.W.W.W.W.W.W.W.W.W.W.W.W.W.W.W.W.W.W.W.W.W.W.W.W.W.W.W.W.W.W.W.W.W.W.W.W.W.W.W.W.W.W.W.!.",
"E.E.E.E.E.E.E.E.E.E.E.E.E.E.E.E.E.E.E.E.E.E.E.E.E.E.E.E.E.E.E.E.E.E.E.E.E.E.E.E.E.E.E.E.E.E.E.E.E.E.E.E.E.E.E.E.E.E.E.E.E.E.E.!.",
"E.T.T.Y.Y.Y.T.T.T.Y.Y.Y.T.T.Y.Y.Y.T.T.Y.Y.Y.Y.T.T.Y.Y.Y.T.T.Y.Y.Y.T.T.Y.Y.Y.Y.T.Y.Y.Y.Y.T.T.Y.Y.Y.Y.T.Y.Y.Y.Y.T.T.Y.Y.Y.T.T.E.!.",
").`.`.).~.).`.`.`././.`.`.`.).~.).`.`.`.~.(.`.`.`./.~.`.`.`.).~.).`.`.`.~.~.`.`.`.).~.).`.`._.~.(.`.`.`./.~._.`.`.).~.).`.`.`.Q.",
"Y s.s.Y y G 8.g.3.g i 1.g.i.H y K p.g.{ a g 5.j.7.g a Y g.p.K i G i.g.1.a a 1.j.8.G i K s.g.Y a M 7.j.5.g a { g.p.K y H i.g.1.U ",
". ^ ^ O m & 6 O.& 4 7 # o.m & N # N o.# m < : O.2 2 f O ^ C # m & 6 o.# 7 7 # o.6 : m # C ^ O m < 2 O.: 2 f #  .m # m & N  .& M ",
": D D 7 t.^ 4 o.> o.r.> [ m C t.N 8 [ 6 #.o.> o.6 [ r.7 V V N r.^ 2 [ 4 O.O.2 / 4 ^ r.N N V 7 r.[ 4 [ > o.#.6 [ 7 V r.D m ^ < Y ",
"6 Z Z I c.y.6 ' 7 d.c.m D f 8.c.@.6 ) F k.k.7 ) m d.x.I f N @.z.y.4 A V k.k.N A 6 p.z.@.f f ] z.d.f D 7 k.k.F ) 6 @.x.8.m A 6 >.",
": & & 7 @.P O , &  .@.: & & S @.N O , 4 @. .& : & ] @.7 O & V @.F O & > X.X.> & O P @.N % O d @.] & & &  .X.4 & O V @.S & & : L ",
"+ + + + @ + + + + @ @ + + + + @ + + + + @ @ + + + @ @ + + + + @ @ + + + @ @ + + + @ @ + + + + @ @ + + + @ @ + + + + @ + + + @ j ",
"k k z z z z z z z z z z z z z z z z z z z z z z z z z z z z z z z z z z z z z z z z z z z z z z z z z z z z z z z z z z z k k w.",
"l x E Q Q Q Q Q Q Q Q Q Q Q Q Q Q Q Q Q Q Q Q Q Q Q Q Q Q Q Q Q Q Q Q Q Q Q Q Q Q Q Q Q Q Q Q Q Q Q Q Q Q Q Q Q Q Q Q Q Q x l _ ",
"E ~ ~ ~ ~ ~ ~ ~ ~ ~ ~ ~ ~ ~ ~ ~ ~ ~ ~ ~ ~ ~ ~ ~ ~ ~ ~ ~ ~ ~ ~ ~ ~ ~ ~ ~ ~ ~ ~ ~ ~ ~ ~ ~ ~ ~ ~ ~ ~ ~ ~ ~ ~ ~ ~ ~ ~ ~ ~ ~ ~ ~ Q _ ",
"Q ~ ~ ~ ~ ~ ~ ~ ~ ~ ~ ~ ~ ~ ~ ~ ~ ~ ~ ~ ~ ~ ~ ~ ~ ~ ~ ~ ~ ~ ~ ~ ~ ~ ~ ~ ~ ~ ~ ~ ~ ~ ~ ~ ~ ~ ~ ~ ~ ~ ~ ~ ~ ~ ~ ~ ~ ~ ~ ~ ~ ~ ~ e.",
"Q ~ ~ ~ ~ ~ ~ ~ ~ ~ ~ ~ ~ ~ ~ ~ ~ ~ ~ ~ ~ ~ ~ ~ ~ ~ ~ ~ ~ ~ ~ ~ ~ ~ ~ ~ ~ ~ ~ ~ ~ ~ ~ ~ ~ ~ ~ ~ ~ ~ ~ ~ ~ ~ ~ ~ ~ ~ ~ ~ ~ ~ ~ e.",
"Q ~ ~ ~ ~ ~ ~ ~ ~ ~ ~ ~ ~ ~ ~ ~ ~ ~ ~ ~ ~ W W W W W W W W W W W W W W W W W W W W W W W ~ ~ ~ ~ ~ ~ ~ ~ ~ ~ ~ ~ ~ ~ ~ ~ ~ ~ ~ e.",
"Q ~ ~ ~ ~ ~ ~ ~ ~ ~ ~ ~ ~ ~ ~ ~ ~ ~ ! R f , , , , , , , , , , , , , , , , , , , , , , , f R ~ ~ ~ ~ ~ ~ ~ ~ ~ ~ ~ ~ ~ ~ ~ ~ ~ e.",
"Q ~ ~ ~ ~ ~ ~ ~ ~ ~ ~ ~ ~ ~ ~ ~ ~ ~ ! L 3.3.3.3.3.3.3.3.3.3.3.3.3.3.3.3.3.3.3.3.3.3.3.3.3.L ~ ~ ~ ~ ~ ~ ~ ~ ~ ~ ~ ~ ~ ~ ~ ~ ~ e.",
"Q ~ ~ ~ ~ ~ ~ ~ ~ ~ ~ ~ ~ ~ ~ ~ ~ ~ W ' E.E.E.E.E.E.E.E.E.E.E.E.E.E.E.E.E.E.E.E.E.E.E.E.E.' ~ ~ ~ ~ ~ ~ ~ ~ ~ ~ ~ ~ ~ ~ ~ ~ ~ e.",
"Q ~ ~ ~ ~ ~ ~ ~ ~ ~ ~ ~ ~ ~ ~ ~ ~ ~ T 2 y.u.u.u.u.u.u.u.u.u.u.u.u.u.u.u.u.u.u.u.u.u.u.u.y.2 Q ~ ~ ~ ~ ~ ~ ~ ~ ~ ~ ~ ~ ~ ~ ~ ~ e.",
"Q ~ ~ ~ ~ ~ ~ ~ ~ ~ ~ ~ ~ ~ ~ ~ ~ ~ ~ 9 4 | 6.6.6.6.6.6.6.6.6.6.6.6.6.6.6.6.6.6.6.6.6.| 2 9 ~ ~ ~ ~ ~ ~ ~ ~ ~ ~ ~ ~ ~ ~ ~ ~ ~ e.",
"~ ~ ~ ~ ~ ~ ~ ~ ~ ~ ~ ~ ~ ~ ~ ~ ~ ~ ~ 0 o ..f.I.I.I.l.L.I.I.I.f.c.f.I.I.I.L.K.I.I.I.f...o 0 ~ ~ ~ ~ ~ ~ ~ ~ ~ ~ ~ ~ ~ ~ ~ ~ ~ e.",
"Q ~ ~ ~ ~ ~ ~ ~ ~ ~ ~ ~ ~ ~ ~ ~ ~ ~ ~ ~ h ] * Z.D.J.;.<.D.G.Z.: r.: B.D.H.b.-.D.G.A.: ` h ~ ~ ~ ~ ~ ~ ~ ~ ~ ~ ~ ~ ~ ~ ~ ~ ~ ~ e.",
"Q ~ ~ ~ ~ ~ ~ ~ ~ ~ ~ ~ ~ ~ ~ ~ ~ ~ ~ ~ h ] * M.J.{.;.;.G.{.Z.: r.: n.J.{.b.%.G.[.S.: ` h ~ ~ ~ ~ ~ ~ ~ ~ ~ ~ ~ ~ ~ ~ ~ ~ ~ ~ e.",
"Q ~ ~ ~ ~ ~ ~ ~ ~ ~ ~ ~ ~ ~ ~ ~ ~ ~ ~ ~ h ] * N.[.{.;.;.].{.Z.: r.: m.[.{.b.%.].{.S.: ` h ~ ~ ~ ~ ~ ~ ~ ~ ~ ~ ~ ~ ~ ~ ~ ~ ~ ~ e.",
"Q ~ ~ ~ ~ ~ ~ ~ ~ ~ ~ ~ ~ ~ ~ ~ ~ ~ ~ ~ h ] $ - r u % % r r w : r.: - r u = X r r w $ ` h ~ ~ ~ ~ ~ ~ ~ ~ ~ ~ ~ ~ ~ ~ ~ ~ ~ ~ e.",
"Q ~ ~ ~ ~ ~ ~ ~ ~ ~ ~ ~ ~ ~ ~ ~ ~ ~ ~ ~ h ] * M.B.Z.&.;.B.B.n.: r.: n.B.Z.:.%.B.B.M.* ` h ~ ~ ~ ~ ~ ~ ~ ~ ~ ~ ~ ~ ~ ~ ~ ~ ~ ~ e.",
"Q ~ ~ ~ ~ ~ ~ ~ ~ ~ ~ ~ ~ ~ ~ ~ ~ ~ ~ ~ h ] * M.G.{.;.;.F.[.Z.: r.: n.F.{.b.&.D.].S.: ` h ~ ~ ~ ~ ~ ~ ~ ~ ~ ~ ~ ~ ~ ~ ~ ~ ~ ~ e.",
"Q ~ ~ ~ ~ ~ ~ ~ ~ ~ ~ ~ ~ ~ ~ ~ ~ ~ ~ ~ h ] * N.[.{.:.;.].{.Z.: r.: m.[.{.b.%.].{.S.: ` h ~ ~ ~ ~ ~ ~ ~ ~ ~ ~ ~ ~ ~ ~ ~ ~ ~ ~ e.",
"Q ~ ~ ~ ~ ~ ~ ~ ~ ~ ~ ~ ~ ~ ~ ~ ~ ~ ~ ~ h ] & s =.=.e e *.=.v : r.: s *.=.p q &.=.b * ` h ~ ~ ~ ~ ~ ~ ~ ~ ~ ~ ~ ~ ~ ~ ~ ~ ~ ~ e.",
"Q ~ ~ ~ ~ ~ ~ ~ ~ ~ ~ ~ ~ ~ ~ ~ ~ ~ ~ ~ h ] * :.<.<.c %.<.<.;.: r.: ;.<.<.%.c <.<.:.* ` h ~ ~ ~ ~ ~ ~ ~ ~ ~ ~ ~ ~ ~ ~ ~ ~ ~ ~ e.",
"Q ~ ~ ~ ~ ~ ~ ~ ~ ~ ~ ~ ~ ~ ~ ~ ~ ~ ~ ~ h ] * N.F.[.;.,.D.].Z.: r.: m.D.].b.*.D.'.S.: ` h ~ ~ ~ ~ ~ ~ ~ ~ ~ ~ ~ ~ ~ ~ ~ ~ ~ ~ e.",
"Q ~ ~ ~ ~ ~ ~ ~ ~ ~ ~ ~ ~ ~ ~ ~ ~ ~ ~ ~ h ] * N.].{.;.;.'.{.Z.: r.: m.].{.b.%.J.{.S.: ` h ~ ~ ~ ~ ~ ~ ~ ~ ~ ~ ~ ~ ~ ~ ~ ~ ~ ~ e.",
"Q ~ ~ ~ ~ ~ ~ ~ ~ ~ ~ ~ ~ ~ ~ ~ ~ ~ ~ ~ h ] * ;.V.C.J b B.C.<.: r.: -.V.C.=.s B.C.b.* ` h ~ ~ ~ ~ ~ ~ ~ ~ ~ ~ ~ ~ ~ ~ ~ ~ ~ ~ e.",
"Q ~ ~ ~ ~ ~ ~ ~ ~ ~ ~ ~ ~ ~ ~ ~ ~ ~ ~ ~ h ] & r r p = w p u e : r.: e u p q = p r r & ` h ~ ~ ~ ~ ~ ~ ~ ~ ~ ~ ~ ~ ~ ~ ~ ~ ~ ~ e.",
"Q ~ ~ ~ ~ ~ ~ ~ ~ ~ ~ ~ ~ ~ ~ ~ ~ ~ ~ ~ h ] * B.D.'.;.<.D.H.Z.: r.: M.D.J.b.=.D.G.A.: ` h ~ ~ ~ ~ ~ ~ ~ ~ ~ ~ ~ ~ ~ ~ ~ ~ ~ ~ e.",
"Q ~ ~ ~ ~ ~ ~ ~ ~ ~ ~ ~ ~ ~ ~ ~ ~ ~ ~ ~ h ] * N.].{.;.;.J.{.Z.: r.: n.'.{.b.%.H.{.S.: ` h ~ ~ ~ ~ ~ ~ ~ ~ ~ ~ ~ ~ ~ ~ ~ ~ ~ ~ e.",
"Q ~ ~ ~ ~ ~ ~ ~ ~ ~ ~ ~ ~ ~ ~ ~ ~ ~ ~ ~ h ] * m.H.'.=.-.G.'.B.: r.: v.G.'.<.n G.'.Z.* ` h ~ ~ ~ ~ ~ ~ ~ ~ ~ ~ ~ ~ ~ ~ ~ ~ ~ ~ e.",
"Q ~ ~ ~ ~ ~ ~ ~ ~ ~ ~ ~ ~ ~ ~ ~ ~ ~ ~ ~ A X.5 1 t t ; ; t t 3 7 u.7 ; t t ; ; t t 3 5 X.A ~ ~ ~ ~ ~ ~ ~ ~ ~ ~ ~ ~ ~ ~ ~ ~ ~ ~ e.",
"Q ~ ~ ~ ~ ~ ~ ~ ~ ~ ~ ~ ~ ~ ~ ~ ~ ~ ~ T { Y.P.P.P.P.P.P.P.P.P.P.Y.P.P.P.P.P.P.P.P.P.P.Y.{ T ~ ~ ~ ~ ~ ~ ~ ~ ~ ~ ~ ~ ~ ~ ~ ~ ~ e.",
"Q ~ ~ ~ ~ ~ ~ ~ ~ ~ ~ ~ ~ ~ ~ ~ ~ ~ ! B } k.x.c.c.c.c.c.c.c.c.c.c.c.c.c.c.c.c.c.c.c.x.k.} B ~ ~ ~ ~ ~ ~ ~ ~ ~ ~ ~ ~ ~ ~ ~ ~ ~ e.",
"Q ~ ~ ~ ~ ~ ~ ~ ~ ~ ~ ~ ~ ~ ~ ~ ~ ~ T d | | +.+.+.+.+.+.+.+.+.+.+.+.+.+.+.+.+.+.+.+.+.| | d ~ ~ ~ ~ ~ ~ ~ ~ ~ ~ ~ ~ ~ ~ ~ ~ ~ e.",
"Q ~ ~ ~ ~ ~ ~ ~ ~ ~ ~ ~ ~ ~ ~ ~ ~ ~ ! ' #.#.#.#.#.#.#.#.#.#.#.#.#.#.#.#.#.#.#.#.#.#.#.#.#.' ~ ~ ~ ~ ~ ~ ~ ~ ~ ~ ~ ~ ~ ~ ~ ~ ~ e.",
"Q ~ ~ ~ ~ ~ ~ ~ ~ ~ ~ ~ ~ ~ ~ ~ ~ ~ T $ $ $ $ $ $ $ $ $ $ $ $ $ $ $ $ $ $ $ $ $ $ $ $ $ $ # ~ ~ ~ ~ ~ ~ ~ ~ ~ ~ ~ ~ ~ ~ ~ ~ ~ e.",
"Q ~ ~ ~ ~ ~ ~ ~ ~ ~ ~ ~ ~ ~ ~ ~ ~ ~ ~ T T T T T T T T T T T T T T T T T T T T T T T T T T T ~ ~ ~ ~ ~ ~ ~ ~ ~ ~ ~ ~ ~ ~ ~ ~ ~ e.",
"Q ~ ~ ~ ~ ~ ~ ~ ~ ~ ~ ~ ~ ~ ~ ~ ~ ~ ~ ~ ~ ~ ~ ~ ~ ~ ~ ~ ~ ~ ~ ~ ~ ~ ~ ~ ~ ~ ~ ~ ~ ~ ~ ~ ~ ~ ~ ~ ~ ~ ~ ~ ~ ~ ~ ~ ~ ~ ~ ~ ~ ~ ~ e.",
"Q ~ ~ ~ ~ ~ ~ ~ ~ ~ ~ ~ ~ ~ ~ ~ ~ ~ ~ ~ ~ ~ ~ ~ ~ ~ ~ ~ ~ ~ ~ ~ ~ ~ ~ ~ ~ ~ ~ ~ ~ ~ ~ ~ ~ ~ ~ ~ ~ ~ ~ ~ ~ ~ ~ ~ ~ ~ ~ ~ ~ ~ ~ e.",
"Q ~ ~ ~ ~ ~ ~ ~ ~ ~ ~ ~ ~ ~ ~ ~ ~ ~ ~ ~ ~ ~ ~ ~ ~ ~ ~ ~ ~ ~ ~ ~ ~ ~ ~ ~ ~ ~ ~ ~ ~ ~ ~ ~ ~ ~ ~ ~ ~ ~ ~ ~ ~ ~ ~ ~ ~ ~ ~ ~ ~ ~ ~ e.",
"Q ~ ~ ~ ~ ~ ~ ~ ~ ~ ~ ~ ~ ~ ~ ~ ~ ~ ~ ~ ~ ~ ~ ~ ~ ~ ~ ~ ~ ~ ~ ~ ~ ~ ~ ~ ~ ~ ~ ~ ~ ~ ~ ~ ~ ~ ~ ~ ~ ~ ~ ~ ~ ~ ~ ~ ~ ~ ~ ~ ~ ~ ~ e.",
"Q ~ ~ ~ ~ ~ ~ ~ ~ ~ ~ ~ ~ ~ ~ ~ ~ ~ ~ ~ ~ ~ ~ ~ ~ ~ ~ ~ ~ ~ ~ ~ ~ ~ ~ ~ ~ ~ ~ ~ ~ ~ ~ ~ ~ ~ ~ ~ ~ ~ ~ ~ ~ ~ ~ ~ ~ ~ ~ ~ ~ ~ ~ e.",
"Q ~ ~ ~ ~ ~ ~ ~ ~ ~ ~ ~ ~ ~ ~ ~ ~ ~ ~ ~ ~ ~ ~ ~ ~ ~ ~ ~ ~ ~ ~ ~ ~ ~ ~ ~ ~ ~ ~ ~ ~ ~ ~ ~ ~ ~ ~ ~ ~ ~ ~ ~ ~ ~ ~ ~ ~ ~ ~ ~ ~ ~ ~ e.",
"Q ~ ~ ~ ~ ~ ~ ~ ~ ~ ~ ~ ~ ~ ~ ~ ~ ~ ~ ~ ~ ~ ~ ~ ~ ~ ~ ~ ~ ~ ~ ~ ~ ~ ~ ~ ~ ~ ~ ~ ~ ~ ~ ~ ~ ~ ~ ~ ~ ~ ~ ~ ~ ~ ~ ~ ~ ~ ~ ~ ~ ~ ~ e.",
"Q ~ ~ ~ ~ ~ ~ ~ ~ ~ ~ ~ ~ ~ ~ ~ ~ ~ ~ ~ ~ ~ ~ ~ ~ ~ ~ ~ ~ ~ ~ ~ ~ ~ ~ ~ ~ ~ ~ ~ ~ ~ ~ ~ ~ ~ ~ ~ ~ ~ ~ ~ ~ ~ ~ ~ ~ ~ ~ ~ ~ ~ ~ e.",
"Q ~ ~ ~ ~ ~ ~ ~ ~ ~ ~ ~ ~ ~ ~ ~ ~ ~ ~ ~ ~ ~ ~ ~ ~ ~ ~ ~ ~ ~ ~ ~ ~ ~ ~ ~ ~ ~ ~ ~ ~ ~ ~ ~ ~ ~ ~ ~ ~ ~ ~ ~ ~ ~ ~ ~ ~ ~ ~ ~ ~ ~ ~ e.",
"Q ~ ~ ~ ~ ~ ~ ~ ~ ~ ~ ~ ~ ~ ~ ~ ~ ~ ~ ~ ~ ~ ~ ~ ~ ~ ~ ~ ~ ~ ~ ~ ~ ~ ~ ~ ~ ~ ~ ~ ~ ~ ~ ~ ~ ~ ~ ~ ~ ~ ~ ~ ~ ~ ~ ~ ~ ~ ~ ~ ~ ~ ~ e.",
"Q ~ ~ ~ ~ ~ ~ ~ ~ ~ ~ ~ ~ ~ ~ ~ ~ ~ ~ ~ ~ ~ ~ ~ ~ ~ ~ ~ ~ ~ ~ ~ ~ ~ ~ ~ ~ ~ ~ ~ ~ ~ ~ ~ ~ ~ ~ ~ ~ ~ ~ ~ ~ ~ ~ ~ ~ ~ ~ ~ ~ ~ ~ e.",
"( q.q.q.q.q.q.q.q.q.q.q.q.q.q.q.q.q.q.q.q.q.q.q.q.q.q.q.q.q.q.q.q.q.q.q.q.q.q.q.q.q.q.q.q.q.q.q.q.q.q.q.q.q.q.q.q.q.q.q.q.q.q.e.",
"| | | | | | | | | | | | | | | | | | | | | | | | | | | | | | | | | | | | | | | | | | | | | | | | | | | | | | | | | | | | | | | 4.",
"1.2.2.2.2.2.2.2.2.2.2.2.2.2.2.2.2.2.2.2.2.2.2.2.2.2.2.2.2.2.2.2.2.2.2.2.2.2.2.2.2.2.2.2.2.2.2.2.2.2.2.2.2.2.2.2.2.2.2.2.2.2.2.>.",
"U.}.}.}.}.}.}.}.}.}.}.}.}.}.}.}.}.}.}.}.}.}.}.}.}.}.}.}.}.}.}.}.}.}.}.}.}.}.}.}.}.}.}.}.}.}.}.}.}.}.}.}.}.}.}.}.}.}.}.}.}._.^.0.",
"t.a.a.a.a.a.a.a.a.a.a.a.a.a.a.a.a.a.a.a.a.a.a.a.a.a.a.a.a.a.a.a.a.a.a.a.a.a.a.a.a.a.a.a.a.a.a.a.a.a.a.a.a.a.a.a.a.a.a.a.a.a.a.>.",
"O.$.#.$.$.$.$.$.$.$.$.$.$.$.$.$.$.$.$.$.$.$.$.$.$.$.$.$.$.$.$.$.$.$.$.$.$.$.$.$.$.$.$.$.$.$.$.$.$.$.$.$.$.$.$.$.$.$.$.$.$.#.#.{ "
};
