/* XPM */
static char *_712df9e1f584313e4833597084d2d13dFp6ZVcX0o6ai9Wz[] = {
/* columns rows colors chars-per-pixel */
"64 64 183 2 ",
"   c #322B26",
".  c #392E25",
"X  c #382E2A",
"o  c #3D332D",
"O  c #3F3A2D",
"+  c #3C3430",
"@  c #4E3E1F",
"#  c #453B25",
"$  c #4B3E25",
"%  c #40342D",
"&  c #443B2C",
"*  c #4A3E2A",
"=  c #423631",
"-  c #453B34",
";  c #493D36",
":  c #433E3B",
">  c #4B3E38",
",  c #56421F",
"<  c #5C451F",
"1  c #4D4125",
"2  c #4D422C",
"3  c #514225",
"4  c #594727",
"5  c #5C4826",
"6  c #53452C",
"7  c #5A4729",
"8  c #56492D",
"9  c #5C4A2C",
"0  c #464033",
"q  c #4D4333",
"w  c #44403E",
"e  c #4D423A",
"r  c #524632",
"t  c #584735",
"y  c #554934",
"u  c #5B4C33",
"i  c #52453C",
"p  c #58473E",
"a  c #554A3B",
"s  c #5A4D3C",
"d  c #5E5136",
"f  c #5D513D",
"g  c #634C25",
"h  c #614D2B",
"j  c #694F2E",
"k  c #64512E",
"l  c #6A512B",
"z  c #745526",
"x  c #7D5927",
"c  c #73562D",
"v  c #77582D",
"b  c #7C5A2C",
"n  c #624F34",
"m  c #634F39",
"M  c #645234",
"N  c #6C5434",
"B  c #6C5935",
"V  c #63543C",
"C  c #6B563B",
"Z  c #66593D",
"A  c #6B5B3D",
"S  c #725733",
"D  c #755A35",
"F  c #7A5B33",
"G  c #715738",
"H  c #745B3B",
"J  c #795D3A",
"K  c #7E6136",
"L  c #73633E",
"P  c #7C623B",
"I  c #474443",
"U  c #4B4643",
"Y  c #4E4945",
"T  c #504740",
"R  c #554A41",
"E  c #5B4D42",
"W  c #524E4C",
"Q  c #5E5143",
"!  c #5E5249",
"~  c #604F45",
"^  c #625444",
"/  c #695744",
"(  c #665942",
")  c #655844",
"_  c #695B41",
"`  c #695A43",
"'  c #6C5D42",
"]  c #685A45",
"[  c #6C5B44",
"{  c #6A5C45",
"}  c #6C5D46",
"|  c #625549",
" . c #645748",
".. c #63564C",
"X. c #64564D",
"o. c #69574C",
"O. c #665849",
"+. c #67594A",
"@. c #66594D",
"#. c #6B5B4B",
"$. c #695C49",
"%. c #6C5E49",
"&. c #695B4C",
"*. c #695B4E",
"=. c #6B5D4E",
"-. c #6D5F4C",
";. c #725C43",
":. c #705D4C",
">. c #6C5D51",
",. c #715F53",
"<. c #6F6040",
"1. c #6E6145",
"2. c #6E614B",
"3. c #706142",
"4. c #746441",
"5. c #736344",
"6. c #706146",
"7. c #726346",
"8. c #7C6543",
"9. c #7D6943",
"0. c #726249",
"q. c #71624A",
"w. c #73644B",
"e. c #75654B",
"r. c #75664A",
"t. c #76664E",
"y. c #7B664B",
"u. c #76694D",
"i. c #77684E",
"p. c #79694C",
"a. c #7A6A4C",
"s. c #7B6A4C",
"d. c #7E6D4E",
"f. c #6E6252",
"g. c #726352",
"h. c #786550",
"j. c #766952",
"k. c #7B6C53",
"l. c #716759",
"z. c #796759",
"x. c #766B5B",
"c. c #7B6C5B",
"v. c #7F7156",
"b. c #7E715B",
"n. c #7E7262",
"m. c #825C27",
"M. c #815D2B",
"N. c #805D30",
"B. c #83612D",
"V. c #836434",
"C. c #886732",
"Z. c #876934",
"A. c #896934",
"S. c #81653B",
"D. c #856A3C",
"F. c #896C3C",
"G. c #826741",
"H. c #836B43",
"J. c #896E44",
"K. c #826D4C",
"L. c #877046",
"P. c #8A7246",
"I. c #84724D",
"U. c #8A744C",
"Y. c #8E7B4F",
"T. c #836E51",
"R. c #816E58",
"E. c #837254",
"W. c #887550",
"Q. c #897554",
"!. c #8E7B50",
"~. c #8A7855",
"^. c #82745B",
"/. c #897659",
"(. c #86795E",
"). c #8A795D",
"_. c #837661",
"`. c #867963",
"'. c #8B7C63",
"]. c #877B69",
"[. c #8B7E69",
"{. c #8D8067",
"}. c #8D8069",
/* pixels */
"a ^ @.^ e.p.p.t.*.` y 0.K.i.K.A V d.p.p.p.-.t.p.p.p.V A 4.V ^ 0.3.0.f e.6.6.#.^ -.d.d.p.p.p.d.V A K.i.K.0.y ` *.t.p.p.e.^ @.^ a ",
"e.s Q 2 a E ! 6.{ a r -.^ E +.V 3.g.s $.) ^ V ^ f %.A y 3.a f a 2 A C V r 2 s f  .^ +./ $.s g.3.V +.E ^ -.r a { 6.! E a 2 Q s e.",
"W.t.V a Q s +.} u r u p.X.s u V ` -.2 f =.! r s r V V s ^ V ` s s V A A s 2 a s ^ a Q *.f 2 -.` V u s X.i.u r f } +.s Q a V t.W.",
"!.t.} V 0.3.3.3.f d u ] ^ E f a s ..Q !  .! a r r  .s s s s s Q y s d } Q Q  .Q !  .E  .! Q #.s s Q Q  .] u d f 3.3.<.6.V } t.!.",
"e.f  .] 8 y f y $ r a a a a s r r h g u u g u q O & $ r a 2 * y a a a a a r y h g u 9 g u q & # * a a 2 * y s a s f f u ]  .f e.",
"' a s 3.u ^ H c u q N S S S N s N D D F x b H u a E s / D N r r N S S S N s S D D b x b C a a s f ] D N r u S S S S M y 3.s a ' ",
"2.f s 1.u ;.D b P u 6 3 3 $ & V M.b } H b D x g v H F ;.b F H 6 6 3 3 # & C M.D } F b D z g F H D ;.b F H 6 6 3 3 # q y 1.E f 2.",
"f u q r 8 [ H V.D.M ^ s s s & d D.F P V.P V.S.g D x F } D D.P s ^ t s s & A V.P F V.P V.J g F m.D [ F J.G f ^ t s a & & r q u f ",
"^ s y y d D.V.c.( ^ %.J J ;.^ V E.(.Q.E.~./.c.M k.p.G.D.S.k.f #.;.J J ;.Q A /.(.Q.^.~.(.p.M c.9.H.V.K.j.f #.;.J H [ s 2 a y s ^ ",
"^ ( s Q ^ '.'.i.Q H F b D x J C { /.(.(.`.^.( ^ ( E.[.[.'.1.^ D b b F x J C 1.(.(.(.`.k.V ^ ` ^.[.[.^.( ^ F b F b b D u ! s ( ^ ",
"r E s ^ d p.e.V ;.b H x M.K L.K.V f f y - y S D / / i.p.6.` H b H x B.P U.y.s f f y 0 u S H ^ ( p.p.' ] J D H m.B.P L.V ^ s E r ",
"@.2.) e.u s s M G.c.c.c./.'.'.p.u ] H } - 6 G.8.y.Q a s s N K.c.c.R.(.'.'.6.s [ ;.( & h H.9.e.s a s t G K.c.k.R.(.'.'.Z e.) 2.@.",
">.g.k.d.h ;.#.V ( k.I.E.E.E.k.V H P K.3.Q ^ 0.^.1.^ H ;.#.f { v.I.E.v.E.i.V H S.K.' Q ^ i.^.` ^ H %.^ f w.v.I.E.v.E.6.8 K.k.g.>.",
"Q ( L V 7 [ H F s - y 8 8 8 1 ^ P k.x.! [ [ ^ f a H b [ D J y ; t 6 u 6 2 ] P c.f.^ ;.[ Q a s H F [ F H q 0 t 6 u 3 r r V L ( Q ",
"^ V r y 8 H D m.z t H S S c M V V W E H D F H T 9 F x ;.F m.g s H N S c M V ^ W Q H D F [ e l F b ;.b m.9 V D S D l M r y r V ^ ",
"g.k.0.w.9 p.G.S.6.B M.b b x F F N u 9 b x D b N n K.S.K.S.D.' S M.b x m.F D N 6 j x x D b N M I.P T.K P.Z F x b x x F h 0.0.k.g.",
"g.0.-.p.V (.).^.^ y P F b b } J D.t.A c.J b p.G.m ! E.(.).b.s u S.F M.D } K J.} e.c.F b K.P a +.~.(.(.x.y M Z.F M.H [ d p.-.0.g.",
"f./ V 0.f c.g.` C u k.Q.E.E.c.^.`. .s w.c.T.c.V q U x.c.g.( C u ^.E.Q.T.c.(.^.R V g.b.E.k.u e W c.x.w.V C f (.K.Q.p.c.V 0.V / f.",
"E.' d 2.6 u s s F g V ^._._._._.1.i i a V k.V  .>.@.u u s V b 5 ` `._._._.^.` e i a ` i.f *.>. .u s a V b 8 e.`._._.^.f %.d ' E.",
"( s y f y @.:.+.y 6 r d d d a - a ;.b J ^ u C P J ^ s >.:.^ 6 6 r d d d y - Q J F ;.^ u ;.P ;.^ E >.-.Q 6 6 y d d u q 2 Q y s ( ",
"a V ` V 8 D b S 6 Q H S S S ` q s F b b D 9 V.U.F./ u J b N 6 ^ D S S S ^ 0 ^ F b b S g D.P.D.^ n F b j r / D S S H ^ r V ` V a ",
" .f #.0.1 H F.B.S f F D H H F V Q ;.F D D 9 b V.V.;.s 8.C.V.M V b H H H J s ^ H D D S g F B.F [ u G.B.V.M C b H H D H s 1.#.f  .",
" .a r 3.y ^ b._.=.^ F F D ;.F f M N.b b x h P b D D ^ *._.^.^ ^ b F H H J s l b b b z k S.F F H ^ f.].c.^ [ b F ;.D H s 3.r a  .",
"^ a a 6.d ^ Y U ! H x H b F F s 1.U.H.J.E.^ ^.K x F H ^ U Y ^ D x H b F J s p.U.H.J.k.) /.F b D H ! I W / b b H b F H s 6.a a ^ ",
"^ y Q p.h 8.^ 6 H B.m.m.F b V.M f ].].].k.V k.K.J F F y.a t P M.m.x F b V.u ] ].].].e.V E.y.J F F t.y V P M.M.x F M.P u p.Q y ^ ",
">.>.>.t.V k.8 3 D Q.W.F.K V.P.D.u s V V ^ X.^ p._._._.p.3 , 8.Q.U.Z.K V.U.P y f V V ^  .( c._._.^.6.1 < K.Q.U.V.K V.U.M t.>.>.>.",
"s s s a y V a 2 6 k.[.'.'.'.}.d.m C S C [ H [ Q ^ ` ` V a 2 8 ^.[.'.'.'.[.6.m C S / H H / Q  .` ` f y $ d `.[.'.'.'.'.f y s s s ",
"s y 6.4.8 ^ D c u y H P P J H V S J H F x F H u E ^ V ] F S t u J P P H H V D J H F x F S t E ^ V [ b N y d J P P H C 8 4.6.y s ",
"Q r f p.n [ D b P u 6 1 $ # O V M.b [ D b D x g x D F ;.F F P 8 6 $ $ # & C M.F } F F F z g b D D [ b K J 6 6 $ $ # - y p.f r Q ",
"' # y p.M ;.D V.9.M  .V f Q * d D.P S.V.S.V.G.g D x F ;.F F.P V  .s f f & C D.P K V.P Z.P g J m.J ;.F P.G ^ ^ s f s & 2 p.y # ' ",
"K.s  .0.M D.S.c.^ / ;.F J ;.^ V E.'./.^.).(.c.M k.K.K.D.G.k.f ] ;.F J ;.^ A /.'./.^.~.'.t.V c.p.K.Z.K.g.Q } H F J ;.f 6 t. .s K.",
"h.k.k.+.^ [.'.w.! D F x D x F C ) v.^.b.b.k.V ^ / c.}.[.`.{ ^ F b x F x J C { E.^.b.^.i.V ^ ` ^.}.[.^.( ^ F b b b b J u *.k.k.h.",
"g.k.%.e.d 6.<.C ;.b ;.b B.S.U.T.V s f y O 6 S D / ^ 1.6.` ` J F H x B.S.U.p.s s f q O u v H ^ ^ 6.6.A } J D H m.V.G.U.V e.%.k.g.",
"^ y s p.u f s u 9.^.b.^.'.[.[.i.u ] J 6.q 8 H.y.p.Q E f s M K.b.b.^.'.[.'.3.s [ P ] & M K.p.y.s E f a B E.c.b.^.'.[.`.Z e.s y ^ ",
"^ s  .i.k ;.} / ^ i.p.d.p.p.i.^ H P d.' ^ ^ } ^.{ ^ H ;.[ ^ ) i.p.p.p.d.6.V D S.d.A ^ ^ e.b.( ^ J %.] f { p.p.p.p.d.' u p. .s ^ ",
">.^ r 6.h [ H b m - a 6 6 6 * ^ 8.c.l.! [ ;.^ a y D b [ F F r ; y 6 y 6 2 ] 9.c.f.^ ;.[ Q q s D F [ b J q e t 6 y 1 r u 3.r ^ >.",
"g.( y ^ 9 ;.D m.z u J D D v N V V W a H D F H R 9 F b 6.F m.g V J S F c N V Q Y s H D F H e l F b ;.b m.9 C D D F c M y ^ y ( g.",
"s r r y 6 p.H.S.e.B M.b x x J F S n h F x D F S M k.S.T.S.J.` S M.b x x D D N 8 l b x D F C M K.P E.S.U.V F x b x b D 7 y r r s ",
"^ q V 4.V '.'.^.Q r 8.F F F [ P J.j.H _.8.b K.9.u R /.'.'.c.a u G.F M.J } P U.1.p.c.P F T.P y  .(.'.'.g.a M D.F B.H } u 4.V q ^ ",
"4.# y i.V h.f.Z C 9 k./././.c.`.`.Q y { c.Q.k.f e w =.=.+.s V y j.y.k.t.f.`.^.i f 1.b.Q.t.s e R j.f.$.V C f '.Q.(.c.n.Z 6.y # 4.",
"-.y a <.8 u Q f D g d v.^.^.b.b.} R s s V e.V #.E > R E E a s E E E E ! ; 2.( R s s ( e.f } >. .u f E V v 3 1.^.^.b.v.V ' a y -.",
">.} ` / y *.:.#.r 6 r u u u y O a J M.J / u H S.N @.; > > ; ; ; ; ; ; e R = Q J M.J / u ;.S.;.Q Q >.:.Q 1 r y u u t q 2 ( ` } >.",
">.p.k.p.u D x c 7 ! H D D D [ i s J b b D 9 V.U.H >.i o.^ p E E ~ ~ ^ = a 0 ^ F b b N g D.P.D.^ n F b l r ] F D D D / y p.k.p.>.",
"y d A Z 1 ' F.A.H f F D H H F f s ;.D H D 5 b b N >.E c.>. .=.*.,.,.-.- R a ^ J D D S g F M.J [ s K.A.D.V C b H ;.D H y V ` d y ",
"^ s y s r ^ c.n.+.^ F F D ;.F s M M.b b x h 8.F N  .E z.*. .*. .,.=.*.- R y N M.b b v M S.F F H ^ =._.x.Q [ b b ;.D H a s y s ^ ",
"E.` d 1.t ^ U w  .D x H b b F s 0.~.K.K.^.^ (.K j  .i | R R E R ^ R R - E a k.W.K.U.c.) /.F b F H ! : W ] b F D x F H a 0.d ` E.",
"g.( V 0.9 y./ 6 P V.M.m.F b V.B f _.`.].e.V i.T.m p >.>.>.X. .*.>.>. . .e u ^ _.`.`.1.V k.p.J F J h.u N S.B.m.x D M.P u 0.V ( g.",
"f.%.$.p.V k.8 @ S /./.F.V.S.U.H.u a M d Q @.^ i.=.> ; e ; - - ; e ; ; = - N y s M d ^ X.V k._._._.3.1 < p./.W.D.P D.U.V p.$.%.f.",
"g.k.g.t.u V s 6 1 e.'.'.(.).[.p.M C D C H H [ Q i ^ ! ! ! E E ! | ! R E E A m G D C H H / Q Q Z ( f a 2 u ^.[.'.(.'.(.V 0.g.k.g.",
"^ ^ 2 y 6 ` F v M r B D D S N V D J H D x D S 9 ; X e R i i a p e i R e   u S H H F x D N u ^ ^ C [ b S t 8 S D S N V r y 2 ^ ^ ",
"s V A f 8 [ H b S.9 r 1 $ # o V B.x V & t a y % . = = e - - ; - ; e ; = = ; t a a y y y ; $ x F D } F V.J 6 r $ $ # - 2 f A V s ",
">.g.k.K.M H D D.8.V @.V V ^ q d J.8.J E R R i o X i o - e e e p > - % X e e R R R i p R | * P x J H F P.A ^ #.V / Q * 2 I.k.g.>.",
"@.2.+.e.Z J.S.c.Q ] ;.F F H / V E.[.k.@.i ^ R e - e o i p p R R E E i o ; ; p R p E E ; R q c.K.I.D.T.f.Q [ H b J ;.^ 8 p.+.2.@.",
"y E s ^ V '.'.0.^ D F x F x K H ( k.0.X.E c.>.R - > - R i i i ; > i e o - R =.>. .z.,.i R q / ^.{.[.^./ / b b b b b P u ^ s E y ",
"V ] s ! y ` A C 8.F [ F V.G.U.T.V s a E R z.=.| > o e e i i e e ; > > ; o R >.*. .z.>.i E r / ^ ` ' V ;.P H ;.b Z.K.W.f Q s ] V ",
"+.f a a r ^ Q u 9._.^._.'.[.}.e.V [ N E i *.E R -   X X X X O i E > = - = p ^ ^ E *.E > E s p.s Q ^ s N Q._.^._.[.[.`.f a a f +.",
"s 8 2 q 4 H [ / ^ $.6.6.6.6.3.^ H P 0.a ! E E E R E !  .R e > f A p  .! ! E R E E ! R R | a ^ ] D [ [ ^ ( 1.4.6.6.6.A 2 r 2 8 s ",
"g.V E } u [ H b n : s r y y * ^ 9.x.!   > R i i a R e i R e   + y   - R a i R R i e a R +   m F D } b F q e s 6 t 1 q y } E V g.",
"` a s 6.h H D x z u J F b b N V f U ; % = ; - - - - ; e ; = - r N & = - - = - - - e ; - - O l F b 6.b m.h C F D b v N u 6.s a ` ",
"e.s ^ ( 9 B M M 9 7 9 u u h h 9 y q * q O = > e e p e - = X e 1 3 ; - o > e e i i ; - X ; & 9 M h M u M 8 5 h 9 k l l 9 ( ^ s e.",
"Y.t.1.V e.3.3.6.f V u +. .Q ! a s @.E e o e p p p E E E p % e e q e = ; p p p E R E R = ; ; @.p a ^ Q  .) u V Q 6.5.3.e.V 1.t.Y.",
"W.p.Z s ^ s  .{ s q u p.X.s y V ( =.2 ; = a i e e ; ; i i o ; 0 i q = i i i e ; ; e i = ; o =.( V y s X.p.u q s {  .s ^ s Z p.W.",
"p.Q f 2 a Q ^ 6.( y r -.^ s ^ V 3.g.q X > ; e e e e ; ; e ; o & & o ; > ; i > e e - > ; = o g.L V ^ s ^ -.r y ( 6.^ E a 2 f f p.",
"s ! *.Q 0.t.t.t.>.( y 0.d.t.k.A Z k.%.a a i a s s s q q y ; - ^ V a * a y y i q p s a a a Q k.Z A k.0.p.0.r ^ =.t.w.t.1.s @.Q a "
};
