/* XPM */
static char *b97322fbac614840e401e60f5cccea34uNhZr9o1WLzhexXD[] = {
/* columns rows colors chars-per-pixel */
"64 64 175 2 ",
"   c #0F0E0E",
".  c #110F0F",
"X  c #151313",
"o  c #181616",
"O  c #1A1718",
"+  c #1D1C1C",
"@  c #211E1E",
"#  c #24201F",
"$  c #2C241F",
"%  c #1F1F20",
"&  c #2C1E24",
"*  c #1F2020",
"=  c #242222",
"-  c #2A2525",
";  c #2D2925",
":  c #2F2529",
">  c #2D2A2A",
",  c #322B25",
"<  c #3C2F27",
"1  c #32262A",
"2  c #332C2C",
"3  c #392D2E",
"4  c #3D3324",
"5  c #35302D",
"6  c #3B342C",
"7  c #3F382B",
"8  c #362D30",
"9  c #3A2E31",
"0  c #363131",
"q  c #3C3333",
"w  c #3E3936",
"e  c #3E3438",
"r  c #3F3939",
"t  c #443626",
"y  c #443B26",
"u  c #4D3D24",
"i  c #41362D",
"p  c #423A2A",
"a  c #4B3E2C",
"s  c #503F2C",
"d  c #423535",
"f  c #433A34",
"g  c #493C36",
"h  c #433639",
"j  c #443B3B",
"k  c #4A3D3D",
"l  c #513F3F",
"z  c #4D412B",
"x  c #554325",
"c  c #5B4725",
"v  c #5D4824",
"b  c #52432B",
"n  c #5B4828",
"m  c #424334",
"M  c #4A4235",
"N  c #45413D",
"B  c #4C433D",
"V  c #4D493F",
"C  c #524533",
"Z  c #564B37",
"A  c #5C4E33",
"S  c #52423E",
"D  c #54493E",
"F  c #594C3E",
"G  c #5E5132",
"H  c #674B2B",
"J  c #72562F",
"K  c #7B5A2D",
"L  c #604C33",
"P  c #615335",
"I  c #6A5934",
"U  c #615539",
"Y  c #6C563A",
"T  c #675A39",
"R  c #6C5A3C",
"E  c #715731",
"W  c #765B37",
"Q  c #7A5C33",
"!  c #705739",
"~  c #755B3B",
"^  c #785D3B",
"/  c #79623B",
"(  c #4B3F40",
")  c #474140",
"_  c #4D4242",
"`  c #4E4944",
"'  c #524444",
"]  c #584745",
"[  c #544A44",
"{  c #5B4B45",
"}  c #504748",
"|  c #554949",
" . c #564A49",
".. c #554B4A",
"X. c #574D4C",
"o. c #5B4A48",
"O. c #584C48",
"+. c #594C4B",
"@. c #5B4D4B",
"#. c #594E4D",
"$. c #595145",
"%. c #5D5246",
"&. c #57514B",
"*. c #5C524B",
"=. c #5C514E",
"-. c #5D534F",
";. c #5E594F",
":. c #5B5351",
">. c #5C5452",
",. c #5D5452",
"<. c #5F5654",
"1. c #5E5952",
"2. c #604E47",
"3. c #614F48",
"4. c #614E4A",
"5. c #634F4A",
"6. c #625447",
"7. c #6C5944",
"8. c #63514A",
"9. c #60534D",
"0. c #66524C",
"q. c #67534E",
"w. c #67544E",
"e. c #68534F",
"r. c #68544F",
"t. c #65584E",
"y. c #6C5D4B",
"u. c #715B44",
"i. c #615350",
"p. c #635450",
"a. c #635652",
"s. c #655652",
"d. c #695651",
"f. c #625855",
"g. c #645A55",
"h. c #635C57",
"j. c #695853",
"k. c #6D5C51",
"l. c #695954",
"z. c #6A5A54",
"x. c #6C5A55",
"c. c #6E5C56",
"v. c #665D59",
"b. c #6B5D59",
"n. c #6B5E59",
"m. c #6F5F59",
"M. c #705D57",
"N. c #705F58",
"B. c #716046",
"V. c #74654B",
"C. c #76684F",
"Z. c #78684E",
"A. c #666159",
"S. c #6A615C",
"D. c #6F625C",
"F. c #6D645E",
"G. c #6F645E",
"H. c #6D695C",
"J. c #706150",
"K. c #71625B",
"L. c #70635D",
"P. c #72635D",
"I. c #71655F",
"U. c #6C6460",
"Y. c #6F6861",
"T. c #726660",
"R. c #726862",
"E. c #776961",
"W. c #746A63",
"Q. c #776D66",
"!. c #796B64",
"~. c #777067",
"^. c #7A7069",
"/. c #805E2A",
"(. c #806942",
/* pixels */
"h h j k h 1 e j ' j 2 8 h h e 1 h e 6 B j $.+.B 6 e j k 2 V ' [ B V 2 e h h h 2 q h 6 M k [ $.B N 2 h _ 6 q ] [ B [ q 3 h h h e ",
"' ' o.o.k j ' ' ' ' 9 8 _ ' k k k h 6 B +.[ +.V 2 h +.{ 6 [ [ ` ' [ 6 j ' ' ' k j j d w +.] +.[ f 2 ' q.f j { ' ` [ f 2 _ ' ' X.",
"| _ ' ' _ ' | _ ' ' d j | j d k ( k 2 f D f j B 5 j B _ 6 N N B V f 5 _ ] ' d k k _ q 2 D j d V f q k ' 6 f N N B N 6 q ' | j f.",
"R.:.S.I.D.j.T.>.U.m.l.l.I._ f.G.L.p.d ; 2 2 6 ; B =.X.D.6 ; 2 6 7 $ k j.b.D.j T.I.b.B , , 2 6 , 6 *.| G.S , , 5 7 , < 9.l.Q.j +.",
"K.>.p.d.q.e.m.<.p.d.q.q.m.X.i.d.8.{ 5.6 f [ M i k.v.+.c.{ 6 f V f i 5.e.r.G._ l.w.{ 5.S 6 B ] 6 { K.#.l.q.B 6 V N 6 { r.q.W.| h.",
"m.>.l.r.8.q.d.+.l.d.q.q.c.:.v.d.2.D w.B q +.M g c.l.=.j.{ g f [ f B r.q.d.D.X.c.q.D { 9.6 V +.6 r.m.=.l.{ { 6 V N d r.q.q.L.X.+.",
"q.] b.8.{ 8.c.=.5.e.8.q.d.] b.d.q.8.m.=., f 6 S d.+.>.c.{ S , q 6 ' r.q.q.q.| m.r.q.w.D.q f 6 f q.9.| m.{ { 6 6 5 f q.q.8.d._ B ",
"q.k o.e.8.q.d.' k q.2.8.q.' +.q.q.q.j.#.2 , 6 q.r.] ' r.q.q.6 , 6 +.q.8.5.o.j q.q.q.q.l.f , , o.q.5._ 8.q.q.S , , ' q.q.5.q.j _ ",
"h 1 1 k d k _ h e k k ( ' d d k h _ ' h q 6 d _ _ h k ' _ _ h 2 h ( _ k _ d 2 k j k _ ( e 6 q k _ j j _ _ k k 6 q j _ k _ k 3 | ",
": : & 1 e S.D.j.( #.| >.W.p.b.T.=.#.L.l.p.D.f.#.R.b.l.R.p.#.T.p.b.m.f.| R.b.p.T.b._ R.p.l.l.G._ R.D.j.D.R._ S.b.b.j.T.' v.T.w.o.",
"e e e 1 8 I.d.e.5.K.#.f.c.q.q.c.v.p.c.q.w.l.S.f.c.w.q.l.b.v.c.w.q.d.b.<.L.q.q.d.D.#.I.8.w.q.T.X.W.q.r.q.T.#.D.d.q.8.K.<.b.j.q.{ ",
"e e e 1 8 p.8.{ 5.x.' p.c.q.q.c.v.+.x.8.{ w.p.f.x.q.8.w.b.=.d.q.8.w.9.>.D.q.q.d.D.| x.q.{ 5.l.| T.q.q.{ I.X.p.r.q.8.l.#.b.d.q.+.",
"e e e 2 2 o.8.{ 2.m.=.9.j.q.q.d.=.' q.q.{ w.v.=.d.q.{ 8.p.] q.5.q.j.l.X.l.q.q.r.l.' 8.q.{ { D.| c.q.8.{ x.' 5.8.q.q.m.#.p.d.q.' ",
"1 8 1 8 8 o.d.r.q.N.| ' j.r.d.x.+.' q.r.r.j.p._ d.d.r.j.9.' r.r.r.x.9.k p.r.r.x.l.k 8.8.d.r.m.k p.d.d.r.c._ 5.r.r.r.c._ | d.r.' ",
"2 8 3 1 8 k _ ( _ k 1 q ' k d _ d d ' _ _ ' k e _ k d k k j _ ' _ ' j 8 k ' k k k 8 _ _ _ ' _ e j _ d k _ h ( ' _ ' _ 8 h ' ' S.",
"1 8 >.b.b.p.D.#.v.l.9.p.D._ =.D.S.p.D.| =.D.p.p.D.>.| T.D.p.b.v.| U.p.p.l.v.j S.G.l.l.S._ S.p.l.p.S.' b.D.S.p.D.' S.l.p.p.T.k +.",
"( k { t.w.q.K.f.b.d.r.r.K.| l.x.r.q.L.>.f.c.w.q.N.b.>.K.d.d.x.G.X.L.r.d.d.G._ m.d.w.d.I.:.m.d.d.d.D.:.D.d.d.d.I.X.D.d.d.q.!._ f.",
"W.L.l.^.t.5.j.+.p.r.q.q.m.>.p.d.8.2.x.#.=.j.8.5.c.v.+.c.8.q.d.l.' x.q.r.r.G.| l.q.{ w.l.X.d.q.5.r.m.#.l.q.q.q.l.' l.q.r.q.W.X.>.",
"5.q.8.L.6.5.x.| 9.e.q.8.d.| b.d.8.{ x.>.=.d.8.8.d.+.>.K.{ 5.d.b.] x.q.q.q.p.| m.q.{ 8.m.+.d.q.2.q.q.X.D.2.{ q.m.| d.q.q.q.x._ k ",
"F 2.q.x.%.8.N.| ' r.r.8.r.' +.d.r.q.N.=.' r.w.8.x.o.] x.r.r.x.b.j q.w.8.d.q.' d.d.w.d.D._ 5.r.8.r.8.B d.d.r.d.K._ o.r.8.w.d._ h ",
"5.8.8.L.*.S ' d e ' ' ' ' 3 k k ] ' ] d 8 ' ] ' ] j 3 ' ' B ] ( q ( ] ' ' _ d k ' ' ] ' 8 k ' ' ] _ 8 d f f ' ' e j ' ' ' ] d +.",
"5.5.5.d.j >.l.9.+.b._ X.S.+.p.l.=.X.l.=.=.l.>.X.S.p.+.v.=.| v.=.#.j | _ b.l.+.l.f.} b.=.+.p.f.( _ - - @ 5 2 - d =.j | _ >.S.+.] ",
"1 1 1 1 8 R.M.d.q.W.>.b.L.x.x.L.S.l.L.x.d.N.U.v.L.x.x.K.D.b.L.x.d.p.v.>.W.x.x.K.R.>.!.d.x.q.e > 2 _ =.2 $.S.>.q 6 o.D.>.D.K.x.+.",
"k k f ' ( l.e.8.o.x.#.v.x.q.q.x.v.#.j.q.5.w.l.f.l.q.q.d.v.>.d.{ 5.x.=.=.D.8.q.r.D.| c.q.8.6 - r ` | U.w j g.W.Q.5 i +.| l.d.q.+.",
"q.8.{ x.' o.8.2.5.c.#.+.x.q.q.d.+.k d.q.q.d.l.#.d.q.q.d.=.] q.{ { j.l.#.j.q.q.r.p.k q.+.q = 2 j ` &.G.X.q &.;.` - B _ q p.r.q.o.",
"e.r.8.L.' o.r.q.q.K.] | x.r.r.x.+.k d.r.r.x.l.' j.r.r.j.p.' e.w.q.x.l.X.l.r.r.x.l.j q.q 2 w 5 q j [ B 2 e ) N ; N h.>.; p.d.q.j ",
"] ' l o.d l o.] ] o.d 8 o.o.' S k _ o.o.o.o.h 8 ] o.o.o.k ( o.o.o.o.k 8 ' o.S S B k S ; q >.Y.2 2 q = + - 5 > q ` 1.h.2 q o.] v.",
">.h _ >.>.+.>.' #.#.] | >.( _ | #.#.>._ ' >._ | f.| _ f.#.+.>.#._ >.' | #.#.8 | #._ = 5 q h =.- X X X X X X o > r j ; q > 2 2 +.",
"W.>.D.L.N.x.W.f.D.N.c.x.W.| b.L.K.d.W.>.l.L.x.x.W.b.=.!.K.x.K.R.#.W.x.x.c.R.` W.c.q q g.$.q > O . . . .   . . + = = 5 g.X.; : >.",
"D.<.9.2.8.q.j.=.s.r.q.q.m.:.p.e.{ D j.#.i.d.q.q.c.v.+.w.{ q.w.l.| c.q.q.q.U.| j.d ; ` =.g.q X . . . . . . . . . . = N ` h.=.q >.",
"j.#.b.{ 5.r.l.| 9.d.q.q.j.| S.j.8.{ x.#.=.d.8.5.x.=.>.c.{ q.d.j.k c.q.w.q.l.X.D.2 5 0 N 5 + X . . . . . . . . . . = h j &.~.j B ",
"q.' 9.q.q.q.c.#.o.q.q.{ q.' 9.r.q.q.N.>.] q.q.q.d.o.| x.8.q.d.b.k q.e.8.8.5._ j ` &.; - O X . . . . . . . . . . . + = ; 5 w q j ",
"o.k ] +.+.+.+.j h +.o.o.o.d g o.o.o.5.k e o.+.o.+.' _ +.o.+.+.] 8 ] +.o.o.' : = _ 1.S.5 . . . . . . . . X . . . . . o w S.Q.A.g.",
"| ' X.>.j | +.| ] =.( _ #.k _ | j _ #._ ' #._ _ #.` | :._ _ #.] | | ' k =._ 3 > r _ N = . . . . . . . O + o . . . . o w 1.G.~.9.",
"K.x.c.^.| U.K.l.r.!.>.v.W.x.c.W.l.p.L.x.x.L.S.>.W.c.x.L.v.f.W.j.x.N.b.>.W.m.' > 2 > @ X . . . o + O X o o o . . . . o q _ ` f.+.",
"q.q.5.W.=.b.d.q.{ c.=.b.c.q.q.c.v.=.x.8.8.p.l.f.x.q.q.d.S.f.l.r.5.w.p.f.L.q.] h f._ o . . . X o O O o o o X . . . . . + 2 0 j | ",
"q.q.{ c.| 5.q.8.q.x.#.p.x.q.q.j.>.] d.8.{ q.p.=.d.e.{ 8.p.| q.8.q.d.i.#.l.q.' q X.| o . . . O + X o + + X . . . . . . X # j X.+.",
"q.q.5.N.' +.q.8.q.L.#.+.x.q.q.j.>.' 8.q.8.j.S.#.d.e.8.w.p.] q.8.q.x.l.' l.q.] 2 2 2 o . o O + o O + + @ o . O O X . . + q =.Q.B ",
"5.o.o.p.j ] 5.5.+.q.j h 5.5.o.9.' k +.+.5.5.] h +.+.o.5.] k +.5.5.9.' q +.5.' w h.| o X + = + X + + + = o X % = + X . + q B S.v.",
"#.j _ #.X.] #._ X.| _ _ #.( k #.| _ =._ _ #.' ' #._ h #.#.' +.| _ =.' k | X.8 w h.=.o X o + + X X + = = o . O + + X . X = 5 _ h.",
"R.>.b.L.m.j.T.<.D.c.l.j.I.' l.L.D.d.W.:.f.I.d.j.L.v.>.W.m.j.m.U.X.W.j.l.x.G.1 0 j ; X . . X o X . X O o X . X o o .   o q | f.v.",
"L.<.9.d.e.d.m.>.p.d.r.q.m.:.9.d.8.5.N.>.=.j.q.8.M.b.+.x.q.e.d.S.' x.q.r.d.T.h 0 5 = O + @ > > > = O X o + + + + o O X + j &.R.U.",
"c.>.b.w.5.q.d.#.l.d.q.q.x.#.S.d.8.{ j.| p.x.8.5.x.p.>.K.{ 8.d.p.| m.q.w.w.b._ ` S.=.+ = - 0 0 0 > = + o = > = + O + o o 2 q _ +.",
"q.] p.8.{ q.m.>.o.r.8.q.r.' s.d.8.{ c.f.] r.q.8.d.o.#.c.{ 8.d.D._ d.q.8.q.5.h e ` ` + = 2 0 0 0 0 0 + o - 0 > o o + o   @ q | k ",
"+.j ' 5.5.5.9.k k 5.{ +.5.k ' o.5.5.w._ h +.+.{ q.S h 5.5.5.5.+.e +.+.+.5.o.e w 0 - + O O = 2 2 > = o X O + + + = O o . - ` Q.>.",
"#.k _ =.j ' +._ h _ _ ' >._ ' | ' ' #.k k X.| ' >.' j #._ ( #.' ( j _ _ #.| k 1.h.= % = @ O O O O + = = + o = > 2 = + o = j v.p.",
"D.l.l.!.X.D.m.l.| l.=.f.W.j.c.I.v.f.L.l.j.D.S.f.T.c.j.I.v.f.I.j.p.+.f.=.W.m.t.1.G.- = 2 0 > = + = 2 0 0 - = 2 0 0 0 - + - r | { ",
"e.r.q.W.#.D.d.q.8.K.#.f.M.q.q.c.v.p.c.q.5.d.S.f.c.w.q.j.b.v.c.q.q.x.p.=.K.q.+._ | = - 0 0 0 > = = > 0 0 - = 2 0 0 0 2 = @ 2 j | ",
"q.r.q.L.| 5.8.{ 5.x.| f.x.q.q.x.p.] d.q.q.w.i.>.l.q.q.d.l.+.q.{ { d.+.=.m.q.+.e 0 @ - 2 2 2 = * + - 2 2 = + = 2 > 2 - * - &.R.*.",
"e.r.q.M._ o.r.8.5.L.>.+.x.e.r.j.| g d.q.r.l.b.| d.r.q.d.=.' q.q.{ x.b.+.j.q.9._ 5 - > = = = = = = + * = = = = = = = * + = _ A.' ",
"5.9.5.d.k ] 5.9.5.p._ _ q.5.5.5.] k 9.9.8.9.] h +.8.9.9.+.B 5.5.5.q.o.j +.5.t.Q.S.> 0 > = 0 0 0 5 - = > 0 5 = 2 q 5 - + = r N | ",
"| k ' ' _ ' | _ ' _ d j | j h k _ ' | _ _ ' d j | _ ( | _ _ | ' _ | j h ' ' q X.H.> 0 2 > 7 y y y 6 - 6 y 7 > 6 y y 4 = @ q _ h.",
"R.X.b.I.D.l.T.>.U.m.l.l.I._ f.I.L.l.W.#.f.T.p.l.W.f.#.!.D.l.D.S.X.W.l.l.m.D.2 q m - 0 0 5 7 7 7 7 6 0 6 7 7 0 6 p p p ; ; h.^.h.",
"D.>.p.w.q.q.c.>.p.d.q.q.m.#.i.d.8.{ c.>.=.j.q.q.c.v.+.c.q.q.d.D.| c.q.q.r.G.h | ` - 0 5 7 7 7 6 p p 6 0 0 0 6 0 0 0 q q 2 =.A.U.",
"m.>.j.{ 8.r.d.| l.d.q.q.c.:.b.d.5.D d.+.p.x.q.q.c.l.=.j.{ q.d.i.' m.q.w.d.D._ 1.G.> 0 7 z z z f 6.6.{ a y w D a p q e 0 > j ` =.",
"q.| l.8.8.r.c.X.+.r.q.8.r.] b.d.q.q.N.>.+.d.8.8.d.+.>.c.{ q.d.b.k j.q.9.q.9.h j N - 0 M Y 7.{ k u.y.l.~ v f t.W x w w 2 - 8 w k ",
"5.' o.q.q.q.d._ k 8.q.5.8.k ] q.q.q.j.' h 5.q.q.q.] ' r.q.q.q.9.e +.q.8.5.o.8 0 ; = 0 L /.K b 6 H K ~ Q v f ! K x d q 2 2 | ` X.",
"k h _ ' k _ _ j j _ k _ _ 3 q k h ( ' d e _ _ ( _ h ( ' _ ( _ ( h ( _ k _ d q =.` ; y u x n z a b x s x b a s c z a y 6 2 =.S.t.",
"I.l.D.^._ v.D.l.p.W.X.f.W.p.b.R.>.=.I.l.l.L.l.=.W.m.l.W.f.:.T.l.m.D.v.| W.D.o.| 1.2 C y a y.t.V.y.T z I B.%.z R y.y.7.z 2 _ V { ",
"8.r.8.W.| D.d.q.q.x.| f.l.8.' B _ k ' g k B _ ( B g k k _ _ ' k g B _ k ' k k e 0 4 7.C z j.u.~ u.V.T (.7.q.P Z.l.y.u.V.6 2 N o.",
"o.o.] c.| +.5.5.o.d 2 w j f _ 2 d k 3 d h h k q d h h k | q 9 h d k j 3 d h _ 1.j 4 K R Z 7.K W u.y.P C.u.E G C.W W ^ / f &.X.o.",
"q - - q q h j 6 2 0 h f.v.G._ 1 d h 2 9 q q e 3 8 e q q h 2 3 q d h q 2 q q j G.G.q W / F R u.u.~ / U B.~ J A J.Q Q u.~ w v.^.' ",
"0 + q _ ` h.S.j r j j :.A.R._ 1 j h 1 e e _ k 2 8 e k j k 2 8 e j j 8 1 e e e _ :.i ^ W C 7.^ ^ Q /.C E W Y a 7.u.^ ^ W 6 j h.| ",
"+ @ > > - 2 2 - ; - - - 2 2 1 : 1 1 : 1 1 8 3 : : 1 3 3 2 : : 1 1 1 : : 1 1 : - ; $ a z < b x x b x t u b t 4 z b i u x $ - 2 h."
};
