/* XPM */
static char *_73ef8297b114270eaa997c65438ddaaxSzrD45MXld9BazH[] = {
/* columns rows colors chars-per-pixel */
"64 64 126 2 ",
"   c #1A1613",
".  c #1C1916",
"X  c #1E1E1D",
"o  c #211D17",
"O  c #221F1B",
"+  c #1F201E",
"@  c #22221F",
"#  c #28251E",
"$  c #221F20",
"%  c #252421",
"&  c #2A2625",
"*  c #272821",
"=  c #2A2923",
"-  c #2E2A29",
";  c #322E24",
":  c #322D2C",
">  c #382F2E",
",  c #343225",
"<  c #363827",
"1  c #383826",
"2  c #35312D",
"3  c #39312F",
"4  c #373828",
"5  c #3B3C2B",
"6  c #352F30",
"7  c #3B2F31",
"8  c #373231",
"9  c #3B3533",
"0  c #3D3935",
"q  c #3D3738",
"w  c #3F3938",
"e  c #443F2F",
"r  c #413535",
"t  c #433C33",
"y  c #423639",
"u  c #433C3A",
"i  c #4B3D3D",
"p  c #3F402D",
"a  c #41422F",
"s  c #454331",
"d  c #474833",
"f  c #4B4C36",
"g  c #46413E",
"h  c #4A443E",
"j  c #4E4D38",
"k  c #50433E",
"l  c #544E3D",
"z  c #54523E",
"x  c #58563F",
"c  c #4C3F40",
"v  c #474140",
"b  c #4C4442",
"n  c #4E4944",
"m  c #534545",
"M  c #584745",
"N  c #544A46",
"B  c #5C4B45",
"V  c #554B4A",
"C  c #5B4D4B",
"Z  c #565241",
"A  c #595642",
"S  c #5C5944",
"D  c #55514A",
"F  c #5B524E",
"G  c #5F5C48",
"H  c #5D5451",
"J  c #5E5952",
"K  c #604F47",
"L  c #614F4A",
"P  c #605D47",
"I  c #65524D",
"U  c #68544F",
"Y  c #615D4A",
"T  c #635551",
"R  c #655551",
"E  c #615755",
"W  c #645754",
"Q  c #695550",
"!  c #6B5752",
"~  c #675853",
"^  c #635855",
"/  c #635B55",
"(  c #665955",
")  c #695852",
"_  c #6C5953",
"`  c #6B5A54",
"'  c #6B5B56",
"]  c #6C5B56",
"[  c #6F5D57",
"{  c #635B58",
"}  c #665B58",
"|  c #675D5A",
" . c #685C58",
".. c #685E5B",
"X. c #6D5E59",
"o. c #685F5C",
"O. c #725F59",
"+. c #63634C",
"@. c #666350",
"#. c #696652",
"$. c #6C6A54",
"%. c #676159",
"&. c #6B605B",
"*. c #6F615B",
"=. c #6B635C",
"-. c #6B635F",
";. c #6D615D",
":. c #6F645E",
">. c #71615B",
",. c #73635C",
"<. c #73655E",
"1. c #75655E",
"2. c #716F59",
"3. c #74725B",
"4. c #6E6760",
"5. c #6F6861",
"6. c #746660",
"7. c #756861",
"8. c #746B64",
"9. c #7A6C64",
"0. c #776F68",
"q. c #777068",
"w. c #7B736B",
"e. c #7F7770",
"r. c #80786F",
"t. c #807870",
/* pixels */
"I I ` C ` I I Q ..H Q U U Q F R U I Q ;.F Q I I ` F R U I Q ;.C _ U I ` C ~ U I ) ..C ] I I [ V ` I K [ | F _ I U ` V ` I I [ H ",
"I B ) C R I I U I E ) B I ` F R U I U R H ] I B ` F I U I U R H ` B I [ C R U I Q I H O.B B X.V Q I I ) C ^ ) B I X.V ) I I Q C ",
"I I ` V M I K I B m I I I ` C M I K I C M U I I ` V M I K I B m U I I [ N M I K U C M Q I K X.m B I I U m M Q I I *.b C I K U m ",
"m m M r u m m V c r m m m M u u m m M m i m m m m r u m m M i 9 m m m m y u m m M b i m m M m 9 i M m C i r M m m m y i m m C i ",
"H C ..I I ..N o.( C ..C C ..T b F b ..W F ..C J ( F R ( V o.E C ..N E T T b N N ..T F | C { T I T ^ C o.T F | C J R T c C m ..T ",
"-.E >.U I <.H 7.Q Q >.| } O.U I *.V 7.Q Q 1.^ &.[ U U *.J 1.Q Q ,.E ;.) U Q ( H ,.) Q >.} :._ Q U *.} >.Q ) >.| ..) U I X.H >.Q ",
"^ m Q I I ) V X.I I ] T C U B I ) V X.I I [ C C U I I R C [ I I ] C I I B U I C ` I I ) C I I I I R H ) I I ) H I K B U R C ) I ",
"C i Q I I >.N ` U I _ C m Q I I ,.C ] I I [ m m U I Q ..V ` I I ] m B I B U ..H ) U U Q m B I I Q ` C Q U U Q C M I K U *.F Q I ",
"M b I K K I r V I K I m m I K K I y C K B I m m I K I C q C K K I b M K K I C i C K C K m M K K I M u C L L I m M L K K C u C K ",
"b N V v V b u m N b V m m V b V i u m m r i m m V v N i u m N v V m m C b V i u V b r b b m V i V i u V b b V m V V b V i i V i ",
",.` <.F :.[ [ X.&.H 6.<.[ <.^ ;.[ [ X.;.C 6.<.) 7.H ..~ R [ | N 7.,.] <.F <.O.] ,.^ V 9.*.) 8.V 6.[ ] 6.^ T 9.>.[ 8.H 7.] ] 7.C ",
"K l R F ( U I Q ..H I K I Q H R I I Q *.C Q B l m b y 9 3 r 3 2 y B k y u m I I Q ..C _ B B [ V ` I I ] } F U K I [ V ` I I [ H ",
"I B ) C R I K R I E I B I ) C I U I I R H ] B r w 8 % w n u : V D u y D ^ : 3 9 u C E >.K B X.V Q I K Q C E U B I X.m ) I I Q C ",
"U U [ V M U I U K C Q I Q ] V M Q I I K m k : - b J 9 8 J | : n q.b h &.q.h 9 F -.u u B I I >.m C U I Q C C Q I Q ,.b K U I U m ",
"i m m r u m m m i c m m m m u i m m m y : & 6 v J q.H 8 J q.u 8 0.n u &.r.F 0 J q.4.n 2 i m m 9 i m m m i b M m m m y i m m m 9 ",
"V N ..I I ..b ..W T ;.C C ..T R | i w O - & 9 N F 8.H : b :.N : ^ h 9 ^ w.^ : n J &.w.H & V T T T ^ N ..T ( -.V J R R R ^ b o.F ",
";.T >.Q U 1.H 7.) U >.| ( >.I B V 8 & q n : - b D J ^ : w V h : V 9 9 N -.0.u u D D ^ ^ 0 n M I ] *.^ >._ Q >.| .._ U U <.E >.Q ",
"( C Q B B ` C X.I B Q T C Q i & - - : V &.V & 8 b D &.u 9 g 2 : b 9 9 n F ^ 0 w D D u 0 D 0.b u C R H ) I B R T I I I I ( F ` I ",
"E m I I B ,.C [ U I ) H m i & 8 g 9 & n :.0.n - u N F 8 w v - q n 9 - u n n 2 9 N n : u b :.q.^ m F H ) U I Q F C I I Q X.V ) I ",
"m i K K K I u V K B I m y : 8 w n b & - n 7.-.u & 9 u % 2 9 % - - % O & 9 g 8 u u u : 0 b F ^ N u 8 u C K K L m m K K K C r C K ",
"N b V v V V b m m u C u & - b n D D v & - v n : ; O % X O @ a j . X X X # , : u g : 8 b D D b 8 u 4.H u i u C V m C b C m i V b ",
",.] <.F :.[ [ [ ;.( ;.0 : : 8 n D -.5.V % & % 4 A . X X X @ d l . X X X % z e & 2 O : b n n 8 8 V 0.q.u u ^ 7.>.[ 7.H 7.` ` 6.C ",
"K K ` F R I K U ..H k & u g & 8 g D -.J % . X p A . X X X @ d l . X X X % f t . X X : g w u : b J :.F 8 & k I I I X.V Q I I ] H ",
"I B ) C R I K U R v - 0 D %.V - - u n g O X X 5 A . X X X @ s z . X X X % d s . X X - u 9 - u n N n 9 8 F H i K I [ V ` I I ) C ",
"U I [ V C U I U k : & 2 b ^ w.F & l & & X X X p A . X X X @ d l . X X X % f t X X X X & h ; : u g 9 0 F :.H 3 M U >.b K U I Q m ",
"m m m 9 u m m i : 0 u & - g ^ D 4 A O X X X X 5 A . X X X @ s z . X X X @ d s X X X X = x , O & : 0 n 4.J 8 & : m m 9 i m m m u ",
"H C ..I I ..N b : n N n : - u : 1 S O X X X X a S . X X X % d Z . X X X % z s . X X X * x , X X - n g V 0 8 V J n F T i C N -.T ",
"-.E >.U I <.H V 9 N D ^ J 2 & $ , A O X X X X 5 A . X X X @ d Z . X X X % j s . X X X = x , X X 2 N u 8 2 n 8.t.F h U I *.H X.Q ",
"| V ) I K U q 2 2 n b | 0.D = X 5 S O X X X X p A . X X X @ d l . X X X % j t X X X X = x , X X % g u 0 n D -.5.g r B U R C ` I ",
"C i Q I Q y & 9 9 9 : 9 b n 2 X , S O X X X X 5 A . X X X @ s l . X X X % d s X X X X = S , X X X & 9 b n V V n 8 y B Q X.F ) I ",
"m i K I M : 9 V D F V : & - % X 4 S O X X X X 5 A . X X X @ d l . X X X % f t X X X X = A , X X X 9 u u g w : : & r C K C u C C ",
"m m V c : - u n ^ q.0.J - . X X , S O X X X X 5 A . X X X @ a z . X X X @ d s X X X X % z , X X X 8 v b 9 : n ^ ^ : m C i i V i ",
"*.) <.m & u u g D H n u % X X X 5 P O X X X X a S . X X X @ d Z . X X X % z s X X X X = S , X X X @ : - & u D -.q.u I >.) ) <.V ",
"K B ) V & 0 h u 9 - % O X X X X < S O X X X X 5 A . X X X @ d Z . X X X @ f s . X X X = A , X X X X X O 9 u u V J 9 F Q I I [ H ",
"I B Q m : : 9 y b 2 X X X X X X < S o X X X X p A . X X X @ d l . X X X % f s . X X X * x ; X X X X X @ 2 : : 9 g : y ` I I ) C ",
"U U [ m - g N ^ w.8.: X X X X X 5 S O X X X + a A . X X X @ d l . X X X % j t X X X X = A , X X X X X X . & u n H H 8 C U I I m ",
"i m M 7 : n u v J J - X X X X X 5 S O X X X X 5 A . X X X % d l . X X X % z t X X X X = x , X X X X X X % 9 v V :.:.8 i m m m 9 ",
"V N ..C 2 b : : g 8 O X X X X X , S O X X X X 5 A . X X X @ a z . X X X @ d s X X X X # x , X X X X X X - w 8 8 u 9 : ( ^ m ..F ",
"&.H >.C : - . O O O X X X X X X < S @ X X X X 5 A . X X X @ d l . X X X % f t X X X X = x , X X X X X X O - 9 u g N 0 ` ;.H X.U ",
"| C _ B 2 q 9 n D 2 X X X X X X < S @ X X X X 5 A . X X X @ s l . X X X % f t X X X X = x , X X X X X X X 8 F 7.t.q.u ` R H ] I ",
"T m U B : w b ^ w.n % X X X X X < S O X X X X s S . X X X @ d z . X X X % f s X X X X * A , X X X X X X X : g F 8.8.u ` ` V Q I ",
"V i I M : u u u D u % X X X X X 4 G O X X X X 5 A . X X X @ d Z . X X X % j s . X X X = S , X X X X X X X : u u n n 3 C F u C K ",
"m b C u & 0 g w 9 : X X X X X X 4 S O X X X X 5 A . X X X @ d l . X X X @ f s . X X X = A , X X X X X X X % % - 0 u : C m u V b ",
"X.) ,.b & : u : . O X X X X X X , S O X X X X 5 A . X X X @ s l . X X X % f t X X X X * x , X X X X X X X X . 0 -.8.n <.R Q ,.V ",
"I I [ N % & - : & X X X X X X X < S O X X X X p A . X X X @ d z . X X X % f s X X X X = x , X X X X X X X O u D 0.w.h ) I I [ H ",
"I B ) n : N 5.q.^ & X X X X X X < S O X X X X 5 A . X X X @ d l . X X X % f t X X X X = x , X X X X X X X O g V ^ &.u ) I I ] C ",
"I K [ N - g H 5.%.& X X X X X X , S O X X X X a S . X X X @ s z . X X X % f s X X X X * x , X X X X X X X @ u v V V : m I K U m ",
"M C C 9 - u u V V % X X X X X X 5 Y O X X X X 5 A . X X X @ d Z . X X X % z s . X X X = S , . X X X X X X O 9 9 8 u - i M m C i ",
"H C ( M - & % : 0 @ X X X X X X , S O X X X X a S . X X X @ s z . X X X % f s . X X X * x ; X X X X X X X X % & & : y m V N | C ",
"-.E >.K : : q u 0 @ X X X X X X 4 S O X X X + a A . X X X @ d l . X X X % j t . X X X = x , X X X X X X X O u ^ 0.8.m ` ..F X.Q ",
"| C ] B 2 N 8.w.| & X X X X X X 5 S O X X X + a A . X X X @ d l . X X X % j t X X X X = A , X X X X X X X O u F 5.0.g ` R C ` I ",
"C i Q C : u V &.^ % X X X X X X 4 S O X X X X 5 A . X X X @ d l . X X X % f t X X X X = x , X X X X X X X O 9 9 u n 0 X...C Q I ",
"C i U B 3 u q b n % X X X X X X , S O X X X X 5 A . X X X @ a z . X X X @ d s X X X X * x , . X X X X X X O 2 u n g 3 I T b I K ",
"b m C i & & % : 0 @ X X X X X X 4 S O X X X X 5 A . X X X @ d l . X X X % f e X X X X = x , X X X X X X X O g -.w.e.i m i r M i ",
"..) ;.b & 2 g n u % X X X X X X , S O X X X X 5 A . X X X @ s z . X X X % d s X X X X * x , . X X X X X X O w b H -.u ` R R ,.N ",
"I B ` m : u H w.-.& X X X X X X 5 Y O X X X X a S . X X X @ d Z . X X X % z s X X X X = S , X X X X X X X O 9 8 0 h 9 ` I I O.H ",
"I B Q b : n g ^ J % X X X X X X < S O X X X X 5 A . X X X @ s Z . X X X % f s . X X X * A , X X X X X X X O 2 0 u 9 3 ` I I ] C ",
"I I [ N & 8 2 9 2 O X X X X X X 5 S O X X X X p A . X X X @ d l . X X X % f t X X X X = x , X X X X X X X @ b J 0.7.y I I I I m ",
"M B C 9 & h &.8.H % X X X X X X , S O X X X X 5 A . X X X @ a z . X X X @ d s X X X X % x , X X X X X X X O q n 8.0.q M B M C y ",
"b b T b : b ^ 0.-.& X X X X X X 4 S O X X X X 5 A . X X X @ d l . X X X % f t X X X X = x , X X X X X X X O 9 q b N 2 H F b H m ",
"..F 1.C : 9 9 g u @ X X X X X X , S O X X X X 5 A . X X X @ s z . X X X % d s X X X X * x , X X X X X X X O 2 0 u 0 3 ` X.F <._ ",
"u F ] m : u D ^ n % X X X X X X < S o X X X X 5 A   X X X @ d z . X X X % j t . X X X = A ; . X X X X X X % h J 8.5.0 i > 8 y 9 ",
"O : 3 : : g F w.-.& X X X X X @ s #.; X X X @ f @.# X X X % z Y # X X X = S l @ X X X , +.s O X X X X X X O 0 N 8.q.2 : q V | -.",
"% u g 0 2 b u F F % X X X X X @ z 3.0 X X X # S 2., X X X = +.$.; X X X , $.Y & X X @ 5 2.Z # X X X X X X O 0 u V F : u w b J &."
};
