/* XPM */
static char *result[] = {
/* columns rows colors chars-per-pixel */
"64 64 138 2 ",
"   c #3D372B",
".  c #3E392D",
"X  c #4E3E1F",
"o  c #453B26",
"O  c #4B3E25",
"+  c #443B2C",
"@  c #4A3F29",
"#  c #443E33",
"$  c #433E3B",
"%  c #55411F",
"&  c #5C451F",
"*  c #4D4125",
"=  c #4D422C",
"-  c #514225",
";  c #594726",
":  c #5C4826",
">  c #53452C",
",  c #5A4729",
"<  c #56492E",
"1  c #5C4A2C",
"2  c #464033",
"3  c #4D4333",
"4  c #46403C",
"5  c #4C433B",
"6  c #524632",
"7  c #584731",
"8  c #554934",
"9  c #5B4C33",
"0  c #51473B",
"q  c #564A3A",
"w  c #5A4D3C",
"e  c #5E5136",
"r  c #5D513D",
"t  c #634C25",
"y  c #624D2B",
"u  c #694F2D",
"i  c #64512E",
"p  c #6A512B",
"a  c #745526",
"s  c #785524",
"d  c #7E5926",
"f  c #73562D",
"g  c #77582D",
"h  c #7C5A2C",
"j  c #624E33",
"k  c #645234",
"l  c #6C5534",
"z  c #6C5935",
"x  c #63543C",
"c  c #6B563B",
"v  c #66593D",
"b  c #6B5B3D",
"n  c #725733",
"m  c #755A35",
"M  c #7A5B33",
"N  c #715738",
"B  c #745B3B",
"V  c #795D3A",
"C  c #7E6136",
"Z  c #73623D",
"A  c #7C623B",
"S  c #474342",
"D  c #4A4642",
"F  c #4E4844",
"G  c #504740",
"H  c #544C43",
"J  c #5B4F41",
"K  c #524E4C",
"L  c #5E5242",
"P  c #5D5349",
"I  c #625544",
"U  c #695744",
"Y  c #665942",
"T  c #6C5B44",
"R  c #63564A",
"E  c #66594C",
"W  c #6B5C4B",
"Q  c #725C42",
"!  c #705D4C",
"~  c #6B5D51",
"^  c #6E6145",
"/  c #6E604B",
"(  c #736343",
")  c #7C6543",
"_  c #7D6944",
"`  c #74644B",
"'  c #7B664B",
"]  c #76694D",
"[  c #7B6A4C",
"{  c #6D6252",
"}  c #726352",
"|  c #786550",
" . c #776952",
".. c #7B6C53",
"X. c #716759",
"o. c #766A5A",
"O. c #7B6D5B",
"+. c #7E7156",
"@. c #7E715B",
"#. c #766C61",
"$. c #7D6F60",
"%. c #7D7262",
"&. c #825C27",
"*. c #815E2B",
"=. c #805D30",
"-. c #83612D",
";. c #836434",
":. c #886732",
">. c #876934",
",. c #896935",
"<. c #82653B",
"1. c #856A3C",
"2. c #896C3C",
"3. c #826741",
"4. c #836B43",
"5. c #896E44",
"6. c #826D4C",
"7. c #877046",
"8. c #8A7246",
"9. c #84714D",
"0. c #8A744C",
"q. c #8E7A4F",
"w. c #836E51",
"e. c #816E58",
"r. c #837254",
"t. c #897554",
"y. c #8C7953",
"u. c #82745B",
"i. c #89765A",
"p. c #86795E",
"a. c #8A7A5D",
"s. c #837662",
"d. c #867963",
"f. c #8B7C63",
"g. c #877B69",
"h. c #8B7E69",
"j. c #8D8067",
"k. c #8D8069",
/* pixels */
"q I E L ` [ [ ] W U 8 / 9.] [ Z x ..' ] [ / ] [ [ [ x b Z x R ` ( ( r ] ( ( E I W [ [ ] [ [ [ I Z [ ] 9./ 9 Y E ] [ [ ` L E I q ",
"` r L = q J L / U q 6 / I L R v ( } w W Y R x I r W Z 8 ( q w q = T b r < = r r U Y W U W q { Z x E L I / 6 8 T ^ P J q = L w ` ",
"t.] x q L w E T e 3 9 ] E q 8 v U W 6 w E L 0 w 6 x v r I L U q w k Z Y r = q w R 0 J E r 3 E T v 8 q E  .9 = r W E w L w x ] t.",
"q.| T x ( ( Z ( r e 9 Y P L r q q R J I R P q = 3 R q q w w r J q w e T P L P L P R J R L L W w q w L R Y 9 e r ( Z ^ ( x U ] q.",
"` r R Y < 8 w 8 O 6 q q q q J 3 6 y t 1 9 t 9 3 + o @ 0 q = O 8 q q q q q 6 6 y t 9 < t 9 6 + o = q 0 = @ 8 9 q w r r 8 Y R r ` ",
"T q r ( < R B n 9 = l n m n l w N m n M d h B 9 q L w Y m p 6 6 z n n n z w m n M M d h N q G w x Y m l > 8 n n n z k 9 ( r q T ",
"/ r r ^ y T m h A 8 > - * O + x *.h W n h B s t f B M Q M M V < > - * O # c &.m ! M M V a t h B m Q h M B > > * * o = 6 ^ L r / ",
"r 9 3 3 < Q B ;.A k R 9 w w + 9 <.M <.;.<.=.;.t n &.M Q m ,.A x P 9 w q + c ,.C M ;.=.;.M t M &.m ! M 2.N r R 8 w q + + 6 = 9 r ",
"R w 8 0 e <.<.e.Y Y Q V V Q R x r.d.i.r.i.a.e.k  ._ _ 2.) ..r W Q M B ! L c i.a.r.r.y.a.] k .._ 3.;.6.] I W Q M B T w = q q w Y ",
"x Y q L x f.f.] P B M h m d m z Y i.a.p.d.+.Y R Y r.h.j.f.W I m M d M d B v T a.p.d.d...I U T p.k.f.p.Y U M h g g h m 8 L q Y x ",
"6 w L L w [ ` v Q h B d *.C 7.6.I 9 e q 2 q p m Y Y ] [ ( Y B M B &.-.C 7.' x w r 3 2 9 m N I Y [ [ T T m m B &.-.A 7.x I w J 6 ",
"~ / Y ( 9 r q j 4...o.O.i.f.h.[ 9 W B T @ > 4._ ' J q w q l 5.O.o.O.p.f.h.( 9 T ( Y + i 4.) ' H q r q m 6.o.o.r.f.f.f.x ` U ~ E ",
"~ }  .[ y Q W I Y ..9.r.r.+...x N V 6.Q x L ` u.^ I Q Q W w W +.9.r.+.r.] x B <.4.T J I [ u.Y U Q ! U r ` +.9.r.+.+.( < [ ..} ~ ",
"J Y Z v < B B M e $ 8 < < < * R <...o.I U T I w q B h T M M 8 2 q > < > = U A O.{ P Q T L 0 x m M T M V 3 5 8 > 9 > 6 3 v Z Y L ",
"I x 6 0 1 Q m &.a q B n n f k x I K J Q m M B G , M h Q M &.t x m l m f k x Y K L B m M T $ u M M Q g &.: x m n n p j 6 0 6 x I ",
"{ ../ ` 1 [ 3.<.( z *.h g &.M g N 7 , h &.m m n j 6.<.w.<.1.T n &.M d &.M n l 7 p h d m h l l 6.<.w.;.5.v C d M d d M : ` `  .} ",
"} ` / [ x a.a.u.I 8 A C h M T A 1.] Z O.A h 6._ j P r.a.a.O.w 9 <.M *.m W C 5.U ) O.=.M 6.A q E i.a.a.o.8 k 2.h d B T e [ W ` { ",
"W I e / r o.X.T c < ..r.0.r.o.p.d.R q ` O.w...x 5 D o.O.} Y v 9 u.t.r.w.o.p.s.J x } u.w. .9 4 H O.o.` x x r p.6.i...@.r ` e Y { ",
"r.T k ` < 9 q e M t x u.d.p.%.@.^ q G w v  .x R ~ E 9 9 J x M ; T d.d.u.s.u.U 0 q q U [ x W ~ R 1 w q v h ; ` d.p.d.@.r ^ e T 6.",
"Y w 6 r 8 E W E 8 > 6 k e e q 2 q Q =.V U 9 T A B U J ~ W R < > 6 e e e 0 2 L V M Q Y 9 Q V Q I L ~ ~ L > > q k e 9 3 3 L 8 w U ",
"q r T r < m h n > L B n n n U 5 w M h h m t =.0.2.U j m h p > U m m m m Y # I *.h h n y 5.7.2.x j M h p 6 U m N n B L 6 x c r q ",
"R e W ` > b ,.-.n J M m B B M x I Q M m m : M =.;.Q 9 ) :.;.k x h B B m B w I B M M n : =.*.M ! j 4.-.<.x c &.B B m B w ` W r R ",
"R q 6 ( 8 R u.d.W R M M m Q M x j *.h M d y <.M m m I E d.s.R x M M B Q M w l =.h h a k <.g M B R { s.O.L T h h Q m m e ( 6 q E ",
"R q q ( e R F D I B d B h M M x Q t.1.4.r.I p.C d m B R D D R M h B d n M w ' 8.4.5...Y a.M d M B P D F U M g B h M B e ( q q L ",
"R 8 L ] i ) x > Q -.&.&.g h ;.k x d.g.g. .x ..6.B =.M ' w 9 A -.&.&.m *.<.j Y g.f.d.` x e.' B M =.` 8 k <.&.d d n *.C e ' L 8 R ",
"E ~ ~ ` x +.< X M i.r.2.C C 0.1.9 J x x L E I [ s.s.s.' - % ) i.0.>.M ;.0.C q r x x I R v e.s.u.s.` X & 4.i.0.:.C ;.0.v ` ~ ~ E ",
"w q w q < x q 3 * ..h.f.f.f.k.[ j c m v Q N T L R Y T x q = < +.h.f.f.f.f.( 9 z n T N B U L Y T T w q O e d.h.f.f.f.f.e q r q r ",
"q 9 ( ( 9 Y m g 9 6 m A V A B x n m B M &.M N 9 w U x U h n 8 9 B A Z V B x m V B m &.M m q J I I Q g l 6 e A V A Q c < Z ( q q ",
"L 6 w ' i T m h A 9 > * O @   r *.h W m h m d t g M M Q M M A < < O O o # c &.M W h M M s t d m m ! h M B > > O *   2 8 [ r = L ",
"^ o q ` k Q m <._ k R x x J @ r 1.A C ;.<.<.3.t B d M Q M 1.A r R w x L @ c 1.A C ;.<.<.C u V &.M Q M 7.m L R w e w + = [ 6 o ^ ",
"6.w R ` k 1.A @.I W T M m Q U x r.d.a.u.y.f...k ..6.6.,.3.o.r T Q M M Q I v i.f.r.p.i.f.] x @.[ 7.;.6.| I T B M V Q r < ` U r [ ",
"]  . .W v f.j./ L m M d M d M B Y r.u.@.u...Y Y Y ..h.h.d.T R M M d M g M v ^ +.u.@.u.] x Y Y u.k.j.u.Y U M h M g g V 9 E .. . .",
"} [ / ( e ( ^ c Q g T h -.<.0.6.x w r 8 + > m m U I / ( T b V m N &.-.A q.[ w w e 3 . 9 f B U I ^ ( T T M m B &.;.3.0.v ` / [ } ",
"R q w [ 9 r w j 4.u.@.@.a.g.h.] w T B Q # < 4.' [ w J J w k 6.s.O.s.f.j.f.^ w Q ) U # k 5.' ] w J r w z r.O.O.s.f.g.p.v ` q 8 I ",
"I q R ] i T W x Y ] [ [ [ ..' x B <.6.T I I T u.T R B Q T I Y [ ' [ [ [ ( I M <.[ c I I ` @.Y U V ! U r T [ [ [ [ [ ^ 9 ' R r P ",
"~ I 6 ( 1 Q B M j # q > > < O I )  .X.I U Q U q 8 m h Q M M 6 # q > 8 > = U _ O.~ I T Q L 3 w M M T h V 6 $ 9 > q * = 9 ( > P ~ ",
"{ Y 0 Y 1 B V &.a 9 m m m g l x x K q N m m m G < M h ( M *.p x M m m f z x x F w B M M Q 5 u =.g ( M &.t v m m M g k 9 Y 6 Y } ",
"q 6 > 6 < [ 4.<.` v &.h h d m M n j y m &.m M n k w.<.w.1.5.c z &.h h d m n n 9 l M d n m l c 6.<.r.<.0.x M &.h d h n , 3 3 6 r ",
"I 3 r ( x p.f.u.L < ) M M *.T V 7. .Q s.3.*..._ 9 H i.f.f.O.w 9 3.M *.V W C 6.` ' @.<.*.w.V 0 R a.f.f.} q x 1.M -.B T e ( x 3 Y ",
"Z o 9 ' x | ~ Y b 9 ..i.i.u.O.f.p.L 0 U o.t. .x 0 H } } W x b 9 u.i.i.r.%.f.@.0 e / O.r.` w 0 H  .} W x l e f.r.a...@.v ] 6 o ( ",
"/ 6 8 ^ , 9 L L C : e +.+.@.@.@.T J J w x ` x W ! W q w J x M ; x r.u.u.@...I J w J Y ` x W ~ R 9 L J x g ; T i.+.@.+.x b 8 q W ",
"{ T Y Y 8 ~ ! E 6 > 6 9 e e 5 . J B *.V U 9 N <.B Y q ! ! R @ 6 q 9 9 9 3 + L V *.V x 9 Q <.Q L J ! ! I = 6 8 9 9 9 2 = Y Y T / ",
"{ ] ..[ 9 m d f , L B m n m T 0 q M h g m , <.7.2.Y 9 M &.n < I m m m m U 0 Y M h h l t 2.7.1.I j =.h u < Y M B m B I 8 [ +.[ { ",
"8 9 T v * B 5.,.B r M m N Z M x L Q m V m t h =.C Q w ) ,.,.c x M B B B m q I B m m l t =.*.M Q 9 6.:.1.x v h B Q m B q v c e 0 ",
"L w 6 r 6 R O.%.E I M M m Q M x l *.h M d y ) M M m U E %.$.P U h M B B M w p -.*.*.g k <.M M B U E s.#.P b *.h Q m N 8 9 q w x ",
"r.b e / 8 U D S R m d B h h =.w / i.5.5.u.Y p.;.h M V R S D Y M h B d M M r ..0.5.w...Y a.h h m B P S D U d M B d C N 8 / e c r.",
"` Y r ` 1 ' I < V ;.&.&.M h ;.z e %.d.d.` r ] w.Q M M ' w j A :.&.&.M d <.k r d.d.d.W x ..[ V M V | 6 l <.-.&.d m -.C e ` x Y } ",
"{ W T [ v [ < X m i.i.4.;.<.q.4.9 q e k L E I ] s.d.d.' - X A a.i.2.C <.q.A q q x 9 R R x +.d.d.s.( O & [ a.t.1.C 1.0.v ' W E / ",
"} ..} ` q x w 3 = ` h.a.a.f.f.' k B n b Q B Q J L Y v x w > > ..f.f.f.a.f.( j N m c B B U L P c Y x 0 O 9 i.h.a.f.a.d.x ` ` ..} ",
"R x = q < U M d k < l m m m z x n B B M &.M n j x R v U g n 9 < l m m l l c m m B M &.m n 9 x I v Q h n q 1 n n m n k 6 0 = x R ",
"w x b e < T N C C 1 > O O o   w -.d Q M h m d t d m M ! M C V < 6 O O + . c &.M Q M M M s t h M m ! h =.B < 6 O =   # = x b x w ",
"~ } ..9.k Z m <.[ x E I Y U = e 4.) <.C <.<.4.t B *.M B M 5.B x W x x R = c 5.3.;.<.<.1.A p A h M Q M 0.c I U x I r @ = 9...} ~ ",
"E } E ( c 7.<.@.I W Q M M B U x +.h.a.s.i.f...x  .w.0.1.4.o.w T B M M Q I v p.f.p.s.f.f.` x e.6.0.2.6.{ L T B *.m Q x < ' E / E ",
"0 L w R v j.d./ I n M d m d =.Q Y ..+...@.] x U Y ..h.j.d.Y R M M d m &.<.c Y ........` x Y x u.k.f.u.Y Y M m h g h A e I r J 8 ",
"x Y w L 6 b b v V m T M :.3.t.w.9 w r q . > n B U J Y T v c A B Q h :.3.t.[ w w e 0 . 9 M B U L T ^ x T C B Q *.<.4.r.x L q Y I ",
"Y r q q < L L e _ d.u.s.f.h.k.` x Q V ( 3 < 5.w.[ x L I L k 9.s.u.s.h.h.f.T x Q A T = 9 6.w.[ r L L w l r.s.u.d.h.k.d.e q q r E ",
"e < = 3 ; Q T U I W ( ) ( ( ( I B C e.T I R Y ..R U m Q Q Y Y ^ ( ` ` ( T I M 3...x R R Q ..I U m Q T Y Y / ] ( ( ] v = 3 = < r ",
"{ r L ^ 9 Q B *.j $ q < q < = x _ O.{ R b B U 0 6 M M W n *.6 4 9 < 7 > * T [ #.~ R B Q P 2 j g m W h *.3 5 9 < 9 * = 9 ^ L r / ",
"T 0 r ^ y B M d a e M M g g l k w D q B M g m H : M g ) M *.p k V m h d z x r 4 x n M M B 5 p C h Q g -.y z M g M f l 9 ( r q T ",
"` r I T < l k k 1 ; t q j y p < 8 3 < y t q y 7 , v t p 1 j 9 < , j 1 y y 9 8 3 < t 1 9 y 6 1 k y l 9 k < ; i 1 p p p < Y P r ` ",
"q.] / x ( ( ( ( r r e E I L P q w W L R R R w = 3 R q w r q q L q r r / I R E L R E J R R I E q q I J R Y e r L ( ( ( ( x ^ ] q.",
"0.] v q R w R T e = 9 ] E q q x Y E 3 w W P 6 w > r x J P r v r r e b T J 3 q w R q w E w 3 W Y x q q E ] 9 3 e T R w R w v ' r.",
"' L L = q J L ( Y q 6 / R J U x ( { q W Y I L I r T b 9 Z w L q = b b e 6 = w w R r R U W q } Z I U w I W 6 8 T ^ R J q = L r ] ",
"w P E r ! ] ] ] { Y < ` [ ` w.b x [ ] | ] W ] ` ` [ v Y ( r L / b ` e ` T Y W Y / [ [ ` ] `  .v c ..` [ ` 3 Y E ` ` ` / r E L q "
};
