/* XPM */
static char *result[] = {
/* columns rows colors chars-per-pixel */
"64 64 167 2 ",
"   c #0E0F15",
".  c #0F1218",
"X  c #12141C",
"o  c #161622",
"O  c #181726",
"+  c #171923",
"@  c #191926",
"#  c #191729",
"$  c #1D1A2C",
"%  c #1F1D30",
"&  c #211D2D",
"*  c #2B1C2E",
"=  c #3F1D2D",
"-  c #211E32",
";  c #321E30",
":  c #2E212E",
">  c #35242F",
",  c #252135",
"<  c #2B2436",
"1  c #272338",
"2  c #29253A",
"3  c #2E2A3E",
"4  c #342635",
"5  c #3A2734",
"6  c #332937",
"7  c #3C2A36",
"8  c #342539",
"9  c #3D2539",
"0  c #312B3D",
"q  c #3C2D3B",
"w  c #3A313F",
"e  c #452233",
"r  c #4D2735",
"t  c #432B35",
"y  c #4A2E35",
"u  c #462639",
"i  c #4D2538",
"p  c #472F3A",
"a  c #482F38",
"s  c #5C2637",
"d  c #552937",
"f  c #502739",
"g  c #5E2638",
"h  c #582B3D",
"j  c #4C3135",
"k  c #45333D",
"l  c #4C343C",
"z  c #4D3D3E",
"x  c #543336",
"c  c #5B3536",
"v  c #52343A",
"b  c #5A3639",
"n  c #573B3F",
"m  c #5D3A3A",
"M  c #622637",
"N  c #6C2536",
"B  c #652D34",
"V  c #692638",
"C  c #732635",
"Z  c #7C2635",
"A  c #742938",
"S  c #633736",
"D  c #633836",
"F  c #693A37",
"G  c #633B3A",
"H  c #6C3D39",
"J  c #723436",
"K  c #733F39",
"L  c #64433F",
"P  c #6A413D",
"I  c #74433C",
"U  c #7A453C",
"Y  c #7F493E",
"T  c #2F2B40",
"R  c #322E41",
"E  c #343043",
"W  c #373549",
"Q  c #39364A",
"!  c #3A384C",
"~  c #3F3D51",
"^  c #493741",
"/  c #463942",
"(  c #4D3C44",
")  c #5D3F41",
"_  c #403E53",
"`  c #5F4041",
"'  c #584548",
"]  c #624343",
"[  c #634B46",
"{  c #684D48",
"}  c #704641",
"|  c #744943",
" . c #7C4E44",
".. c #66514F",
"X. c #6A524D",
"o. c #7F5046",
"O. c #72574F",
"+. c #7A544B",
"@. c #7D5F53",
"#. c #822635",
"$. c #8C2735",
"%. c #872837",
"&. c #932735",
"*. c #972835",
"=. c #9C2935",
"-. c #A02C37",
";. c #82433D",
":. c #82493E",
">. c #824E42",
",. c #8A4F41",
"<. c #855245",
"1. c #8C5444",
"2. c #865548",
"3. c #885649",
"4. c #89584B",
"5. c #955644",
"6. c #925947",
"7. c #995945",
"8. c #975D4A",
"9. c #9C5F49",
"0. c #A04243",
"q. c #A15F49",
"w. c #9D604B",
"e. c #8B6B57",
"r. c #986E55",
"t. c #916D59",
"y. c #9E765C",
"u. c #A3624A",
"i. c #A9654C",
"p. c #AC684D",
"a. c #B56B4F",
"s. c #AC6C52",
"d. c #B36E50",
"f. c #AD7E5F",
"g. c #B57355",
"h. c #BA7353",
"j. c #BE7957",
"k. c #BA7B5B",
"l. c #8D7C6B",
"z. c #B8805D",
"x. c #A38067",
"c. c #BE8160",
"v. c #B9906F",
"b. c #C58660",
"n. c #C68A63",
"m. c #CB8C64",
"M. c #D38A64",
"N. c #CC9066",
"B. c #D89168",
"V. c #D4996C",
"C. c #DB9C6C",
"Z. c #D39F77",
"A. c #DEA16F",
"S. c #DEA272",
"D. c #DDA97C",
"F. c #E2AB7A",
"G. c #C6A885",
"H. c #D2AC86",
"J. c #DDAD82",
"K. c #DCB78E",
"L. c #DBBE98",
"P. c #E5B484",
"I. c #E6B98A",
"U. c #E0BF97",
"Y. c #E3C39A",
"T. c #E7C99D",
"R. c #E8C99D",
/* pixels */
"- , , < T , + + % , , 2 3 1 - - + # , , , , , , & + $ & + % % , , 3 2 - , % + $ , , 2 3 , - @ + % + + , , % 2 3 1 , - + @ - & $ ",
"2 3 3 W ~ E , , 3 3 3 W ~ E 3 3 , % 2 3 3 3 T 2 2 % , 1 % 1 3 3 R ~ ! T 3 2 - 1 3 3 Q ~ R 3 , , , , , 3 3 3 ! ~ R 3 2 , , 3 2 X ",
", 2 2 3 E 2 $ $ , 2 2 3 E 2 2 2 % $ , 2 1 2 2 2 , @ $ - # , 2 2 2 R R 2 2 - + - 2 2 T E 2 2 % @ , # $ 1 2 2 3 E 2 , , $ $ 1 , X ",
", 2 2 3 E 2 $ $ , 2 1 T E 3 1 1 $ @ , 2 1 2 2 2 1 @ $ , O , 2 2 2 R T 2 2 , @ - 2 2 T E 2 2 % @ % $ # 1 2 2 R E 3 2 2 @ $ 1 , X ",
"X @ + @ @ + X . + + + + @ + + + . X + + @ @ @ # + . X X X + + + + + @ + + X X o + + @ @ + + X . o . X + + + + @ + + o X X + X . ",
"+ $ & & & & & & % % & % % % % % & & & % $ & $ $ & $ % & $ $ & & & % % & % % $ $ & & & & $ % & $ % $ % & % & % & & $ $ & $ $ + X ",
", 2 2 2 2 2 2 2 2 2 2 2 2 2 2 2 2 2 2 2 2 3 2 2 2 2 2 2 2 3 2 2 2 3 2 2 2 3 2 3 2 2 2 2 2 2 2 2 2 2 2 2 2 2 2 2 3 2 3 2 3 2 , X ",
"1 2 2 < 2 2 2 2 2 2 2 1 2 1 1 2 2 2 2 2 < 2 2 2 2 2 2 2 2 2 1 1 , 2 1 1 1 2 1 1 2 2 2 2 2 2 2 2 2 2 2 2 2 2 2 1 , 2 1 1 1 2 1 + ",
"1 2 2 2 2 2 2 2 2 2 , $ $ % $ , 2 2 2 2 2 2 2 2 2 2 2 2 2 2 2 2 % % $ $ , 2 2 2 2 2 2 2 2 2 2 2 2 2 2 2 2 2 2 $ % % , 2 2 2 1 + ",
"1 2 2 2 2 2 2 2 2 2 , # $ $ # , 2 2 2 2 2 2 2 2 2 2 2 2 2 2 2 2 % $ $ $ $ 2 2 2 2 2 2 2 2 2 2 2 2 2 2 2 2 2 2 $ $ @ , 2 2 2 2 + ",
"1 2 1 , , , , 1 1 2 , , % 1 1 2 2 2 2 2 2 2 2 2 2 2 2 2 2 , , , , , , 1 2 2 2 2 2 2 2 2 2 2 2 2 2 2 2 , , , , , 2 , 2 2 2 2 1 O ",
"1 2 , $ # $ $ % $ @ # $ % 2 2 2 2 2 2 2 2 2 2 2 2 2 2 2 2 - # $ # $ , 2 2 2 2 2 2 2 2 2 2 2 2 2 2 2 , $ $ $ # % 2 2 2 2 2 2 1 O ",
"1 2 , % $ % $ - - $ % $ % 2 2 2 2 2 2 2 2 2 2 2 2 2 2 2 2 - $ $ $ $ 2 2 2 2 2 2 2 2 2 2 2 2 2 2 2 2 1 % % % $ , 2 2 2 2 2 2 1 O ",
"1 2 2 2 1 2 2 2 2 2 2 3 T 3 T 2 2 2 2 2 2 2 2 2 2 2 2 2 2 2 2 2 2 3 3 3 2 2 2 2 2 2 2 2 2 2 2 2 2 2 2 1 2 2 2 T T T 2 2 2 2 1 O ",
"1 2 2 2 2 2 2 2 2 2 3 E E E E 3 2 2 2 2 2 2 2 2 2 2 2 2 2 2 2 2 E W E E E 2 2 2 2 2 2 2 2 2 2 2 2 2 2 2 2 2 T E E E 2 2 2 2 1 O ",
", 1 2 2 2 2 2 2 2 2 2 3 3 3 T 2 2 2 1 2 1 2 2 2 2 2 2 2 2 2 2 2 2 T 3 3 2 2 2 2 2 2 1 2 2 2 2 2 2 2 2 2 2 2 2 T 2 T 2 2 2 2 1 O ",
"$ % 2 2 2 2 2 2 2 2 2 2 2 3 0 R T R 2 $ $ $ % , 2 2 2 2 2 2 2 2 2 2 2 0 R 0 R 3 - $ $ $ - 2 2 2 2 2 2 2 2 2 2 2 2 , 2 2 2 , $ X ",
"# $ , 2 2 2 1 2 2 2 2 2 2 3 E E R E 2 # $ # # , 2 2 2 2 1 2 2 2 2 2 2 R E R R 3 % $ $ $ $ 2 2 2 2 1 1 2 2 2 2 2 2 2 2 2 2 , # X ",
", , 2 2 2 2 2 2 2 2 2 2 2 3 0 0 3 3 3 < < < , 2 2 3 2 3 3 3 3 2 2 2 3 0 0 0 3 3 2 * < - < 2 2 2 3 3 3 2 2 2 2 2 2 2 2 2 2 1 , o ",
"2 2 2 2 2 2 R E R E T 2 2 ^ <.<.<.P P <.2.G b b G o.2.<. .m m m } 3.2.2.2.<.2.2.2.] b b b b b P 2.4.4.( E 3 2 2 2 2 2 2 2 2 1 O ",
"2 2 2 2 2 2 3 E E R 3 2 2 ] p.<.>.P H o. .G F I U 5.7.1.U c c c U 7.7.7.1.>.<.5.>.H c c S H K U >.>.>.l R 3 2 2 2 2 2 2 2 2 2 + ",
", 2 2 - , , , 1 2 2 2 2 2 ] u.j x m m G L m I :.:.1.6.o.L m b t j G G G a 7 y b t 7 4 7 5 c S y 5 y t 2 2 2 2 2 2 3 3 3 2 2 1 O ",
"2 2 , # # # # , 2 2 2 2 2 ] w.b 6.d.g.z.V.c.h.h.j.V.C.C.n.w.8.l 2 2 3 R R R E 0 2 2 2 2 2 < & $ : S y 4 2 2 2 2 R E E E R 2 1 O ",
"1 2 2 % , % % , 2 2 2 2 2 ] w.b w.m.D.Y.T.Y.D.V.C.A.S.A.f.z k 3 2 2 2 0 0 3 0 2 < 2 < 2 2 , - % 4 D y < 2 2 2 2 3 T 3 3 3 2 1 O ",
"1 2 2 2 2 % % % , 1 2 2 2 ] u.I u.Z.T.R.I.P.x.X.X.X.X.[ ( , $ , 2 2 2 2 2 < - $ % % 1 2 2 2 2 2 7 1.H > % 2 2 2 2 2 1 % $ % $ X ",
"1 2 2 2 2 % @ $ % 1 2 2 2 ` u.I g.D.G.l.e.t.' 2 2 2 , # # # @ - 2 2 2 2 2 - # # # # , 2 2 2 2 2 q q.Y 4 $ 1 2 2 2 2 1 $ # $ # X ",
"2 2 2 2 2 2 , , 1 1 2 2 2 ] u.G z.A.y.< , 2 2 2 2 2 2 , , , , 1 2 2 2 2 2 2 - 2 , , 1 2 2 2 2 2 k u.:.7 1 1 2 2 2 2 1 , , , - o ",
"1 2 2 E R E E 3 2 2 2 2 2 m q.I i.b.t.3 2 2 2 2 R R E R T 2 2 2 2 2 2 2 2 2 2 2 2 2 2 2 1 2 E E ( u.:.q 2 2 2 2 2 2 2 2 2 2 1 O ",
"1 2 2 R R R R 3 1 2 1 2 2 k I c w.o.w 2 2 2 2 2 R R R R T 2 2 2 2 2 2 2 2 2 2 2 2 2 2 2 2 3 R E ( u.:.q 2 2 2 2 2 2 2 2 2 2 1 O ",
"2 2 2 2 2 2 2 2 2 2 1 , , t K F u.] 2 2 2 2 2 2 2 2 2 2 2 2 2 2 1 - - , - 2 2 2 2 2 2 2 2 2 2 2 p Y I t 2 2 1 - - , 1 2 2 2 1 O ",
", 2 2 1 2 2 2 2 2 2 , # # j 1.I | z 2 2 2 2 2 2 2 2 1 2 2 2 2 1 $ $ # # $ 2 2 2 2 2 2 2 2 2 2 ( +.I K p 2 2 1 $ $ $ - 2 2 2 1 O ",
"2 2 2 2 2 2 2 2 2 2 1 % % n i.I q < 2 2 2 2 2 2 2 2 2 2 2 2 2 2 - % - - - 2 2 2 2 2 2 2 2 2 / t.m.Y K q 2 1 1 - % % 1 2 2 2 1 O ",
"1 2 1 % % % - - % % % % - ` i.I q 2 2 2 2 2 2 1 , % % % % , % % - - 2 2 2 2 2 2 2 2 2 2 2 < t.F.N.,.K 7 , $ % , 2 2 2 2 2 2 2 + ",
"2 1 1 $ $ $ $ % % $ $ $ - ` i.K q 2 2 2 2 2 2 1 $ $ # # % % # $ # $ 1 2 2 2 2 2 2 2 2 f N e r.P.K.s.;.> # # # - 2 2 2 2 2 2 1 # ",
"1 2 1 - - - - 1 - - - * , v ,.H 6 2 2 2 2 2 2 1 , , , - , 1 , % - , 2 2 2 2 2 2 2 2 9 C Z V 9.P.U.g.:.7 , - , < 2 2 2 2 2 2 1 O ",
"1 2 2 2 2 2 2 2 2 2 3 R R ^ K H q 2 2 2 2 2 2 2 2 2 2 2 2 2 2 2 R R R R ..@.@.O.R 1 u %.&.%.0.Z.J.d.:.q 2 2 T R R R 2 2 2 2 1 O ",
"2 2 2 2 2 2 2 2 2 2 2 R R ^ K H q 2 2 2 2 2 2 2 2 2 2 2 2 2 2 2 R R W [ v.P.F.m.X.w t =.=.=.-.B.C.d.:.q 2 2 0 R E R 2 2 2 2 1 O ",
"- , 2 2 T 2 2 2 2 2 2 2 2 p K K k q q 6 4 < 6 w q q q q q q q w 0 8 ^ f.H.L.H.k.n.{ r =.=.-.-.M.B.d.Y q 2 2 2 2 2 2 2 2 2 1 - o ",
"O $ 1 2 2 2 2 2 2 2 2 2 2 p K I 6.w.w.6.F D Y w.w.w.w.w.9.w.w.w.>.H H  .2.4.<.,.a.:.J -.-.-.-.a.j.p.m 4 2 2 2 2 2 2 2 2 2 , # . ",
"$ % 1 2 2 2 2 2 2 2 2 2 1 ) 5.U :.,.,.Y x x m I 1.>.I L P P P H H K K x F K K K H c B =.*.*.=.;.P G y < 2 2 2 2 2 2 2 2 2 1 $ X ",
"1 1 2 2 2 2 2 2 2 2 2 2 2 ^ } b b v v j 6 4 4 t ^ f u 8 8 4 8 8 t v a q u v v a 9 4 i =.Z %.*.d 4 4 4 2 2 2 2 2 2 2 2 2 2 2 1 + ",
"2 2 2 2 2 2 2 2 2 2 2 2 2 1 2 2 2 2 2 2 2 2 2 2 2 2 2 2 2 2 2 2 2 2 2 2 T - 3 2 3 2 u &.Z $.*.9 2 2 2 2 2 2 2 2 2 2 2 2 2 2 1 O ",
"1 2 2 1 1 1 1 2 2 2 2 2 2 2 2 2 2 2 2 2 2 2 2 2 2 2 2 2 < 2 2 2 3 3 2 2 - T T - 2 2 u *.#.$.*.9 2 2 1 2 2 2 2 2 2 2 2 2 2 2 1 O ",
"1 2 , % % % % - 2 2 2 2 2 3 R R R T 2 2 2 2 2 2 - $ $ $ $ 2 2 2 - - 3 R R R R T 1 1 9 Z $.$.N * $ $ 1 2 2 2 2 1 T R R R R 2 1 O ",
"1 2 , $ $ % $ - 2 2 2 2 2 3 R E R R 2 2 2 2 2 2 - $ $ - - T 2 2 3 - T T T R E T 2 2 8 N &.$.= $ $ $ 1 2 2 2 2 2 0 E R R R 2 2 + ",
"1 2 1 1 - - - - 1 , 2 2 2 2 2 2 2 2 , , , 2 2 1 - - - - - - - 2 - T - T 2 T 2 - 1 , 2 9 N V 8 , - - - - , 2 8 8 2 2 3 2 1 , - O ",
"1 2 2 2 2 % $ $ $ $ 2 2 2 2 2 1 $ # $ # $ 2 2 2 2 2 - $ # $ # - T T - T - - $ # $ $ - 2 2 2 2 2 % $ % $ $ 8 g M 8 3 1 $ # $ # X ",
"1 2 2 2 2 % $ % $ $ 2 2 2 2 2 2 - % % $ - 1 2 2 2 2 2 # % % % - ; T T - T - % % $ $ 1 2 2 2 2 2 - $ % % ; g C Z g 2 1 % $ $ $ X ",
"2 2 2 T 3 3 3 2 2 2 2 2 2 2 2 2 1 1 2 T T T T T 2 T T T 2 2 2 2 2 2 2 2 2 2 - 2 ; T T T T 2 T T 3 3 2 2 s #.&.&.N - T - T - 2 # ",
"1 2 2 R E E E 3 2 2 2 2 2 2 2 2 2 2 T T E T E T T E E T T 2 2 2 2 2 2 T 2 2 T 2 R E T R T T R R R R 3 2 C =.=.=.A ; - T 2 2 - # ",
"2 2 2 T 3 3 T 2 2 2 2 2 1 1 1 2 2 1 2 T T T T T T T T T T 2 2 2 2 2 2 - - T 2 2 T T T T T 2 T T 3 3 2 2 C =.=.=.#.- T - 2 2 T # ",
"2 2 2 2 2 2 2 2 2 2 , $ % % % - 2 2 2 2 - T - 2 2 - T ; 2 2 2 2 % $ $ % % 2 2 2 2 2 2 2 2 2 2 2 2 2 2 2 C =.&.=.Z % - T 2 2 - # ",
"2 2 2 2 2 2 2 2 2 2 - $ $ $ O - 2 2 2 2 2 2 2 2 2 2 T 2 2 2 2 2 $ $ $ $ % 2 2 2 2 2 2 2 2 2 2 2 2 2 2 2 C =.$.&.Z % - 2 2 2 - $ ",
"1 2 2 2 , , 1 1 1 2 - % - , 1 2 2 2 2 2 2 2 2 2 T - - - 1 1 2 - - - - - - 2 2 2 2 2 2 2 2 2 - 2 - 2 3 - C $.N $.#.2 - 2 2 2 - # ",
"1 2 , $ $ $ $ , % $ $ $ % 2 2 2 2 2 2 2 2 2 2 2 $ $ $ $ - - # # $ $ 2 2 2 2 2 2 2 2 2 2 2 - $ $ $ $ - & C &.#.#.Z - T 2 2 2 3 # ",
"1 2 , $ $ % $ - % $ % % % 2 1 2 2 2 2 2 2 2 2 2 % % $ $ - - $ - $ % 1 2 2 2 2 2 2 2 2 2 2 - - - - $ - - C &.Z $.#.T - 2 2 3 - O ",
"1 2 1 1 1 1 1 2 - 2 2 3 3 0 3 2 2 2 2 2 2 2 2 2 2 2 2 - 2 2 2 - 2 T T T T 2 2 2 2 2 2 2 2 - 2 - 2 - - - f #.$.%.M T 2 ; T 2 1 # ",
"1 2 2 2 2 2 2 2 2 2 T R R R R 3 2 2 2 2 2 2 2 2 2 2 2 2 2 2 2 T T R E E T 2 2 2 2 2 2 2 2 T 2 2 T 2 T T 8 Z &.%.^ R T 2 2 2 - # ",
"1 2 2 2 2 2 2 2 2 2 T T T T R 3 2 2 2 2 2 2 2 2 2 2 2 2 2 2 T - T T T T T 2 2 2 2 2 T - 2 2 2 2 2 2 2 2 T i C h R T 2 2 T - - $ ",
"2 2 2 T T 2 2 1 2 2 2 2 3 3 2 2 2 2 2 2 2 2 2 2 2 2 2 2 2 2 ; 3 2 T 2 2 2 2 2 2 2 2 T T 2 2 2 2 2 2 2 2 T - T T ; 2 2 2 T T - o ",
"2 3 T W _ E 1 , 3 T T W ~ E T T - - T T T T T T T - 2 2 - 2 T T T _ ! R T T - T T T ! _ E T 2 - 2 - - T R T ! _ R T T - - T T X ",
"1 2 2 R E T $ $ , 2 2 T R T 2 2 $ $ - T 2 2 2 2 % $ % % - - 2 2 T E R 2 - - # - - T E E T - - # - $ - 2 - 3 R R T T - % $ - - X ",
"1 2 2 T E 2 $ $ 1 2 1 T R 3 2 1 % $ - 2 2 2 2 2 - $ % % # - - T 2 E T 2 T - # - 2 2 T R 2 2 % $ - $ $ 2 2 2 T E 3 - - % % 2 2 o ",
", 2 2 3 E 2 $ $ , 2 2 R R 3 2 1 % % - 2 2 2 2 2 2 $ % - # - T - T T R 2 2 - # - 2 2 T E 2 2 - # - $ - - 2 2 R R T 2 - $ $ 2 -   "
};
