/* XPM */
static char *result[] = {
/* columns rows colors chars-per-pixel */
"64 64 138 2 ",
"   c #0E0F15",
".  c #0F1218",
"X  c #12141C",
"o  c #161622",
"O  c #181726",
"+  c #171923",
"@  c #191926",
"#  c #191729",
"$  c #1D1B2C",
"%  c #1E1C30",
"&  c #201728",
"*  c #241C2D",
"=  c #2C1D2D",
"-  c #341B2B",
";  c #211E32",
":  c #2C1F31",
">  c #3E222F",
",  c #252235",
"<  c #2C2335",
"1  c #272438",
"2  c #29253A",
"3  c #2D2A3E",
"4  c #332233",
"5  c #3C2533",
"6  c #3E2833",
"7  c #332639",
"8  c #392539",
"9  c #312B3E",
"0  c #3A2B3E",
"q  c #411C2A",
"w  c #4A1B2B",
"e  c #571D2C",
"r  c #432633",
"t  c #4C2632",
"y  c #442832",
"u  c #4C2833",
"i  c #42273A",
"p  c #45293A",
"a  c #4D2D3B",
"s  c #532733",
"d  c #5A2732",
"f  c #542831",
"g  c #5B2831",
"h  c #5A3438",
"j  c #62232E",
"k  c #6B242F",
"l  c #652431",
"z  c #6E2731",
"x  c #632832",
"c  c #6C2831",
"v  c #612C3C",
"b  c #6A2D39",
"n  c #742731",
"m  c #7A2735",
"M  c #742832",
"N  c #7B2831",
"B  c #712E3A",
"V  c #7E293A",
"C  c #6B3436",
"Z  c #262A43",
"A  c #2A2D45",
"S  c #2B2F48",
"D  c #322E41",
"F  c #3C2E45",
"G  c #2C324D",
"H  c #343043",
"J  c #3A3144",
"K  c #32334B",
"L  c #3A354B",
"P  c #3C384D",
"I  c #2E3551",
"U  c #373751",
"Y  c #333953",
"T  c #3F3D51",
"R  c #343D5B",
"E  c #3B3D58",
"W  c #572E41",
"Q  c #453645",
"!  c #403E53",
"~  c #4B3D54",
"^  c #573C58",
"/  c #6F3340",
"(  c #773043",
")  c #37405D",
"_  c #39415C",
"`  c #3A4363",
"'  c #3D4868",
"]  c #4C4557",
"[  c #5A4057",
"{  c #434E6C",
"}  c #46516E",
"|  c #4C546C",
" . c #56516B",
".. c #4B5774",
"X. c #4D5A77",
"o. c #4E5A78",
"O. c #595C73",
"+. c #515D78",
"@. c #655D6C",
"#. c #57637F",
"$. c #66697A",
"%. c #822736",
"&. c #8B2735",
"*. c #842832",
"=. c #8A2833",
"-. c #812938",
";. c #912733",
":. c #952934",
">. c #9C2835",
",. c #932E39",
"<. c #9F2D38",
"1. c #96313C",
"2. c #9D333B",
"3. c #A42A36",
"4. c #A92D37",
"5. c #A42F39",
"6. c #AA2D38",
"7. c #B12F39",
"8. c #A3313B",
"9. c #A9323B",
"0. c #B5313B",
"q. c #BD353D",
"w. c #883041",
"e. c #814753",
"r. c #5C6A88",
"t. c #65718B",
"y. c #6B748C",
"u. c #707587",
"i. c #677591",
"p. c #6C7993",
"a. c #7686A1",
"s. c #8594AD",
"d. c #8B99B3",
"f. c #9EACC2",
"g. c #A2AFC5",
"h. c #A8B6CA",
"j. c #ACB9CD",
"k. c #B9C5D7",
/* pixels */
"; , , 1 3 ; + + ; , , 1 3 < , , + + ; , , , , , $ + @ % + $ , , , 3 3 ; ; $ + $ , , 2 3 , , $ + $ + @ , , , 3 < , ; % + + ; ; @ ",
"2 3 3 L ] 9 , ; 3 3 9 K _ 9 2 3 , ; 2 3 3 3 3 3 2 , , 2 ; , 3 3 D P P 9 3 3 % 1 3 3 P P 9 3 , ; 1 , ; 3 3 3 L _ 9 3 3 , , 3 3 X ",
", 2 1 3 H 3 @ % , 1 1 9 9 3 2 , $ $ , 1 , 2 2 2 , $ $ ; # , 2 2 2 D D 2 2 ; @ ; 2 2 9 9 3 1 $ + % $ $ , 2 2 9 9 3 1 1 $ $ , , X ",
", 2 2 3 9 2 % @ 1 1 2 9 9 3 2 2 $ $ < 2 2 2 2 2 , @ $ ; + , 2 2 2 H 3 2 2 ; @ , 2 2 9 H 2 2 % $ ; $ $ 2 2 2 9 H 3 1 1 @ $ < , X ",
"X @ + @ @ @ X X + X + + @ + + + X X + + @ @ @ @ + . X X X X + + + + @ + @ + . o + + @ @ @ @ X X X X X X @ @ + + + + X X X + X . ",
"+ $ * % % % $ * ; ; ; $ ; ; $ ; $ * $ % $ $ $ $ $ $ % * % ; * $ % % % % $ $ $ $ * $ $ % $ * # $ % % $ % * * % $ ; ; * % ; + X X ",
", 1 3 2 2 2 2 2 2 2 2 3 2 3 2 2 1 2 2 3 3 2 2 3 2 3 2 2 2 2 2 2 2 3 2 2 2 3 3 2 3 2 2 3 2 2 2 3 2 2 2 2 3 3 1 3 3 1 2 2 2 1 1 X ",
"1 1 1 < 2 2 2 2 2 2 1 1 1 , 1 2 3 1 1 1 2 2 2 2 2 2 1 2 2 2 2 2 2 , 1 1 1 2 1 1 1 2 1 2 2 2 2 2 2 2 2 2 1 2 1 1 1 1 1 2 2 3 2 @ ",
"2 2 2 2 2 2 2 2 2 2 , $ $ $ $ , 2 2 2 2 2 2 2 2 2 2 2 2 2 2 2 2 ; % * $ * 2 2 2 2 2 2 2 2 2 2 2 2 2 2 2 2 2 1 * % $ , 2 2 2 , @ ",
", 2 2 2 2 2 2 2 2 2 , $ $ $ $ , 2 2 2 2 2 2 2 2 2 2 2 2 2 2 2 , % @ $ $ $ 2 2 2 2 2 2 2 2 2 2 2 2 2 2 1 2 2 1 $ $ $ , 2 2 1 2 @ ",
"2 2 , , , , , 2 , 1 , , , , , 2 2 2 2 2 2 2 2 2 2 2 2 2 2 , , , , , , , 1 2 2 2 2 2 2 2 2 2 2 2 2 2 1 , 1 , ; , , , 2 2 2 2 , @ ",
"1 2 , $ $ # $ % % @ @ $ $ 2 2 2 7 i i p p p p i i i p p p 5 - * * : 4 2 1 8 p y i i p p p i i 2 2 2 1 $ $ # $ ; 2 2 2 2 2 2 2 + ",
"1 2 , $ $ $ % ; % $ * $ ; 2 2 2 h 2.<.<.9.9.9.<.;.>.9.9.8.5.=.f u C g u u N <.9.<.>.8.9.9.8.=.u 2 2 2 * $ $ $ ; 2 2 2 2 2 2 1 O ",
"1 2 2 2 2 2 2 2 2 2 2 3 3 3 3 3 6 2.=.N M M N M M N N N N N z N =.:.:.;.:.:.*.N N N *.N *.*.=.y 2 2 2 1 2 2 3 3 3 A 2 2 2 2 1 O ",
"1 2 2 2 2 2 2 2 2 2 3 H H H H 3 7 %.*.g y u u u g N N M u y u c N :.>.>.:.=.x u g N N N N N =.8 2 2 2 2 2 2 D D D H 3 2 2 2 1 O ",
", 2 2 2 2 2 2 2 2 2 2 3 3 3 9 2 2 N *.f 6 y f c *.>.;.c y y y s z N N *.N N g f N >.>.>.;.*.=.8 2 2 2 2 2 2 3 3 9 3 2 2 2 2 , O ",
"$ % 2 2 2 2 2 2 2 2 2 2 2 3 9 9 D -.>.x f f g *.>.>.:.n t k =.=.N N N N g u g z *.>.>.>.>.N &.8 2 2 2 2 2 2 2 2 2 , 2 2 2 , $ X ",
"$ $ 2 2 2 2 , 2 2 2 2 2 2 3 H D H -.>.x x M z =.>.>.:.n N :.>.>.;.N N N f 6 g N *.>.3.>.:.*.&.7 2 1 1 2 2 2 2 2 2 2 2 2 2 , # X ",
"; , 2 2 2 2 2 3 3 2 2 2 2 2 3 3 7 i %.N M x c 3.7.3.;.n g :.>.*.*.;.;.*.z f g N *.4.6.3.:.%.&.8 2 2 2 3 2 2 2 2 2 2 2 2 2 2 ; O ",
", 2 2 2 2 2 A D D D 3 2 2 2 1 1 2 2 m *.=.N N 6.7.>.:.N z :.>.N t n *.N N g g N *.3.3.>.>.%.&.8 3 D D D D 3 2 2 2 2 2 2 2 2 , @ ",
"1 2 2 2 2 2 9 H D D 3 2 2 2 2 2 2 2 m *.=.=.*.>.q.6.:.N *.>.9.N = - k N N f g N *.>.>.>.>.*.&.8 2 D D D D 3 2 2 2 2 2 2 2 2 , O ",
"1 2 1 ; , ; , 1 2 2 2 2 2 2 3 D 3 3 m :.:.=.N ,.q.0.:.N N >.3.m : + j N N c z N ;.>.>.>.:.N n : ; ; 2 2 2 2 2 2 3 3 3 3 3 2 2 O ",
"1 2 , $ $ # # , 2 2 2 2 2 9 D H H H N <.>.=.N :.q.0.:.=.*.:.-.W , + j N x g k N &.3.4.3.>.N k * $ # , 2 2 2 2 2 3 H H H D 2 , O ",
"1 2 , ; ; ; * , 1 2 2 2 2 3 3 3 9 v =.>.:.*.N =.0.7.3.:.*.:.m L 2 1 c n e t k N *.4.0.>.:.N z : ; ; , 2 2 1 2 2 3 9 3 3 3 2 1 O ",
"1 2 2 2 2 , $ $ ; 2 2 2 2 2 2 2 , ,.7.3.=.N n =.4.7.3.:.N :.N L _ y.e.N f f c N ;.4.7.>.:.N z 7 ; $ % % ; 1 2 2 2 2 1 ; $ ; $ X ",
"1 2 2 2 2 * $ $ % 2 2 2 2 2 2 1 # ,.q.6.*.N N *.4.7.>.=.*.:.M T G ~ B N f 6 g =.>.3.7.3.:.N n 7 % $ # # $ 1 2 2 2 2 , $ # # # X ",
"1 2 2 2 2 1 , , , 2 2 2 2 2 2 1 , 1.q.6.=.N *.=.4.7.:.N *.:.-.[  ./ M M f u x =.>.3.4.4.:.N k 7 2 , , , 1 1 2 2 2 2 1 , , , , o ",
"1 2 3 D H 9 H 3 2 2 2 2 2 2 2 2 2 2.q.6.*.N =.>.>.>.:.N N >.3.N ~ b N N f g N =.>.4.q.0.:.%.n 0 D D 2 2 2 2 2 2 2 2 2 2 2 2 1 O ",
"2 2 3 A D D D 3 2 2 2 2 2 2 2 2 2 ,.q.4.=.N =.3.3.>.:.N *.>.7.N 8 j N N g x N =.:.4.q.0.>.*.n F D D 2 2 2 2 2 2 2 2 2 2 2 2 1 O ",
", 2 2 2 2 2 2 2 2 2 1 ; ; , ; 1 2 %.7.4.*.n *.3.7.>.:.N *.>.7.*.> k N N n z N N =.4.q.0.>.:.z 7 2 3 2 2 2 2 1 ; , ; 2 2 2 2 1 O ",
"2 2 2 2 2 2 1 2 2 2 , # $ $ # , 2 -.3.>.c g N :.7.>.:.N N >.7.=.N ;.*.N N g g N =.4.q.0.>.>.z 7 1 2 2 2 2 2 , $ $ # ; 2 2 2 1 O ",
", 2 2 2 2 2 2 2 2 2 , % % % $ , 2 2.6.>.x d N ,.7.3.:.n N >.>.:.z ;.:.*.N f g N *.4.q.0.>.:.n 7 2 2 2 2 2 2 1 ; % ; , 2 2 2 1 O ",
"2 2 1 % % ; ; ; ; ; ; ; ; 2 2 2 3 1.0.=.g f N ,.7.>.=.f N >.>.N 5 k ;.*.N f g N N ,.q.0.3.:.z = * % , ; % % % , , 2 2 2 2 2 , O ",
", 2 , $ $ # $ ; $ # # $ $ 2 2 2 1 1.1.g y y g *.3.>.=.f N :.>.N 4 j N N N f g N N =.q.0.3.:.n * @ $ , $ $ # @ , 2 2 2 2 2 2 1 + ",
"2 2 2 ; ; ; ; , , ; ; , , 2 2 2 2 1.v 7 G J g =.>.>.;.z M *.:.m 4 k M N g y g n N :.q.0.>.*.z < , , , , , , , , 2 2 2 2 2 2 1 O ",
", 2 2 2 2 2 2 2 2 2 3 D D D D 3 2 i 7 Z K J g ;.7.>.=.d N N :.m - j q j f 6 y x N ,.q.0.:.N z 4 , 2 2 , 2 2 3 D H D 3 2 2 2 1 O ",
"2 2 2 2 2 2 2 2 2 2 3 D H D D 3 1 2 2 3 I L x >.3.:.M t M N N n < = & > y 6 6 g M :.q.0.:.M f 2 2 2 2 2 2 2 D H D D 3 1 2 2 1 O ",
", , 2 2 2 2 2 2 2 2 2 2 2 2 2 2 2 2 2 2 G P x =.>.:.z r s d M n F Z 2 A 7 6 y f N =.9.0.:.M y 2 2 2 2 2 2 2 2 2 2 2 2 2 2 1 ; o ",
"# $ , 2 2 2 2 2 2 2 2 2 2 2 2 2 2 2 , % I P g N =.N s p P ~ B B  .{ R ) _ _ Q f N =.0.0.:.M y < 2 2 2 2 2 2 2 2 2 2 2 2 2 , # . ",
"$ % 1 2 2 2 2 2 2 2 2 2 2 2 2 2 1 2 1 , G E y x z a 9 H I E ^ ^ E Y G G G G H g N :.0.4.:.N g 7 2 2 2 2 2 2 2 2 2 2 2 2 2 1 $ X ",
", 2 2 2 2 2 2 2 2 2 2 2 2 2 2 2 2 2 2 1 R ' H u t 4 $ * $ A R R Y ` +.t.r.} L f N *.>.>.:.M f 2 2 2 2 2 2 2 2 2 2 2 2 2 2 2 , @ ",
"2 2 2 2 2 2 2 2 2 2 2 2 2 2 2 2 2 2 2 Z ) ..K ] @.@., O O , R I R r.s.h.f.a.O.a c N *.>.*.g y 2 2 2 2 2 2 2 2 2 2 2 2 2 2 2 , O ",
", 2 2 2 2 2 2 2 2 2 2 2 2 2 2 2 2 2 2 2 _ ..) i.u.$.< w e 7 R I ..s.j.k.g.d.p.U a x M M g 5 < 2 1 2 1 2 2 2 2 2 2 2 2 2 2 2 2 O ",
"2 2 , $ $ $ $ ; 2 2 2 2 2 A 9 D A H 2 2 Y } P | * w l M ( F R I ..d.j.f.a.i...G P p f 5 8 , $ $ % $ , 2 2 2 2 2 A 9 D D 9 2 2 O ",
"1 2 1 # $ $ $ ; 2 2 2 2 2 3 H H H A 2 Z I ` I $ = m 5.a Y S ` R E #.i.t.} R R R ` G 1 2 Z , $ $ $ $ 1 2 2 2 2 1 9 D D D D 2 2 @ ",
"1 2 1 1 , ; ; ; , 1 2 2 2 2 3 2 1 2 , 1 S ' X.Y S a Q U Y Y } ' Y G G I Y Y R ..` Z 1 2 2 , , , ; ; 1 ; , 2 2 2 2 3 2 2 1 , , o ",
"1 2 2 2 2 ; % $ $ $ 2 2 2 2 2 , $ # # $ , G ' } ^ w. .X.X.o.' { o.} R ` X.X...` Z % 1 2 2 2 2 2 ; $ # # $ 1 2 2 2 2 , $ # $ $ . ",
"1 2 2 2 2 ; $ $ $ $ , 2 2 2 2 2 % * % % % 2 A J V V F S S S A A G A A A G A A Z ; % , 2 2 2 2 2 ; $ % % * 2 2 2 2 2 2 % $ $ $ X ",
"1 2 2 3 9 3 3 2 2 2 2 2 2 2 2 2 2 2 2 Z 7 A 3 3 0 0 D 3 2 2 2 2 2 2 2 2 2 2 2 2 3 3 3 3 3 2 9 3 3 3 2 2 2 2 2 2 2 2 2 2 2 2 ; # ",
"2 2 3 H D D D 3 2 2 2 2 2 2 2 2 2 2 2 D F D H 3 D D D D D 2 2 2 2 2 2 2 2 2 2 2 D H D H D 9 D D D D 3 2 2 2 2 2 2 2 2 2 2 2 2 # ",
"1 2 2 3 9 9 A 2 2 2 2 2 2 2 2 2 2 2 2 7 3 3 3 3 7 A 9 3 Z 2 2 1 2 2 1 1 2 2 2 2 3 3 3 3 3 2 A 9 3 3 2 2 2 2 2 2 2 2 : 2 2 2 1 O ",
"2 2 2 2 2 2 2 2 2 2 , $ $ $ $ ; 2 2 2 2 2 2 2 2 2 2 2 2 2 2 2 2 % % $ % % 2 2 2 2 2 2 2 2 2 2 2 2 2 2 2 2 2 ; $ ; $ ; Z 2 2 1 O ",
", 2 2 2 2 2 2 2 2 2 ; $ $ # # ; 2 2 2 2 2 2 2 2 2 2 2 2 2 2 2 2 % # $ # % 2 2 2 2 2 2 2 2 2 2 2 2 2 2 2 2 2 2 $ $ $ ; 2 2 2 ; # ",
"2 2 2 1 1 , 1 2 2 2 ; ; ; 1 1 2 2 2 2 2 2 2 2 : 2 , 1 1 1 1 2 : , ; , 1 ; 2 2 2 2 2 2 2 2 2 1 1 , 2 2 2 2 ; 2 ; ; ; 2 2 2 2 2 # ",
", 2 , $ $ $ $ ; ; $ $ $ ; 2 2 2 2 2 2 2 2 2 2 2 $ $ $ $ ; ; # $ # $ 1 1 2 2 2 2 2 2 2 2 2 ; # $ $ $ ; $ $ $ # ; 2 2 2 2 2 2 , O ",
"2 2 , $ $ $ % ; ; $ $ $ % 2 2 2 2 2 2 2 Z 2 2 2 ; $ $ $ ; ; $ $ % % 1 1 2 2 2 2 2 2 2 2 2 ; * $ $ $ 1 $ ; $ $ ; 2 2 2 2 2 2 2 O ",
"2 2 2 1 , 2 , 2 ; : 2 3 3 9 3 2 : 2 2 2 2 2 2 2 , 2 , 2 2 , 2 , 2 3 3 9 3 2 2 2 2 2 2 2 2 2 2 2 1 1 2 , 1 2 3 3 3 3 2 : 2 2 2 # ",
", 2 2 2 2 2 2 2 : Z D D D D D 3 2 2 2 2 2 2 2 2 2 2 2 2 2 2 2 2 D D D D D 2 2 2 2 2 2 2 2 2 2 2 2 2 2 2 2 3 D H D D 3 1 2 2 , # ",
"2 2 2 2 2 2 2 2 Z 2 2 7 9 D D 2 2 2 2 2 2 2 2 2 2 2 2 2 2 2 2 2 3 9 9 D 3 2 2 2 2 2 2 2 2 2 2 2 2 2 2 2 2 2 9 3 D 3 2 2 2 2 1 O ",
"2 2 2 2 A 3 2 2 2 2 2 Z 3 3 2 2 2 2 2 2 Z 2 2 2 2 2 2 2 2 2 2 2 2 A 3 2 2 2 2 2 2 2 3 3 2 2 2 2 2 2 2 3 2 2 3 3 3 2 3 2 2 2 , o ",
"2 3 3 P T H 1 , 3 3 3 L T F 3 3 : ; A D 9 9 A D 3 ; 2 3 ; 2 D A D T P D 3 3 ; 2 3 A L ! D 3 2 ; 2 , , 3 3 A L ! H 9 9 , , A 2 X ",
", 2 2 3 H 3 $ $ 2 2 2 9 D A 2 2 $ # ; Z 2 2 2 2 ; $ $ ; $ ; 2 2 2 D D 2 2 ; $ ; 2 2 D D 2 2 ; # ; $ $ 2 2 2 9 H 3 2 , $ $ 1 , X ",
", 3 2 9 H 2 $ $ , 2 2 3 H 3 2 , $ $ ; 2 2 2 2 2 1 $ * ; $ ; 2 2 3 D D 2 2 ; # ; 2 2 D D 3 2 $ $ ; $ $ 2 2 2 D D 3 1 1 # * 1 1 X ",
", 2 1 A H 3 $ $ , 2 2 3 H 3 2 2 $ $ 2 2 2 2 2 2 ; # % ; # ; 2 2 3 D D 2 2 ; $ ; 2 2 D D 2 2 ; # ; $ $ 2 2 2 D D 3 2 1 $ # 1 ,   "
};
