/* XPM */
static char *result[] = {
/* columns rows colors chars-per-pixel */
"64 64 178 2 ",
"   c #0E0F15",
".  c #0F1218",
"X  c #12141C",
"o  c #161622",
"O  c #181626",
"+  c #171923",
"@  c #191926",
"#  c #1A1729",
"$  c #1C1A2C",
"%  c #1E1D31",
"&  c #231C2C",
"*  c #2E1F2B",
"=  c #211E32",
"-  c #1F2036",
";  c #2B202F",
":  c #252235",
">  c #2C2333",
",  c #272338",
"<  c #29253A",
"1  c #25283F",
"2  c #2D2A3E",
"3  c #332635",
"4  c #3A2732",
"5  c #372937",
"6  c #3B2A34",
"7  c #322739",
"8  c #342A3B",
"9  c #3B2B3A",
"0  c #5F1F2D",
"q  c #442833",
"w  c #492B30",
"e  c #452F3A",
"r  c #492938",
"t  c #532A3B",
"y  c #5B293D",
"u  c #46333C",
"i  c #4A353E",
"p  c #563537",
"a  c #593535",
"s  c #5B3739",
"d  c #662A33",
"f  c #67293A",
"g  c #742A3C",
"h  c #623736",
"j  c #6A3637",
"k  c #653937",
"l  c #623C3A",
"z  c #6C3D3A",
"x  c #6A403C",
"c  c #73443C",
"v  c #7C473D",
"b  c #7B493F",
"n  c #262A41",
"m  c #2C2B41",
"M  c #2B2F48",
"N  c #322E41",
"B  c #2D334B",
"V  c #343043",
"C  c #33344B",
"Z  c #39364A",
"A  c #3A384C",
"S  c #3D3D52",
"D  c #383F58",
"F  c #4E3146",
"G  c #403E53",
"H  c #7B2F41",
"J  c #663944",
"K  c #3D4359",
"L  c #4F414F",
"P  c #5D444B",
"I  c #43465C",
"U  c #524553",
"Y  c #5E4F5A",
"T  c #734D47",
"R  c #62535D",
"E  c #785659",
"W  c #454C64",
"Q  c #5E4B61",
"!  c #4F5066",
"~  c #4C536B",
"^  c #53576C",
"/  c #545A6F",
"(  c #545C73",
")  c #6C5165",
"_  c #705F66",
"`  c #5C637B",
"'  c #796267",
"]  c #872A36",
"[  c #9A2936",
"{  c #863537",
"}  c #93303A",
"|  c #A62E39",
" . c #8A413C",
".. c #864C3F",
"X. c #873241",
"o. c #943544",
"O. c #894D41",
"+. c #8A5243",
"@. c #8A5749",
"#. c #8D594A",
"$. c #905444",
"%. c #935946",
"&. c #965E4C",
"*. c #985C48",
"=. c #864957",
"-. c #984754",
";. c #9A624F",
":. c #9D6654",
">. c #A4624A",
",. c #A6705E",
"<. c #815762",
"1. c #985462",
"2. c #955D70",
"3. c #866565",
"4. c #AB7664",
"5. c #B17B68",
"6. c #BA826C",
"7. c #5D6881",
"8. c #636C82",
"9. c #686F85",
"0. c #65718A",
"q. c #6B748A",
"w. c #727A8F",
"e. c #727C94",
"r. c #787E94",
"t. c #7C8194",
"y. c #76839C",
"u. c #7E8BA3",
"i. c #838395",
"p. c #88879C",
"a. c #94889B",
"s. c #AE8690",
"d. c #A18C9F",
"f. c #818EA5",
"g. c #8B97AD",
"h. c #9B94AA",
"j. c #8C9AB2",
"k. c #939DB3",
"l. c #AA94A5",
"z. c #B493A2",
"x. c #9EA0AF",
"c. c #95A1B7",
"v. c #94A3BA",
"b. c #98A5BB",
"n. c #9AA8BF",
"m. c #B7A6AC",
"M. c #ABA1B2",
"N. c #DA99A1",
"B. c #D7A5AB",
"V. c #EBABAF",
"C. c #9DABC1",
"Z. c #A1AEC4",
"A. c #A9B4C7",
"S. c #ACB9CD",
"D. c #B3B7C8",
"F. c #B2BFD2",
"G. c #D8BAC1",
"H. c #BBC2CF",
"J. c #BAC4D6",
"K. c #BBC6D8",
"L. c #BCC8D9",
"P. c #C2CCDD",
"I. c #C6D0DF",
"U. c #CCD2DD",
"Y. c #D3D2D7",
"T. c #CDD5E1",
"R. c #CFD8E5",
"E. c #D1D9E6",
"W. c #DBDEE5",
"Q. c #DDE3EC",
"!. c #E2E3E7",
"~. c #E2E7EE",
"^. c #E3E8EF",
"/. c #E6EAF1",
"(. c #E8ECF2",
"). c #F4F5F7",
"_. c #F7F8FA",
"`. c #FCFCFD",
/* pixels */
"= : : < 2 : + X : : : < 2 , : : @ + : : : : : : & o @ $ o $ : : : 2 2 : : $ + $ : : , < : : @ + $ + + : : : , < > : % + @ : & + ",
"< 2 2 Z K V : : < 2 2 Z K 8 2 < : : < 2 2 2 2 2 < : : , - , 2 2 8 K A 2 2 , % , 2 2 A K 2 2 : : < : : 2 2 2 A K 8 < 2 - : 2 2 X ",
": , < 2 8 2 $ @ : < < 2 8 2 < : $ @ , < , < , < , # % : @ : < < , V 2 < , % @ : < < m 8 < < $ @ : $ @ , , < 2 V 2 , , $ @ , : X ",
": < < 2 V 2 $ $ : < < 2 V 2 < , $ $ : < , < < < : @ @ : @ - < < < 8 N < < : + : < < N N < < $ $ - # $ < 2 1 8 8 2 < , @ $ , : X ",
"X @ o + @ @ X X + + @ @ @ + @ @ X X o + @ @ @ @ o . X o . o + @ + @ @ @ + o X X + @ @ @ @ @ X X X X . o @ @ @ $ @ @ + X X + X . ",
"o $ ; $ $ $ $ $ $ & % $ $ & $ % % & $ $ $ & $ $ % $ @ ; $ % & $ & $ % $ $ $ : $ $ $ ; $ $ & $ $ $ $ ; $ $ $ $ $ $ & $ $ & $ + . ",
": < < < 2 < < < 2 < < < < 2 2 < < < < < 2 < < < < < < < < < 2 < 2 < < < < 2 < < < 2 < < < < < < < 2 < < < 2 < < < 2 2 < < < , X ",
"< < < < < < < < < , , , , , , , < < < < < < < < < < < < < < , , , , , , , > < < < < < < < < < < < < < < < < , , , , , , < < , @ ",
", < < < < < < < 2 , : $ $ $ $ : < < < < < < < < < < < < < < < , % % % $ = < < < < < < < < < < < < < < < < < , $ $ $ : < < < : @ ",
", < < , < < < < < < : $ $ $ $ : < < < < < < < < < < < < < < < < % @ $ $ $ < < < < < < < < < < < < < < , < < , $ @ $ : < < < 1 @ ",
", < , : : : : , , , : : = , : , < < < < < < < < < < < < < , : : : : : , : < < < < < < < < < < < < < , , : : : : < < < < < < : @ ",
", < : $ $ # $ = $ @ @ $ % < < < < < < < < < < < < < < < < = # $ @ $ , < < < < < < < < < < < < < < < : $ $ $ # = < < < < < < , o ",
", < , $ $ = $ = = % $ $ = < < < < < < < < < < < < < < < < = $ $ $ $ < < < < < < < < < < < < < < < < , = $ % $ : < < < < < < , o ",
", < < < , < , < , < < 2 2 2 m < < < < < < < < < < < < < < < < < 2 2 m N 2 < < < < < < < < < < < < < , , < < 2 2 m 2 < < < < , # ",
", < < < < < < < < , 2 V N V V 2 < < < < < < < < < , < < < < < 2 8 V V V N < < < < < < < < < < < < < < < < < N V V N 2 , < < , O ",
": < < < < < < < < < < m 8 2 2 2 < < , < 8 s z #.#.#.#.#.@.#.#.#.#.#.#.#.#.#.#.@.l s 8 < < < < < < < < < < < < m 8 2 < < < < , @ ",
"$ & < < < < < < < < < , < 2 8 N N N < $ 3 k p z v s l c ....c s s v ........z h p j > $ % < < < < < < < < < , , , , < < < , $ X ",
"# $ , < < < < , , < < < < m N N N N : # 4 +.4 I i.e.r.t.i.i.t.~ m 3 * * * * & & a z * $ $ , < < < , , < , < 2 , , 2 < < < = # X ",
": , , < < < < 2 2 < < < < 2 2 2 2 < < : u *.4 B 8.F.F.J.H.F.C.u.g./ $ O O O O O a z 3 : , < < < < < 2 2 2 < < < < < < < 2 , = O ",
", , < < < < N N N N N < < < , , < < < < i *.4 1 2 w.L.P.L.S.v.Z.K.A./ n & O O # ..v 8 < < < < , 2 N N N N m < < < < < < , < , O ",
", < < < < < N N N N 8 , < < < < < < < < u *.6 1 $ ( L.L.S.c.Z.J.P.!.W.D.! n $ # %.v 8 < < < < < < N N N N 8 < < , < < < , 2 = # ",
"< , , = : = : : < < , < < 2 2 2 2 2 < < 9 x 6 1 @ 1 w.S.c.Z.L.P.!._.Q.P.S.~ n < *.v 9 < < : = : = = , < < < < < 2 2 2 2 2 , , O ",
", < : $ # # $ = < < < < < 2 V V V V < < 9 k L 0.n % ( v.Z.K.P.~._.Q.P.P.P.D./ S &.v 7 , < : # # $ # = < < < < < N N N V N , , O ",
", < , = = = = : , < < < < 2 m 8 2 2 < , 9 h U c.u.M W b.K.P.Q._.Q.I.L.P.P.(.!.Y.6...7 2 < : = = = = , < , , < < 2 m 2 2 8 2 , O ",
"< < < < < : $ $ : , < < < < < , = % % $ 3 x U n.Z.` C q.P.Q._.Q.P.P.P.I.(.`._.J.5.v 8 < < < < < = % % % = < < < , < , = & % $ o ",
", < < < < $ # $ % < < < < < < , $ # $ # 6 %.U g.q.F f 9.Q._.~.P.P.P.I.(._._.W.!.6. .3 , < < < < $ # # # $ , < < < < , # # # O X ",
", < < < < < : : : < < < < < < , : : : : u *.L 0.C y g q.~.~.P.P.L.I./.`._.W./.A.4.T 5 < < < < < , , , : , , < < < < , : : : = o ",
", < 2 N N V N 2 < < < < < < < < < < < < F &.u C y [ g C t.P.L.P.I./.`._.Q.(.E.b.4. .8 < , 2 N V N N < < < , < < < < 2 , < < , O ",
", < < V N N N 2 < < < < < < < < < < < < F >.x L o.| o.n ` S.P.I.(.`._.Q./.R.J.v.4.v 7 < , 8 N N N N 2 , < < < < < < < < < < , O ",
", < < < < < < < < < , = = : : : < < < < i >.E j.a.=.X.- , r.I.^.`._.W.^.E.J.b.j.4.v 8 , < < < 2 2 < < , < < , = = : , < < < , @ ",
"< < < , < < < < < < : # $ # # : < < < < i ;.E H.).m.w : $ ` U.`._.Q.^.E.J.v.v.j.4.v 8 < < < , , , , < < < < : $ $ $ = < < < , o ",
", < < < < < < < , < , % = % $ : < < < < u $.' _.~.z.] q @ = i.!.!.^.E.J.h.a.D.b.4...8 < < , < < , 2 < , < , , = = % , < < < , # ",
", < : % = = = : = = = = = < < < < < < < 9 v 3.Q.P.l.| } * O % 8.T.E.D.a.-.[ s.h.4.v 8 < < : = % & % : = % : $ : < < < < < < , O ",
", < : # # # # = $ # # # % , < < < < < < i ..U n.P.x.<.-.q # # % 9.M.1.] [ [ ] 9.,.v 9 < < = $ # $ # : # # # @ % < , < < < < , O ",
", < , : : : = , : = = , : < < < < < < < 9 k U n.P.P.~.V.} * # B W J t 8 f r = M *.v 8 < < : = : : : : : : : : , < < < < < < , O ",
", < < < < , < < < < 2 N N N N < < < < < 9 k U n.I.~.`.B.g = n 7.v.e.~ B 1 M = G :.v 8 < < < < < , < < , < < m N N N 2 < < < , O ",
"< , < < < < < < < , 2 N V N N 2 < < < < 9 b U Z.~.`._.G.1.F D e.A.S.u.D % D ~ u.4.v 8 < 2 < < < , < < < < < N V N N 2 , < < , O ",
": : < < < < < < < < < < < < 2 < < < , : u *.Y I.`._.~.~.N.H 7.C.f.0.D # 1 e.C.j.4.v 5 : : , < < < < < < < < < < < < < < < , : o ",
"# $ , < < < < < < < < < < < < < < < : # 6 *._ `._.~.Q.T.d.P ` y.D = # $ W j.F.b.4.v ; # $ , < < < < < < < < < < < < < < < : o X ",
"$ $ , < < < < < < < < < < < < < < < , $ e *._ _.Q.Q.T.C.p.Q W K % # # % ~ k.F.b.4.v ; % = , < < < < < < < < < < < < < < < , $ X ",
", < , < < < < < < < < < < < < < < < < , F %.R U.Q.T.n.b.l.) 1 # # O O O 1 e.C.k.4.z 2 , , < < < < < < < < < < < < < < < < < : @ ",
", < < < < < < < < < < < < < < < < < < < i ;.R P.J.C.y.8.w.~ # O O O o O $ I ^ ^ :.p 2 < < < < < < < < < < < < < < < < < < < , O ",
", < < < , < < < < < < < < < < < < , , < e v P s.2.2.=.J T T a w w w f d 0 0 j c >.z 3 < < < < < , , , < < < < < < < < < < < , O ",
", < , $ $ $ $ : < < < < < m N N V 8 2 , 6 z h c { d g X.+.O.l k c s z f { { ..$.b p 7 < < : $ $ $ % , < < < < , m N N N 8 < < O ",
", < : $ $ $ $ = < < < < < 8 V V N N 2 < 7 e e e 9 * 3 q q r 7 F w 9 7 8 u i i i 5 > < < < : $ # $ $ , < < < < < 8 N N N N < , @ ",
", < < : : : = = : , , < < < < < < < : , : < < < 7 = = = % = = = < , < 2 2 2 , , , : , < < , : : = = , = : < < < 2 2 2 , , , : o ",
", < < < < = $ $ $ $ , < < < , , $ # @ @ % < < < n = = # # % # = < < < < , = $ # $ $ : < < < < < = $ $ # $ , < < , , , $ # $ @ X ",
"< < < , < = $ $ $ % , < < < < , : $ $ @ : < > < < m = # % % % = < < < < , = & $ $ $ : < < < < , = $ $ % % , < < < < , $ % $ $ X ",
", < < 2 8 2 2 < < < < < < < < < < < < 2 2 2 m 7 2 2 2 2 < < < < < < m = m = < < < 8 m m < 2 m 8 2 2 < < < < < < < < < < < < , # ",
", < 2 V V N V 2 < < < < < < < < < < < C V V V m N V V V N < < < < m = m < < < < N V N N N 8 N V N N 2 < < < < < < < < < < < , O ",
"< < < 2 2 2 2 2 , < < < , , < , < < < < 2 m m 7 2 2 N 2 2 < < < = m = 7 = m < < m 8 m 8 m < m m 2 N < , < < < = < , , < < < , O ",
", < < < < < < < < < : $ $ % $ : < < < < = 2 < < < < 2 = < < < < = = = = = = < < < < < < < < < < , < < < < < < = % $ = < < , , O ",
", < < < < < < < < , = # $ $ # = < < < < < < < < < < 2 < < < 2 < & # & # = = m < < < < < < < < < , 2 < < < < < % # $ = < < < , # ",
", < < , < : , < , , , = = , , , < < < < < < < < < = = < = < = < = = = = = < < < < < < < < < = < = , , , , , = = = , < < < < , O ",
", < : $ $ $ $ = = $ $ $ = < , < < < < < < < < < = # # # = = = # # = < < m < < < < < < < < = $ $ & $ = $ $ # $ = 2 , < < , , , O ",
", < , $ $ $ $ = = $ % $ = < , < < < < < < < < < = % = # = = % # = = = < = < < < < < < < < = $ = % $ = = & % $ = < , , < < 2 , O ",
"< < < = , , , , = , , 2 8 m 8 < < < < < < < < < < < < = < < < = < m N m < 2 < < < < < < < , , , , , , , , < 2 2 8 m < < < < = # ",
"< < < < < < < < < < 2 N N N N m < < < < < < < < < < < < < < < < N V N N N = < < < < < < , 2 < < < < < < < 2 N V N N 8 , < < , # ",
", < < < < < < < < , < m m N N < < < < < < < < < < < < < < < < < m N N N m < < < , , < , < < < < < < < < < < 2 m N m < < < < , O ",
", < < 8 m 2 < , < 2 < 8 2 < 2 < < < < < < < < < < < < < < < < < = N < < 2 < < < 2 < 2 2 2 , < < < < < 2 < < 2 m 2 , < < < < , o ",
"2 N N Z G N , , 2 N m Z G V N 2 = = m N N N N N < = < < = < N N N G A N m < = 7 m m A G N 8 , = < : : 8 2 8 A S V 2 2 : : 8 < X ",
": , , 2 N 2 $ $ = < , m N m , , & % < < < < = < = = = = # = < < < C N < < = & = < < N N n , = $ = $ % , < < N V 2 < : $ $ , , o ",
", < < N N 2 $ $ , 2 , N N 2 2 , # # = < < < < < = % = = & = = 2 < N N < < = # = < < N N 2 , % # = $ $ , < < N N 2 , , $ $ , , X ",
"= < , m N < $ $ , , , N N 8 , , = = = < < < < m = # # = # = N = m N N < < = # = < < 8 N 2 , = # = $ $ , < < N N 2 < : $ $ , :   "
};
