/* XPM */
static char *result[] = {
/* columns rows colors chars-per-pixel */
"64 64 236 2 ",
"   c #0E0F15",
".  c #0F1218",
"X  c #101319",
"o  c #10121A",
"O  c #10131A",
"+  c #10121B",
"@  c #11131B",
"#  c #11131C",
"$  c #12131C",
"%  c #12131D",
"&  c #12141C",
"*  c #12141D",
"=  c #13141D",
"-  c #12151D",
";  c #13151D",
":  c #13151F",
">  c #14151F",
",  c #15151F",
"<  c #141520",
"1  c #151521",
"2  c #161622",
"3  c #161623",
"4  c #161723",
"5  c #171724",
"6  c #181725",
"7  c #181726",
"8  c #181727",
"9  c #171923",
"0  c #171824",
"q  c #181924",
"w  c #181825",
"e  c #191825",
"r  c #181925",
"t  c #191925",
"y  c #181826",
"u  c #191826",
"i  c #191926",
"p  c #191827",
"a  c #191927",
"s  c #1A1927",
"d  c #191A26",
"f  c #1B1B27",
"g  c #1D1D27",
"h  c #191729",
"j  c #1A172A",
"k  c #191828",
"l  c #191829",
"z  c #191929",
"x  c #1A1928",
"c  c #1A1929",
"v  c #1B1B28",
"b  c #1A182A",
"n  c #1B182A",
"m  c #1A192A",
"M  c #1B192A",
"N  c #1A182B",
"B  c #1B182B",
"V  c #1A192B",
"C  c #1B192B",
"Z  c #1B1A2B",
"A  c #1C1B29",
"S  c #1C1B2A",
"D  c #1E1D2B",
"F  c #1B192C",
"G  c #1B1A2C",
"H  c #1C192C",
"J  c #1C1A2C",
"K  c #1D1A2C",
"L  c #1C1B2C",
"P  c #1C1A2D",
"I  c #1D1A2D",
"U  c #1D1B2D",
"Y  c #1E1B2D",
"T  c #1D1B2E",
"R  c #1E1A2E",
"E  c #1E1B2E",
"W  c #1E1B2F",
"Q  c #1E1D2C",
"!  c #1F1D2D",
"~  c #1F1E2C",
"^  c #1D1C2E",
"/  c #1E1C2E",
"(  c #1F1C2E",
")  c #1E1C2F",
"_  c #1F1C2F",
"`  c #1F1D2F",
"'  c #1F1C30",
"]  c #1F1D30",
"[  c #211E2F",
"{  c #201F2F",
"}  c #201C30",
"|  c #201D30",
" . c #201D31",
".. c #211D31",
"X. c #201E30",
"o. c #211F30",
"O. c #201E31",
"+. c #211E31",
"@. c #221F30",
"#. c #221F31",
"$. c #211E32",
"%. c #211F32",
"&. c #221E32",
"*. c #221F32",
"=. c #221E33",
"-. c #221F33",
";. c #231F33",
":. c #231F34",
">. c #222031",
",. c #232032",
"<. c #222033",
"1. c #232033",
"2. c #242132",
"3. c #242033",
"4. c #242133",
"5. c #232034",
"6. c #242034",
"7. c #242134",
"8. c #252134",
"9. c #242035",
"0. c #242135",
"q. c #252135",
"w. c #252234",
"e. c #252235",
"r. c #252335",
"t. c #242136",
"y. c #252136",
"u. c #252236",
"i. c #262236",
"p. c #262336",
"a. c #262237",
"s. c #262337",
"d. c #272337",
"f. c #272436",
"g. c #272437",
"h. c #282437",
"j. c #272338",
"k. c #272339",
"l. c #272438",
"z. c #272538",
"x. c #272439",
"c. c #282338",
"v. c #282339",
"b. c #282438",
"n. c #282538",
"m. c #282439",
"M. c #282539",
"N. c #292539",
"B. c #292639",
"V. c #2A2739",
"C. c #28243A",
"Z. c #29243A",
"A. c #29253A",
"S. c #29253B",
"D. c #2A253B",
"F. c #29263A",
"G. c #29273A",
"H. c #2A263A",
"J. c #2A273A",
"K. c #2B273A",
"L. c #2A263B",
"P. c #2B273B",
"I. c #2A263C",
"U. c #2A273C",
"Y. c #2B273C",
"T. c #2B273D",
"R. c #2A283A",
"E. c #2B283A",
"W. c #2C283B",
"Q. c #2B283C",
"!. c #2B2A3D",
"~. c #2C283C",
"^. c #2C293C",
"/. c #2D293C",
"(. c #2C283D",
"). c #2D283D",
"_. c #2C293D",
"`. c #2D293D",
"'. c #2C2A3D",
"]. c #2D2A3D",
"[. c #2E2A3D",
"{. c #2C283E",
"}. c #2C293E",
"|. c #2D293E",
" X c #2E293E",
".X c #2C2A3E",
"XX c #2D2A3E",
"oX c #2D2A3F",
"OX c #2E2A3E",
"+X c #2F2B3E",
"@X c #2E2A3F",
"#X c #2E2B3F",
"$X c #2F2B3F",
"%X c #2F2C3F",
"&X c #302C3F",
"*X c #2F2B40",
"=X c #2F2C40",
"-X c #302C40",
";X c #312D40",
":X c #312D41",
">X c #312E41",
",X c #322E41",
"<X c #332E41",
"1X c #332F41",
"2X c #312D42",
"3X c #312E42",
"4X c #322E42",
"5X c #322F42",
"6X c #332F42",
"7X c #322F43",
"8X c #332F43",
"9X c #342F42",
"0X c #333043",
"qX c #343042",
"wX c #343043",
"eX c #333044",
"rX c #343144",
"tX c #353144",
"yX c #343045",
"uX c #343145",
"iX c #353246",
"pX c #373549",
"aX c #383549",
"sX c #38364A",
"dX c #39364A",
"fX c #3A374B",
"gX c #3A384C",
"hX c #3B394D",
"jX c #3E3C50",
"kX c #3F3C50",
"lX c #3E3C51",
"zX c #3E3D51",
"xX c #3F3D51",
"cX c #3F3E51",
"vX c #3F3E52",
"bX c #403E53",
/* pixels */
"o.4.4.B..Xr.d t @.4.3.B..Xg.4.,.d t o.7.4.4.4.4.[ r f Q 9 Q 3.4.r.'.R.4.4.! 9 D 4.4.J.'.r.2.v q Q r d ,.4.4.G.!.f.1.#.t i >.{ g ",
"J. X@XaXcX7X;.1.~.OXXXpXxXuX|._.5.-.P.OXOXOXOX@XH.%.7.z.O.M.OX|.2XjXgX#XOXM.O.b.OX@XfXjX3X|.0.$.l.-.5.`. XOXfXkXeX`.Q.<.1.(.V.; ",
"e.m.C.OX9XP.H C a.C.m.OX6X).C.j.I C u.C.C.C.C.A.0.N E $.h -.C.C.L.,X-XA.C.-.h $.m.A.$X<XL.m.W b $.F I j.C.A.&X6XY.m.a.C J j.q.= ",
"w.C.S.@X8XP.J Z a.A.C.@X6X`.C.k.K C i.A.C.C.C.S.t.M Y &.h -.A.C.I.4X-XA.A.-.l &.A.A.*X4XL.C.E b %.C K k.C.A.*X4XY.C.a.Z J j.7.& ",
"> u e a x w # @ 5 u y a s i u 6 # @ 4 u u u u u 2 + * < o 1 y y y a p y y 1 o < w y p s y 6 * o < @ $ 6 u u a s u y 5 @ @ 0 < . ",
"3 A ~ Q Q Q Q Q Q Q Q Q Q Q Q Q Q Q Q Q Q Q Q Q Q Q Q Q Q Q Q Q Q Q Q Q Q Q Q Q Q Q Q Q Q Q Q Q Q Q Q Q Q Q Q Q Q Q Q Q Q S 2 X ",
"q.N.L.L.L.L.D.D.L.L.L.I.I.I.I.L.D.D.L.L.L.L.L.L.L.D.D.L.D.L.L.L.L.I.I.I.I.L.D.L.L.L.L.L.L.L.D.D.L.D.D.L.L.L.L.I.I.I.L.D.D.A.0.: ",
"l.N.N.N.N.N.N.N.N.N.m.j.j.j.d.m.N.N.N.N.N.N.N.N.N.N.N.N.N.N.N.m.b.j.j.j.j.N.N.N.N.N.N.N.N.N.N.N.N.N.N.N.N.N.m.j.j.j.b.N.N.N.j.6 ",
"l.A.A.A.A.A.A.A.A.A.y.U U E U q.A.A.A.A.A.A.A.A.A.A.A.A.A.A.A.m.| U E E | m.A.A.A.A.A.A.A.A.A.A.A.A.A.A.A.A.j.( E E q.A.A.A.j.7 ",
"l.A.A.A.A.A.A.A.A.L.y.H J J C 5.A.A.A.A.A.A.A.A.A.A.A.A.A.A.A.M._ H J J / m.A.A.A.A.A.A.A.A.A.A.A.A.A.A.A.L.j.I H J 0.A.A.A.j.7 ",
"l.A.l.u.u.e.u.s.a.u.0.:.9.d.s.m.A.A.A.A.A.A.A.A.A.A.A.A.A.s.e.q.:.;.i.d.j.A.A.A.A.A.A.A.A.A.A.A.A.A.m.u.u.u.0.0.s.s.m.A.A.A.j.7 ",
"l.A.0.C C b m $.T b C B _ m.A.A.A.A.A.A.A.A.A.A.A.A.A.A.A.+.b B b H a.A.A.A.A.A.A.A.A.A.A.A.A.A.A.A.a.J C C b ..A.A.A.A.A.A.j.7 ",
"l.A.i./ / E / <. .T / / +.m.A.A.A.A.A.A.A.A.A.A.A.A.A.A.A.;.E E E _ d.A.A.A.A.A.A.A.A.A.A.A.A.A.A.A.j._ / / E <.A.A.A.A.A.A.j.7 ",
"l.A.m.m.m.m.m.m.m.m.F.`.[.OXOXP.A.A.A.A.A.A.A.A.A.A.A.A.A.m.m.M.~.[.OXOX`.A.A.A.A.A.A.A.A.A.A.A.A.A.A.m.m.M.~.[.OXOXL.A.A.A.j.7 ",
"l.A.A.A.A.A.A.A.A.m.`.wXwXwXtX`.m.A.A.A.A.A.A.A.A.A.A.A.A.A.A.H.:XtXwXwX,XA.A.A.A.A.A.A.A.A.A.A.A.A.A.A.A.A.:XwXwXwX(.m.A.A.j.7 ",
"d.m.A.A.A.A.A.A.A.A.L.|.OXOX$XP.A.N.m.M.M.N.N.m.A.A.A.A.A.A.A.A.(.OXOX@X`.A.A.A.m.N.N.M.A.A.A.A.A.A.A.A.A.A.(.OXOX|.L.A.A.A.s.6 ",
"K _ v.A.A.A.A.A.A.A.A.m.A.`.;X:X;X;Xj.E E E E 6.A.A.A.A.A.A.A.A.m.m.L.;X;X;X,X`. .E E U | m.A.A.A.A.A.A.A.A.m.m.m.m.A.A.A.q.J % ",
"c U j.A.A.A.m.m.m.m.m.A.A.+XqX6X6X4Xd.C C C Z <.A.A.A.A.m.m.m.m.A.m.Y.6XqX6XqX[./ C C m E x.A.A.A.m.m.m.m.A.A.A.A.A.A.A.A.0.k @ ",
"1.u.m.A.A.A.P.Y.Y.Y.L.A.A.P.~.~.~.P.m.q.q.y.y.j.A.A.A.H.~.Y.Y.W.A.C.H.W.~.~.~.L.i.y.y.q.u.A.A.A.A.P.Y.Y.Y.L.A.A.A.A.A.A.A.b.1.3 ",
"l.A.A.A.A.H.,X6X6X6X&XC.A.N.N.N.N.N.A.A.A.A.A.A.A.A.m.`.qX6X6X1XY.m.A.N.N.N.N.A.A.A.A.A.A.A.A.m.P.,X6X6X6X+XA.A.A.A.A.A.A.A.l.w ",
"l.A.A.A.A.L.;X,X,X,X+Xm.A.A.N.N.N.N.A.A.A.A.A.A.A.A.A.`.4X:X,X:XP.m.A.N.N.N.N.A.A.A.A.A.A.A.A.A.P.:X,X,X,XOXA.A.m.m.m.m.m.A.j.7 ",
"l.A.j.;.;.;.6.d.A.A.N.A.A.Y.OXOXOX`.H.A.A.A.A.m.6.;.;.;.e.N.A.A.A.A.L.|.OXOXOXY.A.A.A.A.A.a.;.;.;.5.l.A.A.A.A.A.(.OXOXOX|.A.j.7 ",
"l.A.q.C C b C :.A.A.A.A.A.$XwXwXwX6XY.A.A.A.A.b.U b C B _ m.A.A.A.m.Y.6XwXwXtXOXA.A.A.A.S.-.b C m M u.A.A.A.A.N.-XwXwXwX4XL.j.7 ",
"l.A.s.$.$... .y.m.A.A.A.A.~.+X+XOXOXF.m.A.A.A.m.-.+.+. .;.l.M.M.A.m.L.OX+XOX+XP.m.m.m.A.A.u.+.+. .| p.M.m.m.A.N.`.$XOXOX[.A.s.6 ",
"l.A.A.A.A.-.) ) -.m.A.A.A.A.A.m. ._ _ ) %.M.A.A.A.A.a.) ) ) _ 5.S.A.A.A.A.0._ ) ) _ a.A.A.A.A.m.=.) ) )  .l.A.A.A.A.j.| _ _ U ; ",
"l.A.A.A.A.] b b ' M.A.A.A.A.A.j.P b b j E A.A.A.A.A.y.b b b b $.S.A.A.A.A.-.b b b M 0.A.A.A.A.m._ b b b J j.A.A.A.A.a.C b N k O ",
"l.A.A.L.L.l.i.e.s.M.A.A.A.A.A.m.u.0.0.0.a.M.A.A.H.L.A.i.i.0.0.s.A.A.A.A.A.j.0.0.0.q.j.A.A.A.L.H.g.i.q.0.u.m.A.A.A.A.m.u.0.0.1.2 ",
"l.A.Y.6X6X6X6X[.A.A.A.A.A.A.A.A.A.F.F.F.A.A.C.A.;X6X6X6X-XL.A.A.A.A.A.A.A.A.F.F.F.A.A.A.m.`.4X6X6X6XY.F.A.A.A.A.A.A.A.A.F.F.j.7 ",
"l.A.Y.4X4X4X,X`.m.A.A.A.A.A.A.A.A.A.A.A.A.A.m.A.-X4X4X4X$XA.A.A.A.A.A.A.A.A.A.A.A.A.A.A.m.`.4X4X4X4XY.A.A.A.A.A.A.A.A.A.A.A.j.7 ",
"l.A.A.L.L.L.L.A.A.A.j.:.5.5.;.a.A.A.A.A.A.A.A.A.L.L.L.L.A.A.A.M.0.:.5.5.0.m.A.A.A.A.A.A.A.A.L.L.L.L.A.A.A.A.l.5.5.5.j.A.A.A.j.7 ",
"l.A.A.m.m.m.m.m.A.A.0.b b m l ;.A.A.A.A.A.A.A.A.m.m.m.m.A.A.A.m.E j b m U m.A.A.A.A.A.A.A.m.m.m.m.m.A.A.A.A.a.F m V 6.A.A.A.j.7 ",
"l.A.M.A.A.A.A.A.m.A.a. .| | ` e.A.A.A.A.A.A.A.A.m.A.A.A.m.N.A.m.-.] | X.*.A.A.A.A.A.A.A.A.N.N.A.A.A.M.m.A.A.j.+.X.+.a.A.A.A.j.7 ",
"l.A.s.X.X.| | 0.*.| |  .-.m.A.m.A.A.A.A.A.A.A.m.$.| X.| <.5.| X.| +.j.A.N.A.A.A.A.A.A.A.A.q.| X.X.X.q.+.X.X.| 9.A.A.A.A.A.A.j.7 ",
"l.A.0.m m m m +.U b m b E b.m.A.A.A.A.A.A.A.A.l.U b m b _ | b m b C i.m.m.A.A.A.A.A.A.A.D.*.b m m m -.C m m h | Z.m.A.A.A.A.j.7 ",
"l.A.j.5.5.5.5.i.0.:.6.q.p.L.L.A.A.A.A.A.A.A.A.m.9.5.5.:.q.i.5.5.7.e.A.L.L.A.A.A.A.A.A.A.A.s.:.5.5.5.a.5.5.5.7.g.L.L.A.A.A.A.j.7 ",
"l.A.A.A.A.A.A.A.A.m.~.,X4X4X4X(.m.A.A.A.A.A.A.A.A.A.A.A.A.A.A.A.-X6X4X4X-XA.A.A.A.A.A.A.A.A.A.A.A.A.A.A.A.A.-X4X4X,X(.m.A.A.j.7 ",
"b.A.A.A.A.A.A.A.A.m.~.,X6X6X6X(.m.A.A.F.F.F.F.A.A.A.A.A.A.A.A.A.&X6X6X6X;XA.A.A.A.F.F.F.F.A.A.A.A.A.A.A.A.A.&X6X6X,X~.m.A.A.j.7 ",
"1.u.m.A.A.A.A.A.A.A.A.L.L.L.L.A.A.A.l.0.0.0.0.j.A.A.A.A.A.A.A.A.H.L.L.L.H.A.A.A.u.0.0.0.u.m.A.A.A.A.A.A.A.A.H.L.L.L.A.A.A.j.1.2 ",
"k H j.A.A.A.A.A.A.A.A.A.A.A.A.A.A.A.0.C b b N *.A.A.A.A.A.A.A.A.A.A.A.A.A.A.A.A.E b b b U b.A.A.A.A.A.A.A.A.A.A.A.A.A.A.A.6.8 O ",
"U | j.A.A.A.A.A.A.A.A.A.A.A.A.A.A.A.i.' ) ) _ 0.A.A.A.A.A.A.A.A.A.A.A.A.A.A.A.A.+.) ) ) +.m.A.A.A.A.A.A.A.A.A.A.A.A.A.A.A.u.L ; ",
"s.m.M.A.A.A.A.A.A.A.A.A.A.A.A.A.A.A.A.M.M.M.M.M.A.A.A.A.A.A.A.A.A.A.A.A.A.A.A.A.m.M.M.M.M.A.A.A.A.A.A.A.A.A.A.A.A.A.A.A.A.M.s.6 ",
"l.A.A.A.A.A.A.A.A.A.A.A.A.A.A.A.A.A.A.A.A.A.A.A.A.A.A.A.A.A.A.A.A.A.A.A.A.A.A.A.A.A.A.A.A.A.A.A.A.A.A.A.A.A.A.A.A.A.A.A.A.A.j.7 ",
"l.A.m.m.m.m.m.A.A.A.A.A.A.A.A.A.A.A.m.A.A.A.A.M.m.m.m.m.m.m.A.A.A.A.A.A.A.A.A.A.A.A.A.A.A.N.m.m.m.m.m.A.A.A.A.A.N.A.A.A.A.A.j.7 ",
"l.A.u.E E R R 6.A.A.A.A.A.OX,X,X,X;XL.m.A.A.A.l.] U E I | m.A.A.A.m.Y.:X,X,X,X`.C.A.A.A.A.5.U E E U i.A.A.A.A.m.$X,X,X,X;XA.j.7 ",
"l.A.e.J Z H J 5.D.A.A.A.A.OX6X6X8X4XY.A.A.A.A.l.E C Z C ] M.A.A.A.m.Y.,X6X6XwXOXA.A.A.A.D.;.Z Z G F u.A.A.A.A.m.&XqX6X8X4XL.l.w ",
"l.A.m.u.i.5.%.6.u.u.m.A.A.L.Y.P.n.b.i.0.i.A.A.m.i.u.q.-.-.q.q.j.A.C.A.W.P.H.h.p.u.q.l.A.A.l.u.u.:.-.0.q.u.m.A.A.P.~.P.b.g.u.5.3 ",
"l.A.A.A.F. .C C C L j.A.A.A.m.k.U M C m _ N.A.A.A.A.i.F C C C *.D.A.A.A.N.1.M C C Z q.A.A.A.A.m.| C C C U j.A.A.m.A.a.K M C z @ ",
"l.A.A.m.A.%.U U E _ j.A.A.A.A.m.| E E U +.m.m.A.m.m.i.U / E T 5.A.A.A.A.m.6.Y E ^ / u.A.m.A.A.m.+.U E T } l.A.A.A.A.j._ E E J % ",
"l.A.L.OXOX].`.P.m.A.A.A.A.A.A.A.m.m.H.`.[.OXOX~.|.OXXX[.~.N.m.A.A.A.A.A.A.m.M.N.~.`.|.OX(.Y.OXOX`.].H.M.m.N.A.A.A.A.m.m.M.N.s.6 ",
"l.A.~.wXwXwXwXOXm.A.A.A.A.A.A.A.A.m.(.wXwXwXwX$X4XwXwXwX:XA.A.A.A.A.A.A.A.A.A.A.;XwXwXtX:X+XwXwXwXwX~.A.A.A.A.A.A.A.A.A.A.A.j.7 ",
"l.A.L.OXOXOXOXP.m.A.m.m.m.m.m.m.A.m.L.OXOXOXOX~.`.OXOXOX(.A.A.M.M.m.m.m.m.A.A.A.`.OXOXOX(.Y.OXOXOXOXL.A.A.A.M.m.m.m.m.A.A.A.j.7 ",
"l.A.A.A.A.A.A.A.A.A.u.E / / T 9.A.A.A.A.A.A.A.A.A.A.A.A.A.A.A.m.O.T / / | m.A.A.A.A.A.A.A.A.A.A.A.A.A.A.A.A.j.` E ) y.A.A.A.j.7 ",
"l.A.A.A.A.A.A.A.A.A.0.n B C b :.A.A.A.A.A.A.A.A.A.A.A.A.A.A.A.m.E b B C U m.A.A.A.A.A.A.A.A.A.A.A.A.A.A.A.A.s.H b C 9.A.A.A.j.7 ",
"l.A.m.d.d.d.s.b.j.d.y.;.5.u.e.j.A.A.A.A.A.A.A.m.j.d.d.d.j.j.s.a.6.;.0.u.u.A.A.A.A.A.A.A.A.m.d.d.d.d.m.d.d.d.u.6.e.u.j.A.A.A.j.7 ",
"l.A.y.J J J J -._ C J J | A.A.A.A.A.A.A.A.A.A.b.E H J C | O.H J H I d.A.A.A.A.A.A.A.A.A.A.-.F J J J 1.I J J C &.A.A.A.A.A.A.j.7 ",
"l.A.u.E E E E :.| U E T O.m.m.A.A.A.A.A.A.A.A.m.| E E U +.&.E E T / a.m.m.A.A.A.A.A.A.A.S.5.Y E E E 9./ E T U -.C.m.m.A.A.A.j.7 ",
"l.A.m.j.j.j.j.m.j.a.N.^./.[.OXP.C.A.A.A.A.A.A.m.j.j.j.j.j.j.j.b.P.`.`.[.`.A.A.A.A.A.A.A.A.m.j.j.j.j.m.j.j.F.~._.[.`.L.m.A.A.j.7 ",
"l.A.A.A.A.A.A.A.A.m./.wXwXwXwX`.m.A.A.A.A.A.A.A.A.A.A.A.A.A.A.A.:XwXwXwX:XA.A.A.A.A.A.A.A.A.A.A.A.A.A.A.A.|.8XwXwX6X(.m.A.A.j.6 ",
"l.A.A.A.A.A.A.A.A.C.L.$X$X$X&XP.A.A.A.A.A.A.A.A.A.A.A.A.A.A.A.C.`.$X$X&XOXA.A.A.A.A.A.A.A.A.A.A.A.A.A.A.A.Y.$X$X&X+XL.C.A.A.j.w ",
"l.H.L._.@XQ.A.A.H.L.H.(.oXT.L.L.A.N.H.L.L.L.L.L.A.A.A.A.A.A.H.H.U.XX{.L.L.A.A.A.L.L._.oXP.L.A.A.A.A.A.H.H.L.}.oXY.S.L.A.A.H.d., ",
"E.$X$XdXbXrXe.q.`.$X#XsXvXiX+XOXi.0.(.$X$X$X$X$X~.0.s.H.5.H.$X+X5XlXhX-X$XK.5.H.$X%XgXzX7X+Xg.0.F.q.i.OX+X$XgXxXyXOX`.q.e.OXE.; ",
"p.A.S.&XtX~.P J s.A.A.=XrXOXA.m.I F a.S.A.A.A.L.u.C / -.b 1.F.A.Y.0X>XL.A.5.b -.A.H.:XwXY.M._ C -.H I m.A.L.:XwX|.A.j.J I m.p.* ",
"p.A.A.$XwXY.P J s.A.m.$XwX`.A.l.I Z i.A.A.A.A.A.u.C / -.b ;.A.A.P.6X;XA.A.1.b -.A.A.-X6XP.m._ C %.H I m.A.A.-X8X~.m.s.J I c.p.- ",
"8.N.A.$XwXY.P J s.A.m.$XwXOXA.l.I Z i.A.A.A.A.A.u.C / -.b ;.A.A.P.6X:XA.A.1.b -.A.A.;X8XP.m._ C %.H I m.A.A.;XwX/.m.s.J I b.7.  "
};
